%TF.GenerationSoftware,KiCad,Pcbnew,8.0.7*%
%TF.CreationDate,2025-01-22T20:40:01+05:30*%
%TF.ProjectId,Esp_Test,4573705f-5465-4737-942e-6b696361645f,rev?*%
%TF.SameCoordinates,Original*%
%TF.FileFunction,Drillmap*%
%TF.FilePolarity,Positive*%
%FSLAX45Y45*%
G04 Gerber Fmt 4.5, Leading zero omitted, Abs format (unit mm)*
G04 Created by KiCad (PCBNEW 8.0.7) date 2025-01-22 20:40:01*
%MOMM*%
%LPD*%
G01*
G04 APERTURE LIST*
%ADD10C,0.038100*%
%ADD11C,0.200000*%
%ADD12C,0.100000*%
%ADD13C,0.119000*%
G04 APERTURE END LIST*
D10*
X25835000Y-3581400D02*
G75*
G02*
X26035000Y-3781400I0J-200000D01*
G01*
X19656400Y-3581400D02*
X25835000Y-3581400D01*
X19456400Y-3781400D02*
G75*
G02*
X19656400Y-3581400I200000J0D01*
G01*
X19656400Y-8737600D02*
X25835000Y-8737600D01*
X26035000Y-8737600D02*
X26035000Y-8737600D01*
X26035000Y-3781400D02*
X26035000Y-8537600D01*
X19656400Y-8737600D02*
G75*
G02*
X19456400Y-8537600I0J200000D01*
G01*
X26035000Y-8537600D02*
G75*
G02*
X25835000Y-8737600I-200000J0D01*
G01*
X19456400Y-8537600D02*
X19456400Y-3781400D01*
D11*
D12*
X20234200Y-7813600D02*
X20304200Y-7883600D01*
X20304200Y-7813600D02*
X20234200Y-7883600D01*
X20234200Y-8575600D02*
X20304200Y-8645600D01*
X20304200Y-8575600D02*
X20234200Y-8645600D01*
X25136400Y-7788200D02*
X25206400Y-7858200D01*
X25206400Y-7788200D02*
X25136400Y-7858200D01*
X25136400Y-8550200D02*
X25206400Y-8620200D01*
X25206400Y-8550200D02*
X25136400Y-8620200D01*
X20720100Y-8153400D02*
G75*
G02*
X20630100Y-8153400I-45000J0D01*
G01*
X20630100Y-8153400D02*
G75*
G02*
X20720100Y-8153400I45000J0D01*
G01*
X20974100Y-8153400D02*
G75*
G02*
X20884100Y-8153400I-45000J0D01*
G01*
X20884100Y-8153400D02*
G75*
G02*
X20974100Y-8153400I45000J0D01*
G01*
X24606800Y-8128000D02*
G75*
G02*
X24516800Y-8128000I-45000J0D01*
G01*
X24516800Y-8128000D02*
G75*
G02*
X24606800Y-8128000I45000J0D01*
G01*
X24860800Y-8128000D02*
G75*
G02*
X24770800Y-8128000I-45000J0D01*
G01*
X24770800Y-8128000D02*
G75*
G02*
X24860800Y-8128000I45000J0D01*
G01*
X19812000Y-8052600D02*
X19812000Y-8152600D01*
X19762000Y-8102600D02*
X19862000Y-8102600D01*
X19837400Y-3937800D02*
X19837400Y-4037800D01*
X19787400Y-3987800D02*
X19887400Y-3987800D01*
X19837400Y-4191800D02*
X19837400Y-4291800D01*
X19787400Y-4241800D02*
X19887400Y-4241800D01*
X19837400Y-4445800D02*
X19837400Y-4545800D01*
X19787400Y-4495800D02*
X19887400Y-4495800D01*
X19837400Y-4699800D02*
X19837400Y-4799800D01*
X19787400Y-4749800D02*
X19887400Y-4749800D01*
X19837400Y-4953800D02*
X19837400Y-5053800D01*
X19787400Y-5003800D02*
X19887400Y-5003800D01*
X19837400Y-5207800D02*
X19837400Y-5307800D01*
X19787400Y-5257800D02*
X19887400Y-5257800D01*
X19837400Y-5461800D02*
X19837400Y-5561800D01*
X19787400Y-5511800D02*
X19887400Y-5511800D01*
X19837400Y-5715800D02*
X19837400Y-5815800D01*
X19787400Y-5765800D02*
X19887400Y-5765800D01*
X19837400Y-5969800D02*
X19837400Y-6069800D01*
X19787400Y-6019800D02*
X19887400Y-6019800D01*
X19837400Y-6223800D02*
X19837400Y-6323800D01*
X19787400Y-6273800D02*
X19887400Y-6273800D01*
X19837400Y-6477800D02*
X19837400Y-6577800D01*
X19787400Y-6527800D02*
X19887400Y-6527800D01*
X19837400Y-6731800D02*
X19837400Y-6831800D01*
X19787400Y-6781800D02*
X19887400Y-6781800D01*
X19837400Y-6985800D02*
X19837400Y-7085800D01*
X19787400Y-7035800D02*
X19887400Y-7035800D01*
X19837400Y-7239800D02*
X19837400Y-7339800D01*
X19787400Y-7289800D02*
X19887400Y-7289800D01*
X19837400Y-7493800D02*
X19837400Y-7593800D01*
X19787400Y-7543800D02*
X19887400Y-7543800D01*
X21380000Y-3929000D02*
X21380000Y-4029000D01*
X21330000Y-3979000D02*
X21430000Y-3979000D01*
X21380000Y-4183000D02*
X21380000Y-4283000D01*
X21330000Y-4233000D02*
X21430000Y-4233000D01*
X21380000Y-4437000D02*
X21380000Y-4537000D01*
X21330000Y-4487000D02*
X21430000Y-4487000D01*
X21380000Y-4691000D02*
X21380000Y-4791000D01*
X21330000Y-4741000D02*
X21430000Y-4741000D01*
X21380000Y-4945000D02*
X21380000Y-5045000D01*
X21330000Y-4995000D02*
X21430000Y-4995000D01*
X21380000Y-5199000D02*
X21380000Y-5299000D01*
X21330000Y-5249000D02*
X21430000Y-5249000D01*
X21380000Y-5453000D02*
X21380000Y-5553000D01*
X21330000Y-5503000D02*
X21430000Y-5503000D01*
X21380000Y-5707000D02*
X21380000Y-5807000D01*
X21330000Y-5757000D02*
X21430000Y-5757000D01*
X21380000Y-5961000D02*
X21380000Y-6061000D01*
X21330000Y-6011000D02*
X21430000Y-6011000D01*
X21380000Y-6215000D02*
X21380000Y-6315000D01*
X21330000Y-6265000D02*
X21430000Y-6265000D01*
X21380000Y-6469000D02*
X21380000Y-6569000D01*
X21330000Y-6519000D02*
X21430000Y-6519000D01*
X21380000Y-6723000D02*
X21380000Y-6823000D01*
X21330000Y-6773000D02*
X21430000Y-6773000D01*
X21380000Y-6977000D02*
X21380000Y-7077000D01*
X21330000Y-7027000D02*
X21430000Y-7027000D01*
X21380000Y-7231000D02*
X21380000Y-7331000D01*
X21330000Y-7281000D02*
X21430000Y-7281000D01*
X21380000Y-7485000D02*
X21380000Y-7585000D01*
X21330000Y-7535000D02*
X21430000Y-7535000D01*
X23920000Y-3929000D02*
X23920000Y-4029000D01*
X23870000Y-3979000D02*
X23970000Y-3979000D01*
X23920000Y-4183000D02*
X23920000Y-4283000D01*
X23870000Y-4233000D02*
X23970000Y-4233000D01*
X23920000Y-4437000D02*
X23920000Y-4537000D01*
X23870000Y-4487000D02*
X23970000Y-4487000D01*
X23920000Y-4691000D02*
X23920000Y-4791000D01*
X23870000Y-4741000D02*
X23970000Y-4741000D01*
X23920000Y-4945000D02*
X23920000Y-5045000D01*
X23870000Y-4995000D02*
X23970000Y-4995000D01*
X23920000Y-5199000D02*
X23920000Y-5299000D01*
X23870000Y-5249000D02*
X23970000Y-5249000D01*
X23920000Y-5453000D02*
X23920000Y-5553000D01*
X23870000Y-5503000D02*
X23970000Y-5503000D01*
X23920000Y-5707000D02*
X23920000Y-5807000D01*
X23870000Y-5757000D02*
X23970000Y-5757000D01*
X23920000Y-5961000D02*
X23920000Y-6061000D01*
X23870000Y-6011000D02*
X23970000Y-6011000D01*
X23920000Y-6215000D02*
X23920000Y-6315000D01*
X23870000Y-6265000D02*
X23970000Y-6265000D01*
X23920000Y-6469000D02*
X23920000Y-6569000D01*
X23870000Y-6519000D02*
X23970000Y-6519000D01*
X23920000Y-6723000D02*
X23920000Y-6823000D01*
X23870000Y-6773000D02*
X23970000Y-6773000D01*
X23920000Y-6977000D02*
X23920000Y-7077000D01*
X23870000Y-7027000D02*
X23970000Y-7027000D01*
X23920000Y-7231000D02*
X23920000Y-7331000D01*
X23870000Y-7281000D02*
X23970000Y-7281000D01*
X23920000Y-7485000D02*
X23920000Y-7585000D01*
X23870000Y-7535000D02*
X23970000Y-7535000D01*
X25552400Y-3963200D02*
X25552400Y-4063200D01*
X25502400Y-4013200D02*
X25602400Y-4013200D01*
X25552400Y-4217200D02*
X25552400Y-4317200D01*
X25502400Y-4267200D02*
X25602400Y-4267200D01*
X25552400Y-4471200D02*
X25552400Y-4571200D01*
X25502400Y-4521200D02*
X25602400Y-4521200D01*
X25552400Y-4725200D02*
X25552400Y-4825200D01*
X25502400Y-4775200D02*
X25602400Y-4775200D01*
X25552400Y-4979200D02*
X25552400Y-5079200D01*
X25502400Y-5029200D02*
X25602400Y-5029200D01*
X25552400Y-5233200D02*
X25552400Y-5333200D01*
X25502400Y-5283200D02*
X25602400Y-5283200D01*
X25552400Y-5487200D02*
X25552400Y-5587200D01*
X25502400Y-5537200D02*
X25602400Y-5537200D01*
X25552400Y-5741200D02*
X25552400Y-5841200D01*
X25502400Y-5791200D02*
X25602400Y-5791200D01*
X25552400Y-5995200D02*
X25552400Y-6095200D01*
X25502400Y-6045200D02*
X25602400Y-6045200D01*
X25552400Y-6249200D02*
X25552400Y-6349200D01*
X25502400Y-6299200D02*
X25602400Y-6299200D01*
X25552400Y-6503200D02*
X25552400Y-6603200D01*
X25502400Y-6553200D02*
X25602400Y-6553200D01*
X25552400Y-6757200D02*
X25552400Y-6857200D01*
X25502400Y-6807200D02*
X25602400Y-6807200D01*
X25552400Y-7011200D02*
X25552400Y-7111200D01*
X25502400Y-7061200D02*
X25602400Y-7061200D01*
X25552400Y-7265200D02*
X25552400Y-7365200D01*
X25502400Y-7315200D02*
X25602400Y-7315200D01*
X25552400Y-7519200D02*
X25552400Y-7619200D01*
X25502400Y-7569200D02*
X25602400Y-7569200D01*
X25552400Y-8078000D02*
X25552400Y-8178000D01*
X25502400Y-8128000D02*
X25602400Y-8128000D01*
D13*
X20819273Y-4029873D02*
X20819273Y-3945727D01*
X20735127Y-3945727D01*
X20735127Y-4029873D01*
X20819273Y-4029873D01*
X20819273Y-4283873D02*
X20819273Y-4199727D01*
X20735127Y-4199727D01*
X20735127Y-4283873D01*
X20819273Y-4283873D01*
X20819273Y-4537873D02*
X20819273Y-4453727D01*
X20735127Y-4453727D01*
X20735127Y-4537873D01*
X20819273Y-4537873D01*
X20819273Y-4791873D02*
X20819273Y-4707727D01*
X20735127Y-4707727D01*
X20735127Y-4791873D01*
X20819273Y-4791873D01*
X20819273Y-5045873D02*
X20819273Y-4961727D01*
X20735127Y-4961727D01*
X20735127Y-5045873D01*
X20819273Y-5045873D01*
X20819273Y-5299873D02*
X20819273Y-5215727D01*
X20735127Y-5215727D01*
X20735127Y-5299873D01*
X20819273Y-5299873D01*
X20819273Y-5553873D02*
X20819273Y-5469727D01*
X20735127Y-5469727D01*
X20735127Y-5553873D01*
X20819273Y-5553873D01*
X20819273Y-5807873D02*
X20819273Y-5723727D01*
X20735127Y-5723727D01*
X20735127Y-5807873D01*
X20819273Y-5807873D01*
X20819273Y-6061873D02*
X20819273Y-5977727D01*
X20735127Y-5977727D01*
X20735127Y-6061873D01*
X20819273Y-6061873D01*
X20819273Y-6315873D02*
X20819273Y-6231727D01*
X20735127Y-6231727D01*
X20735127Y-6315873D01*
X20819273Y-6315873D01*
X20819273Y-6569873D02*
X20819273Y-6485727D01*
X20735127Y-6485727D01*
X20735127Y-6569873D01*
X20819273Y-6569873D01*
X20819273Y-6823873D02*
X20819273Y-6739727D01*
X20735127Y-6739727D01*
X20735127Y-6823873D01*
X20819273Y-6823873D01*
X20819273Y-7077873D02*
X20819273Y-6993727D01*
X20735127Y-6993727D01*
X20735127Y-7077873D01*
X20819273Y-7077873D01*
X20819273Y-7331873D02*
X20819273Y-7247727D01*
X20735127Y-7247727D01*
X20735127Y-7331873D01*
X20819273Y-7331873D01*
X20819273Y-7585873D02*
X20819273Y-7501727D01*
X20735127Y-7501727D01*
X20735127Y-7585873D01*
X20819273Y-7585873D01*
X24705473Y-4029873D02*
X24705473Y-3945727D01*
X24621327Y-3945727D01*
X24621327Y-4029873D01*
X24705473Y-4029873D01*
X24705473Y-4283873D02*
X24705473Y-4199727D01*
X24621327Y-4199727D01*
X24621327Y-4283873D01*
X24705473Y-4283873D01*
X24705473Y-4537873D02*
X24705473Y-4453727D01*
X24621327Y-4453727D01*
X24621327Y-4537873D01*
X24705473Y-4537873D01*
X24705473Y-4791873D02*
X24705473Y-4707727D01*
X24621327Y-4707727D01*
X24621327Y-4791873D01*
X24705473Y-4791873D01*
X24705473Y-5045873D02*
X24705473Y-4961727D01*
X24621327Y-4961727D01*
X24621327Y-5045873D01*
X24705473Y-5045873D01*
X24705473Y-5299873D02*
X24705473Y-5215727D01*
X24621327Y-5215727D01*
X24621327Y-5299873D01*
X24705473Y-5299873D01*
X24705473Y-5553873D02*
X24705473Y-5469727D01*
X24621327Y-5469727D01*
X24621327Y-5553873D01*
X24705473Y-5553873D01*
X24705473Y-5807873D02*
X24705473Y-5723727D01*
X24621327Y-5723727D01*
X24621327Y-5807873D01*
X24705473Y-5807873D01*
X24705473Y-6061873D02*
X24705473Y-5977727D01*
X24621327Y-5977727D01*
X24621327Y-6061873D01*
X24705473Y-6061873D01*
X24705473Y-6315873D02*
X24705473Y-6231727D01*
X24621327Y-6231727D01*
X24621327Y-6315873D01*
X24705473Y-6315873D01*
X24705473Y-6569873D02*
X24705473Y-6485727D01*
X24621327Y-6485727D01*
X24621327Y-6569873D01*
X24705473Y-6569873D01*
X24705473Y-6823873D02*
X24705473Y-6739727D01*
X24621327Y-6739727D01*
X24621327Y-6823873D01*
X24705473Y-6823873D01*
X24705473Y-7077873D02*
X24705473Y-6993727D01*
X24621327Y-6993727D01*
X24621327Y-7077873D01*
X24705473Y-7077873D01*
X24705473Y-7331873D02*
X24705473Y-7247727D01*
X24621327Y-7247727D01*
X24621327Y-7331873D01*
X24705473Y-7331873D01*
X24705473Y-7585873D02*
X24705473Y-7501727D01*
X24621327Y-7501727D01*
X24621327Y-7585873D01*
X24705473Y-7585873D01*
D11*
X19715272Y-9050989D02*
X19715272Y-8850989D01*
X19715272Y-8850989D02*
X19762891Y-8850989D01*
X19762891Y-8850989D02*
X19791462Y-8860513D01*
X19791462Y-8860513D02*
X19810510Y-8879560D01*
X19810510Y-8879560D02*
X19820034Y-8898608D01*
X19820034Y-8898608D02*
X19829558Y-8936703D01*
X19829558Y-8936703D02*
X19829558Y-8965275D01*
X19829558Y-8965275D02*
X19820034Y-9003370D01*
X19820034Y-9003370D02*
X19810510Y-9022417D01*
X19810510Y-9022417D02*
X19791462Y-9041465D01*
X19791462Y-9041465D02*
X19762891Y-9050989D01*
X19762891Y-9050989D02*
X19715272Y-9050989D01*
X19915272Y-9050989D02*
X19915272Y-8917655D01*
X19915272Y-8955751D02*
X19924796Y-8936703D01*
X19924796Y-8936703D02*
X19934319Y-8927179D01*
X19934319Y-8927179D02*
X19953367Y-8917655D01*
X19953367Y-8917655D02*
X19972415Y-8917655D01*
X20039081Y-9050989D02*
X20039081Y-8917655D01*
X20039081Y-8850989D02*
X20029558Y-8860513D01*
X20029558Y-8860513D02*
X20039081Y-8870036D01*
X20039081Y-8870036D02*
X20048605Y-8860513D01*
X20048605Y-8860513D02*
X20039081Y-8850989D01*
X20039081Y-8850989D02*
X20039081Y-8870036D01*
X20162891Y-9050989D02*
X20143843Y-9041465D01*
X20143843Y-9041465D02*
X20134319Y-9022417D01*
X20134319Y-9022417D02*
X20134319Y-8850989D01*
X20267653Y-9050989D02*
X20248605Y-9041465D01*
X20248605Y-9041465D02*
X20239081Y-9022417D01*
X20239081Y-9022417D02*
X20239081Y-8850989D01*
X20496224Y-9050989D02*
X20496224Y-8850989D01*
X20496224Y-8850989D02*
X20562891Y-8993846D01*
X20562891Y-8993846D02*
X20629558Y-8850989D01*
X20629558Y-8850989D02*
X20629558Y-9050989D01*
X20810510Y-9050989D02*
X20810510Y-8946227D01*
X20810510Y-8946227D02*
X20800986Y-8927179D01*
X20800986Y-8927179D02*
X20781939Y-8917655D01*
X20781939Y-8917655D02*
X20743843Y-8917655D01*
X20743843Y-8917655D02*
X20724796Y-8927179D01*
X20810510Y-9041465D02*
X20791462Y-9050989D01*
X20791462Y-9050989D02*
X20743843Y-9050989D01*
X20743843Y-9050989D02*
X20724796Y-9041465D01*
X20724796Y-9041465D02*
X20715272Y-9022417D01*
X20715272Y-9022417D02*
X20715272Y-9003370D01*
X20715272Y-9003370D02*
X20724796Y-8984322D01*
X20724796Y-8984322D02*
X20743843Y-8974798D01*
X20743843Y-8974798D02*
X20791462Y-8974798D01*
X20791462Y-8974798D02*
X20810510Y-8965275D01*
X20905748Y-8917655D02*
X20905748Y-9117655D01*
X20905748Y-8927179D02*
X20924796Y-8917655D01*
X20924796Y-8917655D02*
X20962891Y-8917655D01*
X20962891Y-8917655D02*
X20981939Y-8927179D01*
X20981939Y-8927179D02*
X20991462Y-8936703D01*
X20991462Y-8936703D02*
X21000986Y-8955751D01*
X21000986Y-8955751D02*
X21000986Y-9012894D01*
X21000986Y-9012894D02*
X20991462Y-9031941D01*
X20991462Y-9031941D02*
X20981939Y-9041465D01*
X20981939Y-9041465D02*
X20962891Y-9050989D01*
X20962891Y-9050989D02*
X20924796Y-9050989D01*
X20924796Y-9050989D02*
X20905748Y-9041465D01*
X21086700Y-9031941D02*
X21096224Y-9041465D01*
X21096224Y-9041465D02*
X21086700Y-9050989D01*
X21086700Y-9050989D02*
X21077177Y-9041465D01*
X21077177Y-9041465D02*
X21086700Y-9031941D01*
X21086700Y-9031941D02*
X21086700Y-9050989D01*
X21086700Y-8927179D02*
X21096224Y-8936703D01*
X21096224Y-8936703D02*
X21086700Y-8946227D01*
X21086700Y-8946227D02*
X21077177Y-8936703D01*
X21077177Y-8936703D02*
X21086700Y-8927179D01*
X21086700Y-8927179D02*
X21086700Y-8946227D01*
D12*
X19384495Y-9344505D02*
X19454495Y-9414505D01*
X19454495Y-9344505D02*
X19384495Y-9414505D01*
D11*
X19753367Y-9270989D02*
X19772415Y-9270989D01*
X19772415Y-9270989D02*
X19791462Y-9280513D01*
X19791462Y-9280513D02*
X19800986Y-9290036D01*
X19800986Y-9290036D02*
X19810510Y-9309084D01*
X19810510Y-9309084D02*
X19820034Y-9347179D01*
X19820034Y-9347179D02*
X19820034Y-9394798D01*
X19820034Y-9394798D02*
X19810510Y-9432894D01*
X19810510Y-9432894D02*
X19800986Y-9451941D01*
X19800986Y-9451941D02*
X19791462Y-9461465D01*
X19791462Y-9461465D02*
X19772415Y-9470989D01*
X19772415Y-9470989D02*
X19753367Y-9470989D01*
X19753367Y-9470989D02*
X19734319Y-9461465D01*
X19734319Y-9461465D02*
X19724796Y-9451941D01*
X19724796Y-9451941D02*
X19715272Y-9432894D01*
X19715272Y-9432894D02*
X19705748Y-9394798D01*
X19705748Y-9394798D02*
X19705748Y-9347179D01*
X19705748Y-9347179D02*
X19715272Y-9309084D01*
X19715272Y-9309084D02*
X19724796Y-9290036D01*
X19724796Y-9290036D02*
X19734319Y-9280513D01*
X19734319Y-9280513D02*
X19753367Y-9270989D01*
X19905748Y-9451941D02*
X19915272Y-9461465D01*
X19915272Y-9461465D02*
X19905748Y-9470989D01*
X19905748Y-9470989D02*
X19896224Y-9461465D01*
X19896224Y-9461465D02*
X19905748Y-9451941D01*
X19905748Y-9451941D02*
X19905748Y-9470989D01*
X19981939Y-9270989D02*
X20115272Y-9270989D01*
X20115272Y-9270989D02*
X20029558Y-9470989D01*
X20229558Y-9270989D02*
X20248605Y-9270989D01*
X20248605Y-9270989D02*
X20267653Y-9280513D01*
X20267653Y-9280513D02*
X20277177Y-9290036D01*
X20277177Y-9290036D02*
X20286700Y-9309084D01*
X20286700Y-9309084D02*
X20296224Y-9347179D01*
X20296224Y-9347179D02*
X20296224Y-9394798D01*
X20296224Y-9394798D02*
X20286700Y-9432894D01*
X20286700Y-9432894D02*
X20277177Y-9451941D01*
X20277177Y-9451941D02*
X20267653Y-9461465D01*
X20267653Y-9461465D02*
X20248605Y-9470989D01*
X20248605Y-9470989D02*
X20229558Y-9470989D01*
X20229558Y-9470989D02*
X20210510Y-9461465D01*
X20210510Y-9461465D02*
X20200986Y-9451941D01*
X20200986Y-9451941D02*
X20191462Y-9432894D01*
X20191462Y-9432894D02*
X20181939Y-9394798D01*
X20181939Y-9394798D02*
X20181939Y-9347179D01*
X20181939Y-9347179D02*
X20191462Y-9309084D01*
X20191462Y-9309084D02*
X20200986Y-9290036D01*
X20200986Y-9290036D02*
X20210510Y-9280513D01*
X20210510Y-9280513D02*
X20229558Y-9270989D01*
X20420034Y-9270989D02*
X20439081Y-9270989D01*
X20439081Y-9270989D02*
X20458129Y-9280513D01*
X20458129Y-9280513D02*
X20467653Y-9290036D01*
X20467653Y-9290036D02*
X20477177Y-9309084D01*
X20477177Y-9309084D02*
X20486700Y-9347179D01*
X20486700Y-9347179D02*
X20486700Y-9394798D01*
X20486700Y-9394798D02*
X20477177Y-9432894D01*
X20477177Y-9432894D02*
X20467653Y-9451941D01*
X20467653Y-9451941D02*
X20458129Y-9461465D01*
X20458129Y-9461465D02*
X20439081Y-9470989D01*
X20439081Y-9470989D02*
X20420034Y-9470989D01*
X20420034Y-9470989D02*
X20400986Y-9461465D01*
X20400986Y-9461465D02*
X20391462Y-9451941D01*
X20391462Y-9451941D02*
X20381939Y-9432894D01*
X20381939Y-9432894D02*
X20372415Y-9394798D01*
X20372415Y-9394798D02*
X20372415Y-9347179D01*
X20372415Y-9347179D02*
X20381939Y-9309084D01*
X20381939Y-9309084D02*
X20391462Y-9290036D01*
X20391462Y-9290036D02*
X20400986Y-9280513D01*
X20400986Y-9280513D02*
X20420034Y-9270989D01*
X20572415Y-9470989D02*
X20572415Y-9337655D01*
X20572415Y-9356703D02*
X20581939Y-9347179D01*
X20581939Y-9347179D02*
X20600986Y-9337655D01*
X20600986Y-9337655D02*
X20629558Y-9337655D01*
X20629558Y-9337655D02*
X20648605Y-9347179D01*
X20648605Y-9347179D02*
X20658129Y-9366227D01*
X20658129Y-9366227D02*
X20658129Y-9470989D01*
X20658129Y-9366227D02*
X20667653Y-9347179D01*
X20667653Y-9347179D02*
X20686700Y-9337655D01*
X20686700Y-9337655D02*
X20715272Y-9337655D01*
X20715272Y-9337655D02*
X20734320Y-9347179D01*
X20734320Y-9347179D02*
X20743843Y-9366227D01*
X20743843Y-9366227D02*
X20743843Y-9470989D01*
X20839081Y-9470989D02*
X20839081Y-9337655D01*
X20839081Y-9356703D02*
X20848605Y-9347179D01*
X20848605Y-9347179D02*
X20867653Y-9337655D01*
X20867653Y-9337655D02*
X20896224Y-9337655D01*
X20896224Y-9337655D02*
X20915272Y-9347179D01*
X20915272Y-9347179D02*
X20924796Y-9366227D01*
X20924796Y-9366227D02*
X20924796Y-9470989D01*
X20924796Y-9366227D02*
X20934320Y-9347179D01*
X20934320Y-9347179D02*
X20953367Y-9337655D01*
X20953367Y-9337655D02*
X20981939Y-9337655D01*
X20981939Y-9337655D02*
X21000986Y-9347179D01*
X21000986Y-9347179D02*
X21010510Y-9366227D01*
X21010510Y-9366227D02*
X21010510Y-9470989D01*
X21400986Y-9261465D02*
X21229558Y-9518608D01*
X21658129Y-9270989D02*
X21677177Y-9270989D01*
X21677177Y-9270989D02*
X21696224Y-9280513D01*
X21696224Y-9280513D02*
X21705748Y-9290036D01*
X21705748Y-9290036D02*
X21715272Y-9309084D01*
X21715272Y-9309084D02*
X21724796Y-9347179D01*
X21724796Y-9347179D02*
X21724796Y-9394798D01*
X21724796Y-9394798D02*
X21715272Y-9432894D01*
X21715272Y-9432894D02*
X21705748Y-9451941D01*
X21705748Y-9451941D02*
X21696224Y-9461465D01*
X21696224Y-9461465D02*
X21677177Y-9470989D01*
X21677177Y-9470989D02*
X21658129Y-9470989D01*
X21658129Y-9470989D02*
X21639082Y-9461465D01*
X21639082Y-9461465D02*
X21629558Y-9451941D01*
X21629558Y-9451941D02*
X21620034Y-9432894D01*
X21620034Y-9432894D02*
X21610510Y-9394798D01*
X21610510Y-9394798D02*
X21610510Y-9347179D01*
X21610510Y-9347179D02*
X21620034Y-9309084D01*
X21620034Y-9309084D02*
X21629558Y-9290036D01*
X21629558Y-9290036D02*
X21639082Y-9280513D01*
X21639082Y-9280513D02*
X21658129Y-9270989D01*
X21810510Y-9451941D02*
X21820034Y-9461465D01*
X21820034Y-9461465D02*
X21810510Y-9470989D01*
X21810510Y-9470989D02*
X21800986Y-9461465D01*
X21800986Y-9461465D02*
X21810510Y-9451941D01*
X21810510Y-9451941D02*
X21810510Y-9470989D01*
X21943843Y-9270989D02*
X21962891Y-9270989D01*
X21962891Y-9270989D02*
X21981939Y-9280513D01*
X21981939Y-9280513D02*
X21991463Y-9290036D01*
X21991463Y-9290036D02*
X22000986Y-9309084D01*
X22000986Y-9309084D02*
X22010510Y-9347179D01*
X22010510Y-9347179D02*
X22010510Y-9394798D01*
X22010510Y-9394798D02*
X22000986Y-9432894D01*
X22000986Y-9432894D02*
X21991463Y-9451941D01*
X21991463Y-9451941D02*
X21981939Y-9461465D01*
X21981939Y-9461465D02*
X21962891Y-9470989D01*
X21962891Y-9470989D02*
X21943843Y-9470989D01*
X21943843Y-9470989D02*
X21924796Y-9461465D01*
X21924796Y-9461465D02*
X21915272Y-9451941D01*
X21915272Y-9451941D02*
X21905748Y-9432894D01*
X21905748Y-9432894D02*
X21896224Y-9394798D01*
X21896224Y-9394798D02*
X21896224Y-9347179D01*
X21896224Y-9347179D02*
X21905748Y-9309084D01*
X21905748Y-9309084D02*
X21915272Y-9290036D01*
X21915272Y-9290036D02*
X21924796Y-9280513D01*
X21924796Y-9280513D02*
X21943843Y-9270989D01*
X22086701Y-9290036D02*
X22096224Y-9280513D01*
X22096224Y-9280513D02*
X22115272Y-9270989D01*
X22115272Y-9270989D02*
X22162891Y-9270989D01*
X22162891Y-9270989D02*
X22181939Y-9280513D01*
X22181939Y-9280513D02*
X22191463Y-9290036D01*
X22191463Y-9290036D02*
X22200986Y-9309084D01*
X22200986Y-9309084D02*
X22200986Y-9328132D01*
X22200986Y-9328132D02*
X22191463Y-9356703D01*
X22191463Y-9356703D02*
X22077177Y-9470989D01*
X22077177Y-9470989D02*
X22200986Y-9470989D01*
X22267653Y-9270989D02*
X22400986Y-9270989D01*
X22400986Y-9270989D02*
X22315272Y-9470989D01*
X22562891Y-9270989D02*
X22524796Y-9270989D01*
X22524796Y-9270989D02*
X22505748Y-9280513D01*
X22505748Y-9280513D02*
X22496224Y-9290036D01*
X22496224Y-9290036D02*
X22477177Y-9318608D01*
X22477177Y-9318608D02*
X22467653Y-9356703D01*
X22467653Y-9356703D02*
X22467653Y-9432894D01*
X22467653Y-9432894D02*
X22477177Y-9451941D01*
X22477177Y-9451941D02*
X22486701Y-9461465D01*
X22486701Y-9461465D02*
X22505748Y-9470989D01*
X22505748Y-9470989D02*
X22543843Y-9470989D01*
X22543843Y-9470989D02*
X22562891Y-9461465D01*
X22562891Y-9461465D02*
X22572415Y-9451941D01*
X22572415Y-9451941D02*
X22581939Y-9432894D01*
X22581939Y-9432894D02*
X22581939Y-9385275D01*
X22581939Y-9385275D02*
X22572415Y-9366227D01*
X22572415Y-9366227D02*
X22562891Y-9356703D01*
X22562891Y-9356703D02*
X22543843Y-9347179D01*
X22543843Y-9347179D02*
X22505748Y-9347179D01*
X22505748Y-9347179D02*
X22486701Y-9356703D01*
X22486701Y-9356703D02*
X22477177Y-9366227D01*
X22477177Y-9366227D02*
X22467653Y-9385275D01*
X22658129Y-9270989D02*
X22658129Y-9309084D01*
X22734320Y-9270989D02*
X22734320Y-9309084D01*
X23029558Y-9547179D02*
X23020034Y-9537655D01*
X23020034Y-9537655D02*
X23000986Y-9509084D01*
X23000986Y-9509084D02*
X22991463Y-9490036D01*
X22991463Y-9490036D02*
X22981939Y-9461465D01*
X22981939Y-9461465D02*
X22972415Y-9413846D01*
X22972415Y-9413846D02*
X22972415Y-9375751D01*
X22972415Y-9375751D02*
X22981939Y-9328132D01*
X22981939Y-9328132D02*
X22991463Y-9299560D01*
X22991463Y-9299560D02*
X23000986Y-9280513D01*
X23000986Y-9280513D02*
X23020034Y-9251941D01*
X23020034Y-9251941D02*
X23029558Y-9242417D01*
X23191463Y-9337655D02*
X23191463Y-9470989D01*
X23143843Y-9261465D02*
X23096224Y-9404322D01*
X23096224Y-9404322D02*
X23220034Y-9404322D01*
X23448605Y-9470989D02*
X23448605Y-9270989D01*
X23534320Y-9470989D02*
X23534320Y-9366227D01*
X23534320Y-9366227D02*
X23524796Y-9347179D01*
X23524796Y-9347179D02*
X23505748Y-9337655D01*
X23505748Y-9337655D02*
X23477177Y-9337655D01*
X23477177Y-9337655D02*
X23458129Y-9347179D01*
X23458129Y-9347179D02*
X23448605Y-9356703D01*
X23658129Y-9470989D02*
X23639082Y-9461465D01*
X23639082Y-9461465D02*
X23629558Y-9451941D01*
X23629558Y-9451941D02*
X23620034Y-9432894D01*
X23620034Y-9432894D02*
X23620034Y-9375751D01*
X23620034Y-9375751D02*
X23629558Y-9356703D01*
X23629558Y-9356703D02*
X23639082Y-9347179D01*
X23639082Y-9347179D02*
X23658129Y-9337655D01*
X23658129Y-9337655D02*
X23686701Y-9337655D01*
X23686701Y-9337655D02*
X23705748Y-9347179D01*
X23705748Y-9347179D02*
X23715272Y-9356703D01*
X23715272Y-9356703D02*
X23724796Y-9375751D01*
X23724796Y-9375751D02*
X23724796Y-9432894D01*
X23724796Y-9432894D02*
X23715272Y-9451941D01*
X23715272Y-9451941D02*
X23705748Y-9461465D01*
X23705748Y-9461465D02*
X23686701Y-9470989D01*
X23686701Y-9470989D02*
X23658129Y-9470989D01*
X23839082Y-9470989D02*
X23820034Y-9461465D01*
X23820034Y-9461465D02*
X23810510Y-9442417D01*
X23810510Y-9442417D02*
X23810510Y-9270989D01*
X23991463Y-9461465D02*
X23972415Y-9470989D01*
X23972415Y-9470989D02*
X23934320Y-9470989D01*
X23934320Y-9470989D02*
X23915272Y-9461465D01*
X23915272Y-9461465D02*
X23905748Y-9442417D01*
X23905748Y-9442417D02*
X23905748Y-9366227D01*
X23905748Y-9366227D02*
X23915272Y-9347179D01*
X23915272Y-9347179D02*
X23934320Y-9337655D01*
X23934320Y-9337655D02*
X23972415Y-9337655D01*
X23972415Y-9337655D02*
X23991463Y-9347179D01*
X23991463Y-9347179D02*
X24000986Y-9366227D01*
X24000986Y-9366227D02*
X24000986Y-9385275D01*
X24000986Y-9385275D02*
X23905748Y-9404322D01*
X24077177Y-9461465D02*
X24096225Y-9470989D01*
X24096225Y-9470989D02*
X24134320Y-9470989D01*
X24134320Y-9470989D02*
X24153367Y-9461465D01*
X24153367Y-9461465D02*
X24162891Y-9442417D01*
X24162891Y-9442417D02*
X24162891Y-9432894D01*
X24162891Y-9432894D02*
X24153367Y-9413846D01*
X24153367Y-9413846D02*
X24134320Y-9404322D01*
X24134320Y-9404322D02*
X24105748Y-9404322D01*
X24105748Y-9404322D02*
X24086701Y-9394798D01*
X24086701Y-9394798D02*
X24077177Y-9375751D01*
X24077177Y-9375751D02*
X24077177Y-9366227D01*
X24077177Y-9366227D02*
X24086701Y-9347179D01*
X24086701Y-9347179D02*
X24105748Y-9337655D01*
X24105748Y-9337655D02*
X24134320Y-9337655D01*
X24134320Y-9337655D02*
X24153367Y-9347179D01*
X24229558Y-9547179D02*
X24239082Y-9537655D01*
X24239082Y-9537655D02*
X24258129Y-9509084D01*
X24258129Y-9509084D02*
X24267653Y-9490036D01*
X24267653Y-9490036D02*
X24277177Y-9461465D01*
X24277177Y-9461465D02*
X24286701Y-9413846D01*
X24286701Y-9413846D02*
X24286701Y-9375751D01*
X24286701Y-9375751D02*
X24277177Y-9328132D01*
X24277177Y-9328132D02*
X24267653Y-9299560D01*
X24267653Y-9299560D02*
X24258129Y-9280513D01*
X24258129Y-9280513D02*
X24239082Y-9251941D01*
X24239082Y-9251941D02*
X24229558Y-9242417D01*
D12*
X19454495Y-9643505D02*
G75*
G02*
X19364495Y-9643505I-45000J0D01*
G01*
X19364495Y-9643505D02*
G75*
G02*
X19454495Y-9643505I45000J0D01*
G01*
D11*
X19753367Y-9534989D02*
X19772415Y-9534989D01*
X19772415Y-9534989D02*
X19791462Y-9544513D01*
X19791462Y-9544513D02*
X19800986Y-9554036D01*
X19800986Y-9554036D02*
X19810510Y-9573084D01*
X19810510Y-9573084D02*
X19820034Y-9611179D01*
X19820034Y-9611179D02*
X19820034Y-9658798D01*
X19820034Y-9658798D02*
X19810510Y-9696894D01*
X19810510Y-9696894D02*
X19800986Y-9715941D01*
X19800986Y-9715941D02*
X19791462Y-9725465D01*
X19791462Y-9725465D02*
X19772415Y-9734989D01*
X19772415Y-9734989D02*
X19753367Y-9734989D01*
X19753367Y-9734989D02*
X19734319Y-9725465D01*
X19734319Y-9725465D02*
X19724796Y-9715941D01*
X19724796Y-9715941D02*
X19715272Y-9696894D01*
X19715272Y-9696894D02*
X19705748Y-9658798D01*
X19705748Y-9658798D02*
X19705748Y-9611179D01*
X19705748Y-9611179D02*
X19715272Y-9573084D01*
X19715272Y-9573084D02*
X19724796Y-9554036D01*
X19724796Y-9554036D02*
X19734319Y-9544513D01*
X19734319Y-9544513D02*
X19753367Y-9534989D01*
X19905748Y-9715941D02*
X19915272Y-9725465D01*
X19915272Y-9725465D02*
X19905748Y-9734989D01*
X19905748Y-9734989D02*
X19896224Y-9725465D01*
X19896224Y-9725465D02*
X19905748Y-9715941D01*
X19905748Y-9715941D02*
X19905748Y-9734989D01*
X20010510Y-9734989D02*
X20048605Y-9734989D01*
X20048605Y-9734989D02*
X20067653Y-9725465D01*
X20067653Y-9725465D02*
X20077177Y-9715941D01*
X20077177Y-9715941D02*
X20096224Y-9687370D01*
X20096224Y-9687370D02*
X20105748Y-9649275D01*
X20105748Y-9649275D02*
X20105748Y-9573084D01*
X20105748Y-9573084D02*
X20096224Y-9554036D01*
X20096224Y-9554036D02*
X20086700Y-9544513D01*
X20086700Y-9544513D02*
X20067653Y-9534989D01*
X20067653Y-9534989D02*
X20029558Y-9534989D01*
X20029558Y-9534989D02*
X20010510Y-9544513D01*
X20010510Y-9544513D02*
X20000986Y-9554036D01*
X20000986Y-9554036D02*
X19991462Y-9573084D01*
X19991462Y-9573084D02*
X19991462Y-9620703D01*
X19991462Y-9620703D02*
X20000986Y-9639751D01*
X20000986Y-9639751D02*
X20010510Y-9649275D01*
X20010510Y-9649275D02*
X20029558Y-9658798D01*
X20029558Y-9658798D02*
X20067653Y-9658798D01*
X20067653Y-9658798D02*
X20086700Y-9649275D01*
X20086700Y-9649275D02*
X20096224Y-9639751D01*
X20096224Y-9639751D02*
X20105748Y-9620703D01*
X20229558Y-9534989D02*
X20248605Y-9534989D01*
X20248605Y-9534989D02*
X20267653Y-9544513D01*
X20267653Y-9544513D02*
X20277177Y-9554036D01*
X20277177Y-9554036D02*
X20286700Y-9573084D01*
X20286700Y-9573084D02*
X20296224Y-9611179D01*
X20296224Y-9611179D02*
X20296224Y-9658798D01*
X20296224Y-9658798D02*
X20286700Y-9696894D01*
X20286700Y-9696894D02*
X20277177Y-9715941D01*
X20277177Y-9715941D02*
X20267653Y-9725465D01*
X20267653Y-9725465D02*
X20248605Y-9734989D01*
X20248605Y-9734989D02*
X20229558Y-9734989D01*
X20229558Y-9734989D02*
X20210510Y-9725465D01*
X20210510Y-9725465D02*
X20200986Y-9715941D01*
X20200986Y-9715941D02*
X20191462Y-9696894D01*
X20191462Y-9696894D02*
X20181939Y-9658798D01*
X20181939Y-9658798D02*
X20181939Y-9611179D01*
X20181939Y-9611179D02*
X20191462Y-9573084D01*
X20191462Y-9573084D02*
X20200986Y-9554036D01*
X20200986Y-9554036D02*
X20210510Y-9544513D01*
X20210510Y-9544513D02*
X20229558Y-9534989D01*
X20420034Y-9534989D02*
X20439081Y-9534989D01*
X20439081Y-9534989D02*
X20458129Y-9544513D01*
X20458129Y-9544513D02*
X20467653Y-9554036D01*
X20467653Y-9554036D02*
X20477177Y-9573084D01*
X20477177Y-9573084D02*
X20486700Y-9611179D01*
X20486700Y-9611179D02*
X20486700Y-9658798D01*
X20486700Y-9658798D02*
X20477177Y-9696894D01*
X20477177Y-9696894D02*
X20467653Y-9715941D01*
X20467653Y-9715941D02*
X20458129Y-9725465D01*
X20458129Y-9725465D02*
X20439081Y-9734989D01*
X20439081Y-9734989D02*
X20420034Y-9734989D01*
X20420034Y-9734989D02*
X20400986Y-9725465D01*
X20400986Y-9725465D02*
X20391462Y-9715941D01*
X20391462Y-9715941D02*
X20381939Y-9696894D01*
X20381939Y-9696894D02*
X20372415Y-9658798D01*
X20372415Y-9658798D02*
X20372415Y-9611179D01*
X20372415Y-9611179D02*
X20381939Y-9573084D01*
X20381939Y-9573084D02*
X20391462Y-9554036D01*
X20391462Y-9554036D02*
X20400986Y-9544513D01*
X20400986Y-9544513D02*
X20420034Y-9534989D01*
X20572415Y-9734989D02*
X20572415Y-9601655D01*
X20572415Y-9620703D02*
X20581939Y-9611179D01*
X20581939Y-9611179D02*
X20600986Y-9601655D01*
X20600986Y-9601655D02*
X20629558Y-9601655D01*
X20629558Y-9601655D02*
X20648605Y-9611179D01*
X20648605Y-9611179D02*
X20658129Y-9630227D01*
X20658129Y-9630227D02*
X20658129Y-9734989D01*
X20658129Y-9630227D02*
X20667653Y-9611179D01*
X20667653Y-9611179D02*
X20686700Y-9601655D01*
X20686700Y-9601655D02*
X20715272Y-9601655D01*
X20715272Y-9601655D02*
X20734320Y-9611179D01*
X20734320Y-9611179D02*
X20743843Y-9630227D01*
X20743843Y-9630227D02*
X20743843Y-9734989D01*
X20839081Y-9734989D02*
X20839081Y-9601655D01*
X20839081Y-9620703D02*
X20848605Y-9611179D01*
X20848605Y-9611179D02*
X20867653Y-9601655D01*
X20867653Y-9601655D02*
X20896224Y-9601655D01*
X20896224Y-9601655D02*
X20915272Y-9611179D01*
X20915272Y-9611179D02*
X20924796Y-9630227D01*
X20924796Y-9630227D02*
X20924796Y-9734989D01*
X20924796Y-9630227D02*
X20934320Y-9611179D01*
X20934320Y-9611179D02*
X20953367Y-9601655D01*
X20953367Y-9601655D02*
X20981939Y-9601655D01*
X20981939Y-9601655D02*
X21000986Y-9611179D01*
X21000986Y-9611179D02*
X21010510Y-9630227D01*
X21010510Y-9630227D02*
X21010510Y-9734989D01*
X21400986Y-9525465D02*
X21229558Y-9782608D01*
X21658129Y-9534989D02*
X21677177Y-9534989D01*
X21677177Y-9534989D02*
X21696224Y-9544513D01*
X21696224Y-9544513D02*
X21705748Y-9554036D01*
X21705748Y-9554036D02*
X21715272Y-9573084D01*
X21715272Y-9573084D02*
X21724796Y-9611179D01*
X21724796Y-9611179D02*
X21724796Y-9658798D01*
X21724796Y-9658798D02*
X21715272Y-9696894D01*
X21715272Y-9696894D02*
X21705748Y-9715941D01*
X21705748Y-9715941D02*
X21696224Y-9725465D01*
X21696224Y-9725465D02*
X21677177Y-9734989D01*
X21677177Y-9734989D02*
X21658129Y-9734989D01*
X21658129Y-9734989D02*
X21639082Y-9725465D01*
X21639082Y-9725465D02*
X21629558Y-9715941D01*
X21629558Y-9715941D02*
X21620034Y-9696894D01*
X21620034Y-9696894D02*
X21610510Y-9658798D01*
X21610510Y-9658798D02*
X21610510Y-9611179D01*
X21610510Y-9611179D02*
X21620034Y-9573084D01*
X21620034Y-9573084D02*
X21629558Y-9554036D01*
X21629558Y-9554036D02*
X21639082Y-9544513D01*
X21639082Y-9544513D02*
X21658129Y-9534989D01*
X21810510Y-9715941D02*
X21820034Y-9725465D01*
X21820034Y-9725465D02*
X21810510Y-9734989D01*
X21810510Y-9734989D02*
X21800986Y-9725465D01*
X21800986Y-9725465D02*
X21810510Y-9715941D01*
X21810510Y-9715941D02*
X21810510Y-9734989D01*
X21943843Y-9534989D02*
X21962891Y-9534989D01*
X21962891Y-9534989D02*
X21981939Y-9544513D01*
X21981939Y-9544513D02*
X21991463Y-9554036D01*
X21991463Y-9554036D02*
X22000986Y-9573084D01*
X22000986Y-9573084D02*
X22010510Y-9611179D01*
X22010510Y-9611179D02*
X22010510Y-9658798D01*
X22010510Y-9658798D02*
X22000986Y-9696894D01*
X22000986Y-9696894D02*
X21991463Y-9715941D01*
X21991463Y-9715941D02*
X21981939Y-9725465D01*
X21981939Y-9725465D02*
X21962891Y-9734989D01*
X21962891Y-9734989D02*
X21943843Y-9734989D01*
X21943843Y-9734989D02*
X21924796Y-9725465D01*
X21924796Y-9725465D02*
X21915272Y-9715941D01*
X21915272Y-9715941D02*
X21905748Y-9696894D01*
X21905748Y-9696894D02*
X21896224Y-9658798D01*
X21896224Y-9658798D02*
X21896224Y-9611179D01*
X21896224Y-9611179D02*
X21905748Y-9573084D01*
X21905748Y-9573084D02*
X21915272Y-9554036D01*
X21915272Y-9554036D02*
X21924796Y-9544513D01*
X21924796Y-9544513D02*
X21943843Y-9534989D01*
X22077177Y-9534989D02*
X22200986Y-9534989D01*
X22200986Y-9534989D02*
X22134320Y-9611179D01*
X22134320Y-9611179D02*
X22162891Y-9611179D01*
X22162891Y-9611179D02*
X22181939Y-9620703D01*
X22181939Y-9620703D02*
X22191463Y-9630227D01*
X22191463Y-9630227D02*
X22200986Y-9649275D01*
X22200986Y-9649275D02*
X22200986Y-9696894D01*
X22200986Y-9696894D02*
X22191463Y-9715941D01*
X22191463Y-9715941D02*
X22181939Y-9725465D01*
X22181939Y-9725465D02*
X22162891Y-9734989D01*
X22162891Y-9734989D02*
X22105748Y-9734989D01*
X22105748Y-9734989D02*
X22086701Y-9725465D01*
X22086701Y-9725465D02*
X22077177Y-9715941D01*
X22381939Y-9534989D02*
X22286701Y-9534989D01*
X22286701Y-9534989D02*
X22277177Y-9630227D01*
X22277177Y-9630227D02*
X22286701Y-9620703D01*
X22286701Y-9620703D02*
X22305748Y-9611179D01*
X22305748Y-9611179D02*
X22353367Y-9611179D01*
X22353367Y-9611179D02*
X22372415Y-9620703D01*
X22372415Y-9620703D02*
X22381939Y-9630227D01*
X22381939Y-9630227D02*
X22391462Y-9649275D01*
X22391462Y-9649275D02*
X22391462Y-9696894D01*
X22391462Y-9696894D02*
X22381939Y-9715941D01*
X22381939Y-9715941D02*
X22372415Y-9725465D01*
X22372415Y-9725465D02*
X22353367Y-9734989D01*
X22353367Y-9734989D02*
X22305748Y-9734989D01*
X22305748Y-9734989D02*
X22286701Y-9725465D01*
X22286701Y-9725465D02*
X22277177Y-9715941D01*
X22562891Y-9601655D02*
X22562891Y-9734989D01*
X22515272Y-9525465D02*
X22467653Y-9668322D01*
X22467653Y-9668322D02*
X22591462Y-9668322D01*
X22658129Y-9534989D02*
X22658129Y-9573084D01*
X22734320Y-9534989D02*
X22734320Y-9573084D01*
X23029558Y-9811179D02*
X23020034Y-9801655D01*
X23020034Y-9801655D02*
X23000986Y-9773084D01*
X23000986Y-9773084D02*
X22991463Y-9754036D01*
X22991463Y-9754036D02*
X22981939Y-9725465D01*
X22981939Y-9725465D02*
X22972415Y-9677846D01*
X22972415Y-9677846D02*
X22972415Y-9639751D01*
X22972415Y-9639751D02*
X22981939Y-9592132D01*
X22981939Y-9592132D02*
X22991463Y-9563560D01*
X22991463Y-9563560D02*
X23000986Y-9544513D01*
X23000986Y-9544513D02*
X23020034Y-9515941D01*
X23020034Y-9515941D02*
X23029558Y-9506417D01*
X23191463Y-9601655D02*
X23191463Y-9734989D01*
X23143843Y-9525465D02*
X23096224Y-9668322D01*
X23096224Y-9668322D02*
X23220034Y-9668322D01*
X23448605Y-9734989D02*
X23448605Y-9534989D01*
X23534320Y-9734989D02*
X23534320Y-9630227D01*
X23534320Y-9630227D02*
X23524796Y-9611179D01*
X23524796Y-9611179D02*
X23505748Y-9601655D01*
X23505748Y-9601655D02*
X23477177Y-9601655D01*
X23477177Y-9601655D02*
X23458129Y-9611179D01*
X23458129Y-9611179D02*
X23448605Y-9620703D01*
X23658129Y-9734989D02*
X23639082Y-9725465D01*
X23639082Y-9725465D02*
X23629558Y-9715941D01*
X23629558Y-9715941D02*
X23620034Y-9696894D01*
X23620034Y-9696894D02*
X23620034Y-9639751D01*
X23620034Y-9639751D02*
X23629558Y-9620703D01*
X23629558Y-9620703D02*
X23639082Y-9611179D01*
X23639082Y-9611179D02*
X23658129Y-9601655D01*
X23658129Y-9601655D02*
X23686701Y-9601655D01*
X23686701Y-9601655D02*
X23705748Y-9611179D01*
X23705748Y-9611179D02*
X23715272Y-9620703D01*
X23715272Y-9620703D02*
X23724796Y-9639751D01*
X23724796Y-9639751D02*
X23724796Y-9696894D01*
X23724796Y-9696894D02*
X23715272Y-9715941D01*
X23715272Y-9715941D02*
X23705748Y-9725465D01*
X23705748Y-9725465D02*
X23686701Y-9734989D01*
X23686701Y-9734989D02*
X23658129Y-9734989D01*
X23839082Y-9734989D02*
X23820034Y-9725465D01*
X23820034Y-9725465D02*
X23810510Y-9706417D01*
X23810510Y-9706417D02*
X23810510Y-9534989D01*
X23991463Y-9725465D02*
X23972415Y-9734989D01*
X23972415Y-9734989D02*
X23934320Y-9734989D01*
X23934320Y-9734989D02*
X23915272Y-9725465D01*
X23915272Y-9725465D02*
X23905748Y-9706417D01*
X23905748Y-9706417D02*
X23905748Y-9630227D01*
X23905748Y-9630227D02*
X23915272Y-9611179D01*
X23915272Y-9611179D02*
X23934320Y-9601655D01*
X23934320Y-9601655D02*
X23972415Y-9601655D01*
X23972415Y-9601655D02*
X23991463Y-9611179D01*
X23991463Y-9611179D02*
X24000986Y-9630227D01*
X24000986Y-9630227D02*
X24000986Y-9649275D01*
X24000986Y-9649275D02*
X23905748Y-9668322D01*
X24077177Y-9725465D02*
X24096225Y-9734989D01*
X24096225Y-9734989D02*
X24134320Y-9734989D01*
X24134320Y-9734989D02*
X24153367Y-9725465D01*
X24153367Y-9725465D02*
X24162891Y-9706417D01*
X24162891Y-9706417D02*
X24162891Y-9696894D01*
X24162891Y-9696894D02*
X24153367Y-9677846D01*
X24153367Y-9677846D02*
X24134320Y-9668322D01*
X24134320Y-9668322D02*
X24105748Y-9668322D01*
X24105748Y-9668322D02*
X24086701Y-9658798D01*
X24086701Y-9658798D02*
X24077177Y-9639751D01*
X24077177Y-9639751D02*
X24077177Y-9630227D01*
X24077177Y-9630227D02*
X24086701Y-9611179D01*
X24086701Y-9611179D02*
X24105748Y-9601655D01*
X24105748Y-9601655D02*
X24134320Y-9601655D01*
X24134320Y-9601655D02*
X24153367Y-9611179D01*
X24229558Y-9811179D02*
X24239082Y-9801655D01*
X24239082Y-9801655D02*
X24258129Y-9773084D01*
X24258129Y-9773084D02*
X24267653Y-9754036D01*
X24267653Y-9754036D02*
X24277177Y-9725465D01*
X24277177Y-9725465D02*
X24286701Y-9677846D01*
X24286701Y-9677846D02*
X24286701Y-9639751D01*
X24286701Y-9639751D02*
X24277177Y-9592132D01*
X24277177Y-9592132D02*
X24267653Y-9563560D01*
X24267653Y-9563560D02*
X24258129Y-9544513D01*
X24258129Y-9544513D02*
X24239082Y-9515941D01*
X24239082Y-9515941D02*
X24229558Y-9506417D01*
D12*
X19404495Y-9857505D02*
X19404495Y-9957505D01*
X19354495Y-9907505D02*
X19454495Y-9907505D01*
D11*
X19820034Y-9998989D02*
X19705748Y-9998989D01*
X19762891Y-9998989D02*
X19762891Y-9798989D01*
X19762891Y-9798989D02*
X19743843Y-9827560D01*
X19743843Y-9827560D02*
X19724796Y-9846608D01*
X19724796Y-9846608D02*
X19705748Y-9856132D01*
X19905748Y-9979941D02*
X19915272Y-9989465D01*
X19915272Y-9989465D02*
X19905748Y-9998989D01*
X19905748Y-9998989D02*
X19896224Y-9989465D01*
X19896224Y-9989465D02*
X19905748Y-9979941D01*
X19905748Y-9979941D02*
X19905748Y-9998989D01*
X20039081Y-9798989D02*
X20058129Y-9798989D01*
X20058129Y-9798989D02*
X20077177Y-9808513D01*
X20077177Y-9808513D02*
X20086700Y-9818036D01*
X20086700Y-9818036D02*
X20096224Y-9837084D01*
X20096224Y-9837084D02*
X20105748Y-9875179D01*
X20105748Y-9875179D02*
X20105748Y-9922798D01*
X20105748Y-9922798D02*
X20096224Y-9960894D01*
X20096224Y-9960894D02*
X20086700Y-9979941D01*
X20086700Y-9979941D02*
X20077177Y-9989465D01*
X20077177Y-9989465D02*
X20058129Y-9998989D01*
X20058129Y-9998989D02*
X20039081Y-9998989D01*
X20039081Y-9998989D02*
X20020034Y-9989465D01*
X20020034Y-9989465D02*
X20010510Y-9979941D01*
X20010510Y-9979941D02*
X20000986Y-9960894D01*
X20000986Y-9960894D02*
X19991462Y-9922798D01*
X19991462Y-9922798D02*
X19991462Y-9875179D01*
X19991462Y-9875179D02*
X20000986Y-9837084D01*
X20000986Y-9837084D02*
X20010510Y-9818036D01*
X20010510Y-9818036D02*
X20020034Y-9808513D01*
X20020034Y-9808513D02*
X20039081Y-9798989D01*
X20229558Y-9798989D02*
X20248605Y-9798989D01*
X20248605Y-9798989D02*
X20267653Y-9808513D01*
X20267653Y-9808513D02*
X20277177Y-9818036D01*
X20277177Y-9818036D02*
X20286700Y-9837084D01*
X20286700Y-9837084D02*
X20296224Y-9875179D01*
X20296224Y-9875179D02*
X20296224Y-9922798D01*
X20296224Y-9922798D02*
X20286700Y-9960894D01*
X20286700Y-9960894D02*
X20277177Y-9979941D01*
X20277177Y-9979941D02*
X20267653Y-9989465D01*
X20267653Y-9989465D02*
X20248605Y-9998989D01*
X20248605Y-9998989D02*
X20229558Y-9998989D01*
X20229558Y-9998989D02*
X20210510Y-9989465D01*
X20210510Y-9989465D02*
X20200986Y-9979941D01*
X20200986Y-9979941D02*
X20191462Y-9960894D01*
X20191462Y-9960894D02*
X20181939Y-9922798D01*
X20181939Y-9922798D02*
X20181939Y-9875179D01*
X20181939Y-9875179D02*
X20191462Y-9837084D01*
X20191462Y-9837084D02*
X20200986Y-9818036D01*
X20200986Y-9818036D02*
X20210510Y-9808513D01*
X20210510Y-9808513D02*
X20229558Y-9798989D01*
X20420034Y-9798989D02*
X20439081Y-9798989D01*
X20439081Y-9798989D02*
X20458129Y-9808513D01*
X20458129Y-9808513D02*
X20467653Y-9818036D01*
X20467653Y-9818036D02*
X20477177Y-9837084D01*
X20477177Y-9837084D02*
X20486700Y-9875179D01*
X20486700Y-9875179D02*
X20486700Y-9922798D01*
X20486700Y-9922798D02*
X20477177Y-9960894D01*
X20477177Y-9960894D02*
X20467653Y-9979941D01*
X20467653Y-9979941D02*
X20458129Y-9989465D01*
X20458129Y-9989465D02*
X20439081Y-9998989D01*
X20439081Y-9998989D02*
X20420034Y-9998989D01*
X20420034Y-9998989D02*
X20400986Y-9989465D01*
X20400986Y-9989465D02*
X20391462Y-9979941D01*
X20391462Y-9979941D02*
X20381939Y-9960894D01*
X20381939Y-9960894D02*
X20372415Y-9922798D01*
X20372415Y-9922798D02*
X20372415Y-9875179D01*
X20372415Y-9875179D02*
X20381939Y-9837084D01*
X20381939Y-9837084D02*
X20391462Y-9818036D01*
X20391462Y-9818036D02*
X20400986Y-9808513D01*
X20400986Y-9808513D02*
X20420034Y-9798989D01*
X20572415Y-9998989D02*
X20572415Y-9865655D01*
X20572415Y-9884703D02*
X20581939Y-9875179D01*
X20581939Y-9875179D02*
X20600986Y-9865655D01*
X20600986Y-9865655D02*
X20629558Y-9865655D01*
X20629558Y-9865655D02*
X20648605Y-9875179D01*
X20648605Y-9875179D02*
X20658129Y-9894227D01*
X20658129Y-9894227D02*
X20658129Y-9998989D01*
X20658129Y-9894227D02*
X20667653Y-9875179D01*
X20667653Y-9875179D02*
X20686700Y-9865655D01*
X20686700Y-9865655D02*
X20715272Y-9865655D01*
X20715272Y-9865655D02*
X20734320Y-9875179D01*
X20734320Y-9875179D02*
X20743843Y-9894227D01*
X20743843Y-9894227D02*
X20743843Y-9998989D01*
X20839081Y-9998989D02*
X20839081Y-9865655D01*
X20839081Y-9884703D02*
X20848605Y-9875179D01*
X20848605Y-9875179D02*
X20867653Y-9865655D01*
X20867653Y-9865655D02*
X20896224Y-9865655D01*
X20896224Y-9865655D02*
X20915272Y-9875179D01*
X20915272Y-9875179D02*
X20924796Y-9894227D01*
X20924796Y-9894227D02*
X20924796Y-9998989D01*
X20924796Y-9894227D02*
X20934320Y-9875179D01*
X20934320Y-9875179D02*
X20953367Y-9865655D01*
X20953367Y-9865655D02*
X20981939Y-9865655D01*
X20981939Y-9865655D02*
X21000986Y-9875179D01*
X21000986Y-9875179D02*
X21010510Y-9894227D01*
X21010510Y-9894227D02*
X21010510Y-9998989D01*
X21400986Y-9789465D02*
X21229558Y-10046608D01*
X21658129Y-9798989D02*
X21677177Y-9798989D01*
X21677177Y-9798989D02*
X21696224Y-9808513D01*
X21696224Y-9808513D02*
X21705748Y-9818036D01*
X21705748Y-9818036D02*
X21715272Y-9837084D01*
X21715272Y-9837084D02*
X21724796Y-9875179D01*
X21724796Y-9875179D02*
X21724796Y-9922798D01*
X21724796Y-9922798D02*
X21715272Y-9960894D01*
X21715272Y-9960894D02*
X21705748Y-9979941D01*
X21705748Y-9979941D02*
X21696224Y-9989465D01*
X21696224Y-9989465D02*
X21677177Y-9998989D01*
X21677177Y-9998989D02*
X21658129Y-9998989D01*
X21658129Y-9998989D02*
X21639082Y-9989465D01*
X21639082Y-9989465D02*
X21629558Y-9979941D01*
X21629558Y-9979941D02*
X21620034Y-9960894D01*
X21620034Y-9960894D02*
X21610510Y-9922798D01*
X21610510Y-9922798D02*
X21610510Y-9875179D01*
X21610510Y-9875179D02*
X21620034Y-9837084D01*
X21620034Y-9837084D02*
X21629558Y-9818036D01*
X21629558Y-9818036D02*
X21639082Y-9808513D01*
X21639082Y-9808513D02*
X21658129Y-9798989D01*
X21810510Y-9979941D02*
X21820034Y-9989465D01*
X21820034Y-9989465D02*
X21810510Y-9998989D01*
X21810510Y-9998989D02*
X21800986Y-9989465D01*
X21800986Y-9989465D02*
X21810510Y-9979941D01*
X21810510Y-9979941D02*
X21810510Y-9998989D01*
X21943843Y-9798989D02*
X21962891Y-9798989D01*
X21962891Y-9798989D02*
X21981939Y-9808513D01*
X21981939Y-9808513D02*
X21991463Y-9818036D01*
X21991463Y-9818036D02*
X22000986Y-9837084D01*
X22000986Y-9837084D02*
X22010510Y-9875179D01*
X22010510Y-9875179D02*
X22010510Y-9922798D01*
X22010510Y-9922798D02*
X22000986Y-9960894D01*
X22000986Y-9960894D02*
X21991463Y-9979941D01*
X21991463Y-9979941D02*
X21981939Y-9989465D01*
X21981939Y-9989465D02*
X21962891Y-9998989D01*
X21962891Y-9998989D02*
X21943843Y-9998989D01*
X21943843Y-9998989D02*
X21924796Y-9989465D01*
X21924796Y-9989465D02*
X21915272Y-9979941D01*
X21915272Y-9979941D02*
X21905748Y-9960894D01*
X21905748Y-9960894D02*
X21896224Y-9922798D01*
X21896224Y-9922798D02*
X21896224Y-9875179D01*
X21896224Y-9875179D02*
X21905748Y-9837084D01*
X21905748Y-9837084D02*
X21915272Y-9818036D01*
X21915272Y-9818036D02*
X21924796Y-9808513D01*
X21924796Y-9808513D02*
X21943843Y-9798989D01*
X22077177Y-9798989D02*
X22200986Y-9798989D01*
X22200986Y-9798989D02*
X22134320Y-9875179D01*
X22134320Y-9875179D02*
X22162891Y-9875179D01*
X22162891Y-9875179D02*
X22181939Y-9884703D01*
X22181939Y-9884703D02*
X22191463Y-9894227D01*
X22191463Y-9894227D02*
X22200986Y-9913275D01*
X22200986Y-9913275D02*
X22200986Y-9960894D01*
X22200986Y-9960894D02*
X22191463Y-9979941D01*
X22191463Y-9979941D02*
X22181939Y-9989465D01*
X22181939Y-9989465D02*
X22162891Y-9998989D01*
X22162891Y-9998989D02*
X22105748Y-9998989D01*
X22105748Y-9998989D02*
X22086701Y-9989465D01*
X22086701Y-9989465D02*
X22077177Y-9979941D01*
X22296224Y-9998989D02*
X22334320Y-9998989D01*
X22334320Y-9998989D02*
X22353367Y-9989465D01*
X22353367Y-9989465D02*
X22362891Y-9979941D01*
X22362891Y-9979941D02*
X22381939Y-9951370D01*
X22381939Y-9951370D02*
X22391462Y-9913275D01*
X22391462Y-9913275D02*
X22391462Y-9837084D01*
X22391462Y-9837084D02*
X22381939Y-9818036D01*
X22381939Y-9818036D02*
X22372415Y-9808513D01*
X22372415Y-9808513D02*
X22353367Y-9798989D01*
X22353367Y-9798989D02*
X22315272Y-9798989D01*
X22315272Y-9798989D02*
X22296224Y-9808513D01*
X22296224Y-9808513D02*
X22286701Y-9818036D01*
X22286701Y-9818036D02*
X22277177Y-9837084D01*
X22277177Y-9837084D02*
X22277177Y-9884703D01*
X22277177Y-9884703D02*
X22286701Y-9903751D01*
X22286701Y-9903751D02*
X22296224Y-9913275D01*
X22296224Y-9913275D02*
X22315272Y-9922798D01*
X22315272Y-9922798D02*
X22353367Y-9922798D01*
X22353367Y-9922798D02*
X22372415Y-9913275D01*
X22372415Y-9913275D02*
X22381939Y-9903751D01*
X22381939Y-9903751D02*
X22391462Y-9884703D01*
X22562891Y-9865655D02*
X22562891Y-9998989D01*
X22515272Y-9789465D02*
X22467653Y-9932322D01*
X22467653Y-9932322D02*
X22591462Y-9932322D01*
X22658129Y-9798989D02*
X22658129Y-9837084D01*
X22734320Y-9798989D02*
X22734320Y-9837084D01*
X23029558Y-10075179D02*
X23020034Y-10065655D01*
X23020034Y-10065655D02*
X23000986Y-10037084D01*
X23000986Y-10037084D02*
X22991463Y-10018036D01*
X22991463Y-10018036D02*
X22981939Y-9989465D01*
X22981939Y-9989465D02*
X22972415Y-9941846D01*
X22972415Y-9941846D02*
X22972415Y-9903751D01*
X22972415Y-9903751D02*
X22981939Y-9856132D01*
X22981939Y-9856132D02*
X22991463Y-9827560D01*
X22991463Y-9827560D02*
X23000986Y-9808513D01*
X23000986Y-9808513D02*
X23020034Y-9779941D01*
X23020034Y-9779941D02*
X23029558Y-9770417D01*
X23191463Y-9798989D02*
X23153367Y-9798989D01*
X23153367Y-9798989D02*
X23134320Y-9808513D01*
X23134320Y-9808513D02*
X23124796Y-9818036D01*
X23124796Y-9818036D02*
X23105748Y-9846608D01*
X23105748Y-9846608D02*
X23096224Y-9884703D01*
X23096224Y-9884703D02*
X23096224Y-9960894D01*
X23096224Y-9960894D02*
X23105748Y-9979941D01*
X23105748Y-9979941D02*
X23115272Y-9989465D01*
X23115272Y-9989465D02*
X23134320Y-9998989D01*
X23134320Y-9998989D02*
X23172415Y-9998989D01*
X23172415Y-9998989D02*
X23191463Y-9989465D01*
X23191463Y-9989465D02*
X23200986Y-9979941D01*
X23200986Y-9979941D02*
X23210510Y-9960894D01*
X23210510Y-9960894D02*
X23210510Y-9913275D01*
X23210510Y-9913275D02*
X23200986Y-9894227D01*
X23200986Y-9894227D02*
X23191463Y-9884703D01*
X23191463Y-9884703D02*
X23172415Y-9875179D01*
X23172415Y-9875179D02*
X23134320Y-9875179D01*
X23134320Y-9875179D02*
X23115272Y-9884703D01*
X23115272Y-9884703D02*
X23105748Y-9894227D01*
X23105748Y-9894227D02*
X23096224Y-9913275D01*
X23286701Y-9818036D02*
X23296224Y-9808513D01*
X23296224Y-9808513D02*
X23315272Y-9798989D01*
X23315272Y-9798989D02*
X23362891Y-9798989D01*
X23362891Y-9798989D02*
X23381939Y-9808513D01*
X23381939Y-9808513D02*
X23391463Y-9818036D01*
X23391463Y-9818036D02*
X23400986Y-9837084D01*
X23400986Y-9837084D02*
X23400986Y-9856132D01*
X23400986Y-9856132D02*
X23391463Y-9884703D01*
X23391463Y-9884703D02*
X23277177Y-9998989D01*
X23277177Y-9998989D02*
X23400986Y-9998989D01*
X23639082Y-9998989D02*
X23639082Y-9798989D01*
X23724796Y-9998989D02*
X23724796Y-9894227D01*
X23724796Y-9894227D02*
X23715272Y-9875179D01*
X23715272Y-9875179D02*
X23696225Y-9865655D01*
X23696225Y-9865655D02*
X23667653Y-9865655D01*
X23667653Y-9865655D02*
X23648605Y-9875179D01*
X23648605Y-9875179D02*
X23639082Y-9884703D01*
X23848605Y-9998989D02*
X23829558Y-9989465D01*
X23829558Y-9989465D02*
X23820034Y-9979941D01*
X23820034Y-9979941D02*
X23810510Y-9960894D01*
X23810510Y-9960894D02*
X23810510Y-9903751D01*
X23810510Y-9903751D02*
X23820034Y-9884703D01*
X23820034Y-9884703D02*
X23829558Y-9875179D01*
X23829558Y-9875179D02*
X23848605Y-9865655D01*
X23848605Y-9865655D02*
X23877177Y-9865655D01*
X23877177Y-9865655D02*
X23896225Y-9875179D01*
X23896225Y-9875179D02*
X23905748Y-9884703D01*
X23905748Y-9884703D02*
X23915272Y-9903751D01*
X23915272Y-9903751D02*
X23915272Y-9960894D01*
X23915272Y-9960894D02*
X23905748Y-9979941D01*
X23905748Y-9979941D02*
X23896225Y-9989465D01*
X23896225Y-9989465D02*
X23877177Y-9998989D01*
X23877177Y-9998989D02*
X23848605Y-9998989D01*
X24029558Y-9998989D02*
X24010510Y-9989465D01*
X24010510Y-9989465D02*
X24000986Y-9970417D01*
X24000986Y-9970417D02*
X24000986Y-9798989D01*
X24181939Y-9989465D02*
X24162891Y-9998989D01*
X24162891Y-9998989D02*
X24124796Y-9998989D01*
X24124796Y-9998989D02*
X24105748Y-9989465D01*
X24105748Y-9989465D02*
X24096225Y-9970417D01*
X24096225Y-9970417D02*
X24096225Y-9894227D01*
X24096225Y-9894227D02*
X24105748Y-9875179D01*
X24105748Y-9875179D02*
X24124796Y-9865655D01*
X24124796Y-9865655D02*
X24162891Y-9865655D01*
X24162891Y-9865655D02*
X24181939Y-9875179D01*
X24181939Y-9875179D02*
X24191463Y-9894227D01*
X24191463Y-9894227D02*
X24191463Y-9913275D01*
X24191463Y-9913275D02*
X24096225Y-9932322D01*
X24267653Y-9989465D02*
X24286701Y-9998989D01*
X24286701Y-9998989D02*
X24324796Y-9998989D01*
X24324796Y-9998989D02*
X24343844Y-9989465D01*
X24343844Y-9989465D02*
X24353367Y-9970417D01*
X24353367Y-9970417D02*
X24353367Y-9960894D01*
X24353367Y-9960894D02*
X24343844Y-9941846D01*
X24343844Y-9941846D02*
X24324796Y-9932322D01*
X24324796Y-9932322D02*
X24296225Y-9932322D01*
X24296225Y-9932322D02*
X24277177Y-9922798D01*
X24277177Y-9922798D02*
X24267653Y-9903751D01*
X24267653Y-9903751D02*
X24267653Y-9894227D01*
X24267653Y-9894227D02*
X24277177Y-9875179D01*
X24277177Y-9875179D02*
X24296225Y-9865655D01*
X24296225Y-9865655D02*
X24324796Y-9865655D01*
X24324796Y-9865655D02*
X24343844Y-9875179D01*
X24420034Y-10075179D02*
X24429558Y-10065655D01*
X24429558Y-10065655D02*
X24448606Y-10037084D01*
X24448606Y-10037084D02*
X24458129Y-10018036D01*
X24458129Y-10018036D02*
X24467653Y-9989465D01*
X24467653Y-9989465D02*
X24477177Y-9941846D01*
X24477177Y-9941846D02*
X24477177Y-9903751D01*
X24477177Y-9903751D02*
X24467653Y-9856132D01*
X24467653Y-9856132D02*
X24458129Y-9827560D01*
X24458129Y-9827560D02*
X24448606Y-9808513D01*
X24448606Y-9808513D02*
X24429558Y-9779941D01*
X24429558Y-9779941D02*
X24420034Y-9770417D01*
D13*
X19437068Y-10213578D02*
X19437068Y-10129432D01*
X19352922Y-10129432D01*
X19352922Y-10213578D01*
X19437068Y-10213578D01*
D11*
X19820034Y-10262989D02*
X19705748Y-10262989D01*
X19762891Y-10262989D02*
X19762891Y-10062989D01*
X19762891Y-10062989D02*
X19743843Y-10091560D01*
X19743843Y-10091560D02*
X19724796Y-10110608D01*
X19724796Y-10110608D02*
X19705748Y-10120132D01*
X19905748Y-10243941D02*
X19915272Y-10253465D01*
X19915272Y-10253465D02*
X19905748Y-10262989D01*
X19905748Y-10262989D02*
X19896224Y-10253465D01*
X19896224Y-10253465D02*
X19905748Y-10243941D01*
X19905748Y-10243941D02*
X19905748Y-10262989D01*
X20105748Y-10262989D02*
X19991462Y-10262989D01*
X20048605Y-10262989D02*
X20048605Y-10062989D01*
X20048605Y-10062989D02*
X20029558Y-10091560D01*
X20029558Y-10091560D02*
X20010510Y-10110608D01*
X20010510Y-10110608D02*
X19991462Y-10120132D01*
X20200986Y-10262989D02*
X20239081Y-10262989D01*
X20239081Y-10262989D02*
X20258129Y-10253465D01*
X20258129Y-10253465D02*
X20267653Y-10243941D01*
X20267653Y-10243941D02*
X20286700Y-10215370D01*
X20286700Y-10215370D02*
X20296224Y-10177275D01*
X20296224Y-10177275D02*
X20296224Y-10101084D01*
X20296224Y-10101084D02*
X20286700Y-10082036D01*
X20286700Y-10082036D02*
X20277177Y-10072513D01*
X20277177Y-10072513D02*
X20258129Y-10062989D01*
X20258129Y-10062989D02*
X20220034Y-10062989D01*
X20220034Y-10062989D02*
X20200986Y-10072513D01*
X20200986Y-10072513D02*
X20191462Y-10082036D01*
X20191462Y-10082036D02*
X20181939Y-10101084D01*
X20181939Y-10101084D02*
X20181939Y-10148703D01*
X20181939Y-10148703D02*
X20191462Y-10167751D01*
X20191462Y-10167751D02*
X20200986Y-10177275D01*
X20200986Y-10177275D02*
X20220034Y-10186798D01*
X20220034Y-10186798D02*
X20258129Y-10186798D01*
X20258129Y-10186798D02*
X20277177Y-10177275D01*
X20277177Y-10177275D02*
X20286700Y-10167751D01*
X20286700Y-10167751D02*
X20296224Y-10148703D01*
X20420034Y-10062989D02*
X20439081Y-10062989D01*
X20439081Y-10062989D02*
X20458129Y-10072513D01*
X20458129Y-10072513D02*
X20467653Y-10082036D01*
X20467653Y-10082036D02*
X20477177Y-10101084D01*
X20477177Y-10101084D02*
X20486700Y-10139179D01*
X20486700Y-10139179D02*
X20486700Y-10186798D01*
X20486700Y-10186798D02*
X20477177Y-10224894D01*
X20477177Y-10224894D02*
X20467653Y-10243941D01*
X20467653Y-10243941D02*
X20458129Y-10253465D01*
X20458129Y-10253465D02*
X20439081Y-10262989D01*
X20439081Y-10262989D02*
X20420034Y-10262989D01*
X20420034Y-10262989D02*
X20400986Y-10253465D01*
X20400986Y-10253465D02*
X20391462Y-10243941D01*
X20391462Y-10243941D02*
X20381939Y-10224894D01*
X20381939Y-10224894D02*
X20372415Y-10186798D01*
X20372415Y-10186798D02*
X20372415Y-10139179D01*
X20372415Y-10139179D02*
X20381939Y-10101084D01*
X20381939Y-10101084D02*
X20391462Y-10082036D01*
X20391462Y-10082036D02*
X20400986Y-10072513D01*
X20400986Y-10072513D02*
X20420034Y-10062989D01*
X20572415Y-10262989D02*
X20572415Y-10129655D01*
X20572415Y-10148703D02*
X20581939Y-10139179D01*
X20581939Y-10139179D02*
X20600986Y-10129655D01*
X20600986Y-10129655D02*
X20629558Y-10129655D01*
X20629558Y-10129655D02*
X20648605Y-10139179D01*
X20648605Y-10139179D02*
X20658129Y-10158227D01*
X20658129Y-10158227D02*
X20658129Y-10262989D01*
X20658129Y-10158227D02*
X20667653Y-10139179D01*
X20667653Y-10139179D02*
X20686700Y-10129655D01*
X20686700Y-10129655D02*
X20715272Y-10129655D01*
X20715272Y-10129655D02*
X20734320Y-10139179D01*
X20734320Y-10139179D02*
X20743843Y-10158227D01*
X20743843Y-10158227D02*
X20743843Y-10262989D01*
X20839081Y-10262989D02*
X20839081Y-10129655D01*
X20839081Y-10148703D02*
X20848605Y-10139179D01*
X20848605Y-10139179D02*
X20867653Y-10129655D01*
X20867653Y-10129655D02*
X20896224Y-10129655D01*
X20896224Y-10129655D02*
X20915272Y-10139179D01*
X20915272Y-10139179D02*
X20924796Y-10158227D01*
X20924796Y-10158227D02*
X20924796Y-10262989D01*
X20924796Y-10158227D02*
X20934320Y-10139179D01*
X20934320Y-10139179D02*
X20953367Y-10129655D01*
X20953367Y-10129655D02*
X20981939Y-10129655D01*
X20981939Y-10129655D02*
X21000986Y-10139179D01*
X21000986Y-10139179D02*
X21010510Y-10158227D01*
X21010510Y-10158227D02*
X21010510Y-10262989D01*
X21400986Y-10053465D02*
X21229558Y-10310608D01*
X21658129Y-10062989D02*
X21677177Y-10062989D01*
X21677177Y-10062989D02*
X21696224Y-10072513D01*
X21696224Y-10072513D02*
X21705748Y-10082036D01*
X21705748Y-10082036D02*
X21715272Y-10101084D01*
X21715272Y-10101084D02*
X21724796Y-10139179D01*
X21724796Y-10139179D02*
X21724796Y-10186798D01*
X21724796Y-10186798D02*
X21715272Y-10224894D01*
X21715272Y-10224894D02*
X21705748Y-10243941D01*
X21705748Y-10243941D02*
X21696224Y-10253465D01*
X21696224Y-10253465D02*
X21677177Y-10262989D01*
X21677177Y-10262989D02*
X21658129Y-10262989D01*
X21658129Y-10262989D02*
X21639082Y-10253465D01*
X21639082Y-10253465D02*
X21629558Y-10243941D01*
X21629558Y-10243941D02*
X21620034Y-10224894D01*
X21620034Y-10224894D02*
X21610510Y-10186798D01*
X21610510Y-10186798D02*
X21610510Y-10139179D01*
X21610510Y-10139179D02*
X21620034Y-10101084D01*
X21620034Y-10101084D02*
X21629558Y-10082036D01*
X21629558Y-10082036D02*
X21639082Y-10072513D01*
X21639082Y-10072513D02*
X21658129Y-10062989D01*
X21810510Y-10243941D02*
X21820034Y-10253465D01*
X21820034Y-10253465D02*
X21810510Y-10262989D01*
X21810510Y-10262989D02*
X21800986Y-10253465D01*
X21800986Y-10253465D02*
X21810510Y-10243941D01*
X21810510Y-10243941D02*
X21810510Y-10262989D01*
X21943843Y-10062989D02*
X21962891Y-10062989D01*
X21962891Y-10062989D02*
X21981939Y-10072513D01*
X21981939Y-10072513D02*
X21991463Y-10082036D01*
X21991463Y-10082036D02*
X22000986Y-10101084D01*
X22000986Y-10101084D02*
X22010510Y-10139179D01*
X22010510Y-10139179D02*
X22010510Y-10186798D01*
X22010510Y-10186798D02*
X22000986Y-10224894D01*
X22000986Y-10224894D02*
X21991463Y-10243941D01*
X21991463Y-10243941D02*
X21981939Y-10253465D01*
X21981939Y-10253465D02*
X21962891Y-10262989D01*
X21962891Y-10262989D02*
X21943843Y-10262989D01*
X21943843Y-10262989D02*
X21924796Y-10253465D01*
X21924796Y-10253465D02*
X21915272Y-10243941D01*
X21915272Y-10243941D02*
X21905748Y-10224894D01*
X21905748Y-10224894D02*
X21896224Y-10186798D01*
X21896224Y-10186798D02*
X21896224Y-10139179D01*
X21896224Y-10139179D02*
X21905748Y-10101084D01*
X21905748Y-10101084D02*
X21915272Y-10082036D01*
X21915272Y-10082036D02*
X21924796Y-10072513D01*
X21924796Y-10072513D02*
X21943843Y-10062989D01*
X22181939Y-10129655D02*
X22181939Y-10262989D01*
X22134320Y-10053465D02*
X22086701Y-10196322D01*
X22086701Y-10196322D02*
X22210510Y-10196322D01*
X22372415Y-10062989D02*
X22334320Y-10062989D01*
X22334320Y-10062989D02*
X22315272Y-10072513D01*
X22315272Y-10072513D02*
X22305748Y-10082036D01*
X22305748Y-10082036D02*
X22286701Y-10110608D01*
X22286701Y-10110608D02*
X22277177Y-10148703D01*
X22277177Y-10148703D02*
X22277177Y-10224894D01*
X22277177Y-10224894D02*
X22286701Y-10243941D01*
X22286701Y-10243941D02*
X22296224Y-10253465D01*
X22296224Y-10253465D02*
X22315272Y-10262989D01*
X22315272Y-10262989D02*
X22353367Y-10262989D01*
X22353367Y-10262989D02*
X22372415Y-10253465D01*
X22372415Y-10253465D02*
X22381939Y-10243941D01*
X22381939Y-10243941D02*
X22391462Y-10224894D01*
X22391462Y-10224894D02*
X22391462Y-10177275D01*
X22391462Y-10177275D02*
X22381939Y-10158227D01*
X22381939Y-10158227D02*
X22372415Y-10148703D01*
X22372415Y-10148703D02*
X22353367Y-10139179D01*
X22353367Y-10139179D02*
X22315272Y-10139179D01*
X22315272Y-10139179D02*
X22296224Y-10148703D01*
X22296224Y-10148703D02*
X22286701Y-10158227D01*
X22286701Y-10158227D02*
X22277177Y-10177275D01*
X22486701Y-10262989D02*
X22524796Y-10262989D01*
X22524796Y-10262989D02*
X22543843Y-10253465D01*
X22543843Y-10253465D02*
X22553367Y-10243941D01*
X22553367Y-10243941D02*
X22572415Y-10215370D01*
X22572415Y-10215370D02*
X22581939Y-10177275D01*
X22581939Y-10177275D02*
X22581939Y-10101084D01*
X22581939Y-10101084D02*
X22572415Y-10082036D01*
X22572415Y-10082036D02*
X22562891Y-10072513D01*
X22562891Y-10072513D02*
X22543843Y-10062989D01*
X22543843Y-10062989D02*
X22505748Y-10062989D01*
X22505748Y-10062989D02*
X22486701Y-10072513D01*
X22486701Y-10072513D02*
X22477177Y-10082036D01*
X22477177Y-10082036D02*
X22467653Y-10101084D01*
X22467653Y-10101084D02*
X22467653Y-10148703D01*
X22467653Y-10148703D02*
X22477177Y-10167751D01*
X22477177Y-10167751D02*
X22486701Y-10177275D01*
X22486701Y-10177275D02*
X22505748Y-10186798D01*
X22505748Y-10186798D02*
X22543843Y-10186798D01*
X22543843Y-10186798D02*
X22562891Y-10177275D01*
X22562891Y-10177275D02*
X22572415Y-10167751D01*
X22572415Y-10167751D02*
X22581939Y-10148703D01*
X22658129Y-10062989D02*
X22658129Y-10101084D01*
X22734320Y-10062989D02*
X22734320Y-10101084D01*
X23029558Y-10339179D02*
X23020034Y-10329655D01*
X23020034Y-10329655D02*
X23000986Y-10301084D01*
X23000986Y-10301084D02*
X22991463Y-10282036D01*
X22991463Y-10282036D02*
X22981939Y-10253465D01*
X22981939Y-10253465D02*
X22972415Y-10205846D01*
X22972415Y-10205846D02*
X22972415Y-10167751D01*
X22972415Y-10167751D02*
X22981939Y-10120132D01*
X22981939Y-10120132D02*
X22991463Y-10091560D01*
X22991463Y-10091560D02*
X23000986Y-10072513D01*
X23000986Y-10072513D02*
X23020034Y-10043941D01*
X23020034Y-10043941D02*
X23029558Y-10034417D01*
X23086701Y-10062989D02*
X23210510Y-10062989D01*
X23210510Y-10062989D02*
X23143843Y-10139179D01*
X23143843Y-10139179D02*
X23172415Y-10139179D01*
X23172415Y-10139179D02*
X23191463Y-10148703D01*
X23191463Y-10148703D02*
X23200986Y-10158227D01*
X23200986Y-10158227D02*
X23210510Y-10177275D01*
X23210510Y-10177275D02*
X23210510Y-10224894D01*
X23210510Y-10224894D02*
X23200986Y-10243941D01*
X23200986Y-10243941D02*
X23191463Y-10253465D01*
X23191463Y-10253465D02*
X23172415Y-10262989D01*
X23172415Y-10262989D02*
X23115272Y-10262989D01*
X23115272Y-10262989D02*
X23096224Y-10253465D01*
X23096224Y-10253465D02*
X23086701Y-10243941D01*
X23334320Y-10062989D02*
X23353367Y-10062989D01*
X23353367Y-10062989D02*
X23372415Y-10072513D01*
X23372415Y-10072513D02*
X23381939Y-10082036D01*
X23381939Y-10082036D02*
X23391463Y-10101084D01*
X23391463Y-10101084D02*
X23400986Y-10139179D01*
X23400986Y-10139179D02*
X23400986Y-10186798D01*
X23400986Y-10186798D02*
X23391463Y-10224894D01*
X23391463Y-10224894D02*
X23381939Y-10243941D01*
X23381939Y-10243941D02*
X23372415Y-10253465D01*
X23372415Y-10253465D02*
X23353367Y-10262989D01*
X23353367Y-10262989D02*
X23334320Y-10262989D01*
X23334320Y-10262989D02*
X23315272Y-10253465D01*
X23315272Y-10253465D02*
X23305748Y-10243941D01*
X23305748Y-10243941D02*
X23296224Y-10224894D01*
X23296224Y-10224894D02*
X23286701Y-10186798D01*
X23286701Y-10186798D02*
X23286701Y-10139179D01*
X23286701Y-10139179D02*
X23296224Y-10101084D01*
X23296224Y-10101084D02*
X23305748Y-10082036D01*
X23305748Y-10082036D02*
X23315272Y-10072513D01*
X23315272Y-10072513D02*
X23334320Y-10062989D01*
X23639082Y-10262989D02*
X23639082Y-10062989D01*
X23724796Y-10262989D02*
X23724796Y-10158227D01*
X23724796Y-10158227D02*
X23715272Y-10139179D01*
X23715272Y-10139179D02*
X23696225Y-10129655D01*
X23696225Y-10129655D02*
X23667653Y-10129655D01*
X23667653Y-10129655D02*
X23648605Y-10139179D01*
X23648605Y-10139179D02*
X23639082Y-10148703D01*
X23848605Y-10262989D02*
X23829558Y-10253465D01*
X23829558Y-10253465D02*
X23820034Y-10243941D01*
X23820034Y-10243941D02*
X23810510Y-10224894D01*
X23810510Y-10224894D02*
X23810510Y-10167751D01*
X23810510Y-10167751D02*
X23820034Y-10148703D01*
X23820034Y-10148703D02*
X23829558Y-10139179D01*
X23829558Y-10139179D02*
X23848605Y-10129655D01*
X23848605Y-10129655D02*
X23877177Y-10129655D01*
X23877177Y-10129655D02*
X23896225Y-10139179D01*
X23896225Y-10139179D02*
X23905748Y-10148703D01*
X23905748Y-10148703D02*
X23915272Y-10167751D01*
X23915272Y-10167751D02*
X23915272Y-10224894D01*
X23915272Y-10224894D02*
X23905748Y-10243941D01*
X23905748Y-10243941D02*
X23896225Y-10253465D01*
X23896225Y-10253465D02*
X23877177Y-10262989D01*
X23877177Y-10262989D02*
X23848605Y-10262989D01*
X24029558Y-10262989D02*
X24010510Y-10253465D01*
X24010510Y-10253465D02*
X24000986Y-10234417D01*
X24000986Y-10234417D02*
X24000986Y-10062989D01*
X24181939Y-10253465D02*
X24162891Y-10262989D01*
X24162891Y-10262989D02*
X24124796Y-10262989D01*
X24124796Y-10262989D02*
X24105748Y-10253465D01*
X24105748Y-10253465D02*
X24096225Y-10234417D01*
X24096225Y-10234417D02*
X24096225Y-10158227D01*
X24096225Y-10158227D02*
X24105748Y-10139179D01*
X24105748Y-10139179D02*
X24124796Y-10129655D01*
X24124796Y-10129655D02*
X24162891Y-10129655D01*
X24162891Y-10129655D02*
X24181939Y-10139179D01*
X24181939Y-10139179D02*
X24191463Y-10158227D01*
X24191463Y-10158227D02*
X24191463Y-10177275D01*
X24191463Y-10177275D02*
X24096225Y-10196322D01*
X24267653Y-10253465D02*
X24286701Y-10262989D01*
X24286701Y-10262989D02*
X24324796Y-10262989D01*
X24324796Y-10262989D02*
X24343844Y-10253465D01*
X24343844Y-10253465D02*
X24353367Y-10234417D01*
X24353367Y-10234417D02*
X24353367Y-10224894D01*
X24353367Y-10224894D02*
X24343844Y-10205846D01*
X24343844Y-10205846D02*
X24324796Y-10196322D01*
X24324796Y-10196322D02*
X24296225Y-10196322D01*
X24296225Y-10196322D02*
X24277177Y-10186798D01*
X24277177Y-10186798D02*
X24267653Y-10167751D01*
X24267653Y-10167751D02*
X24267653Y-10158227D01*
X24267653Y-10158227D02*
X24277177Y-10139179D01*
X24277177Y-10139179D02*
X24296225Y-10129655D01*
X24296225Y-10129655D02*
X24324796Y-10129655D01*
X24324796Y-10129655D02*
X24343844Y-10139179D01*
X24420034Y-10339179D02*
X24429558Y-10329655D01*
X24429558Y-10329655D02*
X24448606Y-10301084D01*
X24448606Y-10301084D02*
X24458129Y-10282036D01*
X24458129Y-10282036D02*
X24467653Y-10253465D01*
X24467653Y-10253465D02*
X24477177Y-10205846D01*
X24477177Y-10205846D02*
X24477177Y-10167751D01*
X24477177Y-10167751D02*
X24467653Y-10120132D01*
X24467653Y-10120132D02*
X24458129Y-10091560D01*
X24458129Y-10091560D02*
X24448606Y-10072513D01*
X24448606Y-10072513D02*
X24429558Y-10043941D01*
X24429558Y-10043941D02*
X24420034Y-10034417D01*
M02*
