%TF.GenerationSoftware,KiCad,Pcbnew,8.0.7*%
%TF.CreationDate,2025-01-22T20:40:03+05:30*%
%TF.ProjectId,Esp_Test,4573705f-5465-4737-942e-6b696361645f,rev?*%
%TF.SameCoordinates,Original*%
%TF.FileFunction,Legend,Top*%
%TF.FilePolarity,Positive*%
%FSLAX46Y46*%
G04 Gerber Fmt 4.6, Leading zero omitted, Abs format (unit mm)*
G04 Created by KiCad (PCBNEW 8.0.7) date 2025-01-22 20:40:03*
%MOMM*%
%LPD*%
G01*
G04 APERTURE LIST*
G04 Aperture macros list*
%AMRoundRect*
0 Rectangle with rounded corners*
0 $1 Rounding radius*
0 $2 $3 $4 $5 $6 $7 $8 $9 X,Y pos of 4 corners*
0 Add a 4 corners polygon primitive as box body*
4,1,4,$2,$3,$4,$5,$6,$7,$8,$9,$2,$3,0*
0 Add four circle primitives for the rounded corners*
1,1,$1+$1,$2,$3*
1,1,$1+$1,$4,$5*
1,1,$1+$1,$6,$7*
1,1,$1+$1,$8,$9*
0 Add four rect primitives between the rounded corners*
20,1,$1+$1,$2,$3,$4,$5,0*
20,1,$1+$1,$4,$5,$6,$7,0*
20,1,$1+$1,$6,$7,$8,$9,0*
20,1,$1+$1,$8,$9,$2,$3,0*%
G04 Aperture macros list end*
%ADD10C,0.152400*%
%ADD11C,0.101600*%
%ADD12C,0.062500*%
%ADD13C,0.150000*%
%ADD14C,0.120000*%
%ADD15C,1.000000*%
%ADD16C,0.800000*%
%ADD17R,1.700000X1.700000*%
%ADD18RoundRect,0.250000X-0.845000X0.620000X-0.845000X-0.620000X0.845000X-0.620000X0.845000X0.620000X0*%
%ADD19O,2.190000X1.740000*%
%ADD20R,2.300000X1.700000*%
%ADD21C,1.400000*%
%ADD22O,1.400000X1.400000*%
%ADD23O,1.700000X1.700000*%
%ADD24R,1.800000X1.800000*%
%ADD25C,1.800000*%
G04 APERTURE END LIST*
D10*
X201498072Y-44545803D02*
X201769005Y-45358603D01*
X201769005Y-45358603D02*
X202039939Y-44545803D01*
X202310872Y-45358603D02*
X202310872Y-44545803D01*
X202310872Y-44545803D02*
X202775329Y-45358603D01*
X202775329Y-45358603D02*
X202775329Y-44545803D01*
X201887539Y-72524508D02*
X201810129Y-72485803D01*
X201810129Y-72485803D02*
X201694015Y-72485803D01*
X201694015Y-72485803D02*
X201577901Y-72524508D01*
X201577901Y-72524508D02*
X201500491Y-72601918D01*
X201500491Y-72601918D02*
X201461786Y-72679327D01*
X201461786Y-72679327D02*
X201423082Y-72834146D01*
X201423082Y-72834146D02*
X201423082Y-72950260D01*
X201423082Y-72950260D02*
X201461786Y-73105079D01*
X201461786Y-73105079D02*
X201500491Y-73182489D01*
X201500491Y-73182489D02*
X201577901Y-73259899D01*
X201577901Y-73259899D02*
X201694015Y-73298603D01*
X201694015Y-73298603D02*
X201771424Y-73298603D01*
X201771424Y-73298603D02*
X201887539Y-73259899D01*
X201887539Y-73259899D02*
X201926243Y-73221194D01*
X201926243Y-73221194D02*
X201926243Y-72950260D01*
X201926243Y-72950260D02*
X201771424Y-72950260D01*
X202274586Y-73298603D02*
X202274586Y-72485803D01*
X202274586Y-72485803D02*
X202739043Y-73298603D01*
X202739043Y-73298603D02*
X202739043Y-72485803D01*
X203126091Y-73298603D02*
X203126091Y-72485803D01*
X203126091Y-72485803D02*
X203319615Y-72485803D01*
X203319615Y-72485803D02*
X203435729Y-72524508D01*
X203435729Y-72524508D02*
X203513139Y-72601918D01*
X203513139Y-72601918D02*
X203551844Y-72679327D01*
X203551844Y-72679327D02*
X203590548Y-72834146D01*
X203590548Y-72834146D02*
X203590548Y-72950260D01*
X203590548Y-72950260D02*
X203551844Y-73105079D01*
X203551844Y-73105079D02*
X203513139Y-73182489D01*
X203513139Y-73182489D02*
X203435729Y-73259899D01*
X203435729Y-73259899D02*
X203319615Y-73298603D01*
X203319615Y-73298603D02*
X203126091Y-73298603D01*
X251124834Y-65678603D02*
X251124834Y-64865803D01*
X251124834Y-64865803D02*
X251318358Y-64865803D01*
X251318358Y-64865803D02*
X251434472Y-64904508D01*
X251434472Y-64904508D02*
X251511882Y-64981918D01*
X251511882Y-64981918D02*
X251550587Y-65059327D01*
X251550587Y-65059327D02*
X251589291Y-65214146D01*
X251589291Y-65214146D02*
X251589291Y-65330260D01*
X251589291Y-65330260D02*
X251550587Y-65485079D01*
X251550587Y-65485079D02*
X251511882Y-65562489D01*
X251511882Y-65562489D02*
X251434472Y-65639899D01*
X251434472Y-65639899D02*
X251318358Y-65678603D01*
X251318358Y-65678603D02*
X251124834Y-65678603D01*
X252285977Y-65136737D02*
X252285977Y-65678603D01*
X252092453Y-64827099D02*
X251898930Y-65407670D01*
X251898930Y-65407670D02*
X252402091Y-65407670D01*
X201594834Y-39852851D02*
X201865768Y-39852851D01*
X201981882Y-40278603D02*
X201594834Y-40278603D01*
X201594834Y-40278603D02*
X201594834Y-39465803D01*
X201594834Y-39465803D02*
X201981882Y-39465803D01*
X202330224Y-40278603D02*
X202330224Y-39465803D01*
X202330224Y-39465803D02*
X202794681Y-40278603D01*
X202794681Y-40278603D02*
X202794681Y-39465803D01*
X201362605Y-75025803D02*
X201633538Y-75838603D01*
X201633538Y-75838603D02*
X201904472Y-75025803D01*
X202175405Y-75838603D02*
X202175405Y-75296737D01*
X202175405Y-75025803D02*
X202136701Y-75064508D01*
X202136701Y-75064508D02*
X202175405Y-75103213D01*
X202175405Y-75103213D02*
X202214110Y-75064508D01*
X202214110Y-75064508D02*
X202175405Y-75025803D01*
X202175405Y-75025803D02*
X202175405Y-75103213D01*
X202562453Y-75296737D02*
X202562453Y-75838603D01*
X202562453Y-75374146D02*
X202601158Y-75335441D01*
X202601158Y-75335441D02*
X202678568Y-75296737D01*
X202678568Y-75296737D02*
X202794682Y-75296737D01*
X202794682Y-75296737D02*
X202872091Y-75335441D01*
X202872091Y-75335441D02*
X202910796Y-75412851D01*
X202910796Y-75412851D02*
X202910796Y-75838603D01*
X201207786Y-60852603D02*
X201207786Y-60039803D01*
X201207786Y-60039803D02*
X201401310Y-60039803D01*
X201401310Y-60039803D02*
X201517424Y-60078508D01*
X201517424Y-60078508D02*
X201594834Y-60155918D01*
X201594834Y-60155918D02*
X201633539Y-60233327D01*
X201633539Y-60233327D02*
X201672243Y-60388146D01*
X201672243Y-60388146D02*
X201672243Y-60504260D01*
X201672243Y-60504260D02*
X201633539Y-60659079D01*
X201633539Y-60659079D02*
X201594834Y-60736489D01*
X201594834Y-60736489D02*
X201517424Y-60813899D01*
X201517424Y-60813899D02*
X201401310Y-60852603D01*
X201401310Y-60852603D02*
X201207786Y-60852603D01*
X201981882Y-60117213D02*
X202020586Y-60078508D01*
X202020586Y-60078508D02*
X202097996Y-60039803D01*
X202097996Y-60039803D02*
X202291520Y-60039803D01*
X202291520Y-60039803D02*
X202368929Y-60078508D01*
X202368929Y-60078508D02*
X202407634Y-60117213D01*
X202407634Y-60117213D02*
X202446339Y-60194622D01*
X202446339Y-60194622D02*
X202446339Y-60272032D01*
X202446339Y-60272032D02*
X202407634Y-60388146D01*
X202407634Y-60388146D02*
X201943177Y-60852603D01*
X201943177Y-60852603D02*
X202446339Y-60852603D01*
X203143024Y-60039803D02*
X202988205Y-60039803D01*
X202988205Y-60039803D02*
X202910796Y-60078508D01*
X202910796Y-60078508D02*
X202872091Y-60117213D01*
X202872091Y-60117213D02*
X202794681Y-60233327D01*
X202794681Y-60233327D02*
X202755977Y-60388146D01*
X202755977Y-60388146D02*
X202755977Y-60697784D01*
X202755977Y-60697784D02*
X202794681Y-60775194D01*
X202794681Y-60775194D02*
X202833386Y-60813899D01*
X202833386Y-60813899D02*
X202910796Y-60852603D01*
X202910796Y-60852603D02*
X203065615Y-60852603D01*
X203065615Y-60852603D02*
X203143024Y-60813899D01*
X203143024Y-60813899D02*
X203181729Y-60775194D01*
X203181729Y-60775194D02*
X203220434Y-60697784D01*
X203220434Y-60697784D02*
X203220434Y-60504260D01*
X203220434Y-60504260D02*
X203181729Y-60426851D01*
X203181729Y-60426851D02*
X203143024Y-60388146D01*
X203143024Y-60388146D02*
X203065615Y-60349441D01*
X203065615Y-60349441D02*
X202910796Y-60349441D01*
X202910796Y-60349441D02*
X202833386Y-60388146D01*
X202833386Y-60388146D02*
X202794681Y-60426851D01*
X202794681Y-60426851D02*
X202755977Y-60504260D01*
X250737786Y-42564603D02*
X250737786Y-41751803D01*
X250737786Y-41751803D02*
X250931310Y-41751803D01*
X250931310Y-41751803D02*
X251047424Y-41790508D01*
X251047424Y-41790508D02*
X251124834Y-41867918D01*
X251124834Y-41867918D02*
X251163539Y-41945327D01*
X251163539Y-41945327D02*
X251202243Y-42100146D01*
X251202243Y-42100146D02*
X251202243Y-42216260D01*
X251202243Y-42216260D02*
X251163539Y-42371079D01*
X251163539Y-42371079D02*
X251124834Y-42448489D01*
X251124834Y-42448489D02*
X251047424Y-42525899D01*
X251047424Y-42525899D02*
X250931310Y-42564603D01*
X250931310Y-42564603D02*
X250737786Y-42564603D01*
X251511882Y-41829213D02*
X251550586Y-41790508D01*
X251550586Y-41790508D02*
X251627996Y-41751803D01*
X251627996Y-41751803D02*
X251821520Y-41751803D01*
X251821520Y-41751803D02*
X251898929Y-41790508D01*
X251898929Y-41790508D02*
X251937634Y-41829213D01*
X251937634Y-41829213D02*
X251976339Y-41906622D01*
X251976339Y-41906622D02*
X251976339Y-41984032D01*
X251976339Y-41984032D02*
X251937634Y-42100146D01*
X251937634Y-42100146D02*
X251473177Y-42564603D01*
X251473177Y-42564603D02*
X251976339Y-42564603D01*
X252285977Y-41829213D02*
X252324681Y-41790508D01*
X252324681Y-41790508D02*
X252402091Y-41751803D01*
X252402091Y-41751803D02*
X252595615Y-41751803D01*
X252595615Y-41751803D02*
X252673024Y-41790508D01*
X252673024Y-41790508D02*
X252711729Y-41829213D01*
X252711729Y-41829213D02*
X252750434Y-41906622D01*
X252750434Y-41906622D02*
X252750434Y-41984032D01*
X252750434Y-41984032D02*
X252711729Y-42100146D01*
X252711729Y-42100146D02*
X252247272Y-42564603D01*
X252247272Y-42564603D02*
X252750434Y-42564603D01*
D11*
X195216251Y-52422444D02*
X195680708Y-52422444D01*
X195448480Y-53235244D02*
X195448480Y-52422444D01*
D10*
X201207786Y-68218603D02*
X201207786Y-67405803D01*
X201207786Y-67405803D02*
X201401310Y-67405803D01*
X201401310Y-67405803D02*
X201517424Y-67444508D01*
X201517424Y-67444508D02*
X201594834Y-67521918D01*
X201594834Y-67521918D02*
X201633539Y-67599327D01*
X201633539Y-67599327D02*
X201672243Y-67754146D01*
X201672243Y-67754146D02*
X201672243Y-67870260D01*
X201672243Y-67870260D02*
X201633539Y-68025079D01*
X201633539Y-68025079D02*
X201594834Y-68102489D01*
X201594834Y-68102489D02*
X201517424Y-68179899D01*
X201517424Y-68179899D02*
X201401310Y-68218603D01*
X201401310Y-68218603D02*
X201207786Y-68218603D01*
X202446339Y-68218603D02*
X201981882Y-68218603D01*
X202214110Y-68218603D02*
X202214110Y-67405803D01*
X202214110Y-67405803D02*
X202136701Y-67521918D01*
X202136701Y-67521918D02*
X202059291Y-67599327D01*
X202059291Y-67599327D02*
X201981882Y-67638032D01*
X202755977Y-67483213D02*
X202794681Y-67444508D01*
X202794681Y-67444508D02*
X202872091Y-67405803D01*
X202872091Y-67405803D02*
X203065615Y-67405803D01*
X203065615Y-67405803D02*
X203143024Y-67444508D01*
X203143024Y-67444508D02*
X203181729Y-67483213D01*
X203181729Y-67483213D02*
X203220434Y-67560622D01*
X203220434Y-67560622D02*
X203220434Y-67638032D01*
X203220434Y-67638032D02*
X203181729Y-67754146D01*
X203181729Y-67754146D02*
X202717272Y-68218603D01*
X202717272Y-68218603D02*
X203220434Y-68218603D01*
X201207786Y-71012603D02*
X201207786Y-70199803D01*
X201207786Y-70199803D02*
X201401310Y-70199803D01*
X201401310Y-70199803D02*
X201517424Y-70238508D01*
X201517424Y-70238508D02*
X201594834Y-70315918D01*
X201594834Y-70315918D02*
X201633539Y-70393327D01*
X201633539Y-70393327D02*
X201672243Y-70548146D01*
X201672243Y-70548146D02*
X201672243Y-70664260D01*
X201672243Y-70664260D02*
X201633539Y-70819079D01*
X201633539Y-70819079D02*
X201594834Y-70896489D01*
X201594834Y-70896489D02*
X201517424Y-70973899D01*
X201517424Y-70973899D02*
X201401310Y-71012603D01*
X201401310Y-71012603D02*
X201207786Y-71012603D01*
X202446339Y-71012603D02*
X201981882Y-71012603D01*
X202214110Y-71012603D02*
X202214110Y-70199803D01*
X202214110Y-70199803D02*
X202136701Y-70315918D01*
X202136701Y-70315918D02*
X202059291Y-70393327D01*
X202059291Y-70393327D02*
X201981882Y-70432032D01*
X202717272Y-70199803D02*
X203220434Y-70199803D01*
X203220434Y-70199803D02*
X202949500Y-70509441D01*
X202949500Y-70509441D02*
X203065615Y-70509441D01*
X203065615Y-70509441D02*
X203143024Y-70548146D01*
X203143024Y-70548146D02*
X203181729Y-70586851D01*
X203181729Y-70586851D02*
X203220434Y-70664260D01*
X203220434Y-70664260D02*
X203220434Y-70857784D01*
X203220434Y-70857784D02*
X203181729Y-70935194D01*
X203181729Y-70935194D02*
X203143024Y-70973899D01*
X203143024Y-70973899D02*
X203065615Y-71012603D01*
X203065615Y-71012603D02*
X202833386Y-71012603D01*
X202833386Y-71012603D02*
X202755977Y-70973899D01*
X202755977Y-70973899D02*
X202717272Y-70935194D01*
X250737786Y-55518603D02*
X250737786Y-54705803D01*
X250737786Y-54705803D02*
X250931310Y-54705803D01*
X250931310Y-54705803D02*
X251047424Y-54744508D01*
X251047424Y-54744508D02*
X251124834Y-54821918D01*
X251124834Y-54821918D02*
X251163539Y-54899327D01*
X251163539Y-54899327D02*
X251202243Y-55054146D01*
X251202243Y-55054146D02*
X251202243Y-55170260D01*
X251202243Y-55170260D02*
X251163539Y-55325079D01*
X251163539Y-55325079D02*
X251124834Y-55402489D01*
X251124834Y-55402489D02*
X251047424Y-55479899D01*
X251047424Y-55479899D02*
X250931310Y-55518603D01*
X250931310Y-55518603D02*
X250737786Y-55518603D01*
X251976339Y-55518603D02*
X251511882Y-55518603D01*
X251744110Y-55518603D02*
X251744110Y-54705803D01*
X251744110Y-54705803D02*
X251666701Y-54821918D01*
X251666701Y-54821918D02*
X251589291Y-54899327D01*
X251589291Y-54899327D02*
X251511882Y-54938032D01*
X252440796Y-55054146D02*
X252363386Y-55015441D01*
X252363386Y-55015441D02*
X252324681Y-54976737D01*
X252324681Y-54976737D02*
X252285977Y-54899327D01*
X252285977Y-54899327D02*
X252285977Y-54860622D01*
X252285977Y-54860622D02*
X252324681Y-54783213D01*
X252324681Y-54783213D02*
X252363386Y-54744508D01*
X252363386Y-54744508D02*
X252440796Y-54705803D01*
X252440796Y-54705803D02*
X252595615Y-54705803D01*
X252595615Y-54705803D02*
X252673024Y-54744508D01*
X252673024Y-54744508D02*
X252711729Y-54783213D01*
X252711729Y-54783213D02*
X252750434Y-54860622D01*
X252750434Y-54860622D02*
X252750434Y-54899327D01*
X252750434Y-54899327D02*
X252711729Y-54976737D01*
X252711729Y-54976737D02*
X252673024Y-55015441D01*
X252673024Y-55015441D02*
X252595615Y-55054146D01*
X252595615Y-55054146D02*
X252440796Y-55054146D01*
X252440796Y-55054146D02*
X252363386Y-55092851D01*
X252363386Y-55092851D02*
X252324681Y-55131556D01*
X252324681Y-55131556D02*
X252285977Y-55208965D01*
X252285977Y-55208965D02*
X252285977Y-55363784D01*
X252285977Y-55363784D02*
X252324681Y-55441194D01*
X252324681Y-55441194D02*
X252363386Y-55479899D01*
X252363386Y-55479899D02*
X252440796Y-55518603D01*
X252440796Y-55518603D02*
X252595615Y-55518603D01*
X252595615Y-55518603D02*
X252673024Y-55479899D01*
X252673024Y-55479899D02*
X252711729Y-55441194D01*
X252711729Y-55441194D02*
X252750434Y-55363784D01*
X252750434Y-55363784D02*
X252750434Y-55208965D01*
X252750434Y-55208965D02*
X252711729Y-55131556D01*
X252711729Y-55131556D02*
X252673024Y-55092851D01*
X252673024Y-55092851D02*
X252595615Y-55054146D01*
X201207786Y-58312603D02*
X201207786Y-57499803D01*
X201207786Y-57499803D02*
X201401310Y-57499803D01*
X201401310Y-57499803D02*
X201517424Y-57538508D01*
X201517424Y-57538508D02*
X201594834Y-57615918D01*
X201594834Y-57615918D02*
X201633539Y-57693327D01*
X201633539Y-57693327D02*
X201672243Y-57848146D01*
X201672243Y-57848146D02*
X201672243Y-57964260D01*
X201672243Y-57964260D02*
X201633539Y-58119079D01*
X201633539Y-58119079D02*
X201594834Y-58196489D01*
X201594834Y-58196489D02*
X201517424Y-58273899D01*
X201517424Y-58273899D02*
X201401310Y-58312603D01*
X201401310Y-58312603D02*
X201207786Y-58312603D01*
X201981882Y-57577213D02*
X202020586Y-57538508D01*
X202020586Y-57538508D02*
X202097996Y-57499803D01*
X202097996Y-57499803D02*
X202291520Y-57499803D01*
X202291520Y-57499803D02*
X202368929Y-57538508D01*
X202368929Y-57538508D02*
X202407634Y-57577213D01*
X202407634Y-57577213D02*
X202446339Y-57654622D01*
X202446339Y-57654622D02*
X202446339Y-57732032D01*
X202446339Y-57732032D02*
X202407634Y-57848146D01*
X202407634Y-57848146D02*
X201943177Y-58312603D01*
X201943177Y-58312603D02*
X202446339Y-58312603D01*
X203181729Y-57499803D02*
X202794681Y-57499803D01*
X202794681Y-57499803D02*
X202755977Y-57886851D01*
X202755977Y-57886851D02*
X202794681Y-57848146D01*
X202794681Y-57848146D02*
X202872091Y-57809441D01*
X202872091Y-57809441D02*
X203065615Y-57809441D01*
X203065615Y-57809441D02*
X203143024Y-57848146D01*
X203143024Y-57848146D02*
X203181729Y-57886851D01*
X203181729Y-57886851D02*
X203220434Y-57964260D01*
X203220434Y-57964260D02*
X203220434Y-58157784D01*
X203220434Y-58157784D02*
X203181729Y-58235194D01*
X203181729Y-58235194D02*
X203143024Y-58273899D01*
X203143024Y-58273899D02*
X203065615Y-58312603D01*
X203065615Y-58312603D02*
X202872091Y-58312603D01*
X202872091Y-58312603D02*
X202794681Y-58273899D01*
X202794681Y-58273899D02*
X202755977Y-58235194D01*
X251124834Y-47898603D02*
X251124834Y-47085803D01*
X251124834Y-47085803D02*
X251318358Y-47085803D01*
X251318358Y-47085803D02*
X251434472Y-47124508D01*
X251434472Y-47124508D02*
X251511882Y-47201918D01*
X251511882Y-47201918D02*
X251550587Y-47279327D01*
X251550587Y-47279327D02*
X251589291Y-47434146D01*
X251589291Y-47434146D02*
X251589291Y-47550260D01*
X251589291Y-47550260D02*
X251550587Y-47705079D01*
X251550587Y-47705079D02*
X251511882Y-47782489D01*
X251511882Y-47782489D02*
X251434472Y-47859899D01*
X251434472Y-47859899D02*
X251318358Y-47898603D01*
X251318358Y-47898603D02*
X251124834Y-47898603D01*
X251860225Y-47085803D02*
X252363387Y-47085803D01*
X252363387Y-47085803D02*
X252092453Y-47395441D01*
X252092453Y-47395441D02*
X252208568Y-47395441D01*
X252208568Y-47395441D02*
X252285977Y-47434146D01*
X252285977Y-47434146D02*
X252324682Y-47472851D01*
X252324682Y-47472851D02*
X252363387Y-47550260D01*
X252363387Y-47550260D02*
X252363387Y-47743784D01*
X252363387Y-47743784D02*
X252324682Y-47821194D01*
X252324682Y-47821194D02*
X252285977Y-47859899D01*
X252285977Y-47859899D02*
X252208568Y-47898603D01*
X252208568Y-47898603D02*
X251976339Y-47898603D01*
X251976339Y-47898603D02*
X251898930Y-47859899D01*
X251898930Y-47859899D02*
X251860225Y-47821194D01*
X250737786Y-60852603D02*
X250737786Y-60039803D01*
X250737786Y-60039803D02*
X250931310Y-60039803D01*
X250931310Y-60039803D02*
X251047424Y-60078508D01*
X251047424Y-60078508D02*
X251124834Y-60155918D01*
X251124834Y-60155918D02*
X251163539Y-60233327D01*
X251163539Y-60233327D02*
X251202243Y-60388146D01*
X251202243Y-60388146D02*
X251202243Y-60504260D01*
X251202243Y-60504260D02*
X251163539Y-60659079D01*
X251163539Y-60659079D02*
X251124834Y-60736489D01*
X251124834Y-60736489D02*
X251047424Y-60813899D01*
X251047424Y-60813899D02*
X250931310Y-60852603D01*
X250931310Y-60852603D02*
X250737786Y-60852603D01*
X251976339Y-60852603D02*
X251511882Y-60852603D01*
X251744110Y-60852603D02*
X251744110Y-60039803D01*
X251744110Y-60039803D02*
X251666701Y-60155918D01*
X251666701Y-60155918D02*
X251589291Y-60233327D01*
X251589291Y-60233327D02*
X251511882Y-60272032D01*
X252247272Y-60039803D02*
X252789138Y-60039803D01*
X252789138Y-60039803D02*
X252440796Y-60852603D01*
D11*
X194901775Y-44190996D02*
X194969509Y-43649130D01*
X195003375Y-43378196D02*
X194959832Y-43416901D01*
X194959832Y-43416901D02*
X194993699Y-43455606D01*
X194993699Y-43455606D02*
X195037242Y-43416901D01*
X195037242Y-43416901D02*
X195003375Y-43378196D01*
X195003375Y-43378196D02*
X194993699Y-43455606D01*
X195356557Y-43649130D02*
X195288823Y-44190996D01*
X195346880Y-43726539D02*
X195390423Y-43687834D01*
X195390423Y-43687834D02*
X195472671Y-43649130D01*
X195472671Y-43649130D02*
X195588785Y-43649130D01*
X195588785Y-43649130D02*
X195661357Y-43687834D01*
X195661357Y-43687834D02*
X195690385Y-43765244D01*
X195690385Y-43765244D02*
X195637166Y-44190996D01*
X194969509Y-44957692D02*
X194867909Y-45770492D01*
X194964670Y-44996396D02*
X195046918Y-44957692D01*
X195046918Y-44957692D02*
X195201737Y-44957692D01*
X195201737Y-44957692D02*
X195274309Y-44996396D01*
X195274309Y-44996396D02*
X195308175Y-45035101D01*
X195308175Y-45035101D02*
X195337204Y-45112511D01*
X195337204Y-45112511D02*
X195308175Y-45344739D01*
X195308175Y-45344739D02*
X195259794Y-45422149D01*
X195259794Y-45422149D02*
X195216251Y-45460854D01*
X195216251Y-45460854D02*
X195134004Y-45499558D01*
X195134004Y-45499558D02*
X194979185Y-45499558D01*
X194979185Y-45499558D02*
X194906613Y-45460854D01*
X196053241Y-44957692D02*
X195985508Y-45499558D01*
X195704899Y-44957692D02*
X195651680Y-45383444D01*
X195651680Y-45383444D02*
X195680708Y-45460854D01*
X195680708Y-45460854D02*
X195753280Y-45499558D01*
X195753280Y-45499558D02*
X195869394Y-45499558D01*
X195869394Y-45499558D02*
X195951641Y-45460854D01*
X195951641Y-45460854D02*
X195995184Y-45422149D01*
X194853394Y-46266254D02*
X195163032Y-46266254D01*
X195003375Y-45995320D02*
X194916290Y-46692006D01*
X194916290Y-46692006D02*
X194945318Y-46769416D01*
X194945318Y-46769416D02*
X195017890Y-46808120D01*
X195017890Y-46808120D02*
X195095299Y-46808120D01*
X195332366Y-46769416D02*
X195404937Y-46808120D01*
X195404937Y-46808120D02*
X195559756Y-46808120D01*
X195559756Y-46808120D02*
X195642004Y-46769416D01*
X195642004Y-46769416D02*
X195690385Y-46692006D01*
X195690385Y-46692006D02*
X195695223Y-46653301D01*
X195695223Y-46653301D02*
X195666194Y-46575892D01*
X195666194Y-46575892D02*
X195593623Y-46537187D01*
X195593623Y-46537187D02*
X195477508Y-46537187D01*
X195477508Y-46537187D02*
X195404937Y-46498482D01*
X195404937Y-46498482D02*
X195375908Y-46421073D01*
X195375908Y-46421073D02*
X195380747Y-46382368D01*
X195380747Y-46382368D02*
X195429127Y-46304958D01*
X195429127Y-46304958D02*
X195511375Y-46266254D01*
X195511375Y-46266254D02*
X195627489Y-46266254D01*
X195627489Y-46266254D02*
X195700061Y-46304958D01*
X195017890Y-48116682D02*
X194945318Y-48077978D01*
X194945318Y-48077978D02*
X194911451Y-48039273D01*
X194911451Y-48039273D02*
X194882423Y-47961863D01*
X194882423Y-47961863D02*
X194911451Y-47729635D01*
X194911451Y-47729635D02*
X194959832Y-47652225D01*
X194959832Y-47652225D02*
X195003375Y-47613520D01*
X195003375Y-47613520D02*
X195085623Y-47574816D01*
X195085623Y-47574816D02*
X195201737Y-47574816D01*
X195201737Y-47574816D02*
X195274309Y-47613520D01*
X195274309Y-47613520D02*
X195308175Y-47652225D01*
X195308175Y-47652225D02*
X195337204Y-47729635D01*
X195337204Y-47729635D02*
X195308175Y-47961863D01*
X195308175Y-47961863D02*
X195259794Y-48039273D01*
X195259794Y-48039273D02*
X195216251Y-48077978D01*
X195216251Y-48077978D02*
X195134004Y-48116682D01*
X195134004Y-48116682D02*
X195017890Y-48116682D01*
X195704899Y-47574816D02*
X195637165Y-48116682D01*
X195695222Y-47652225D02*
X195738765Y-47613520D01*
X195738765Y-47613520D02*
X195821013Y-47574816D01*
X195821013Y-47574816D02*
X195937127Y-47574816D01*
X195937127Y-47574816D02*
X196009699Y-47613520D01*
X196009699Y-47613520D02*
X196038727Y-47690930D01*
X196038727Y-47690930D02*
X195985508Y-48116682D01*
X195017890Y-49425244D02*
X194945318Y-49386540D01*
X194945318Y-49386540D02*
X194916290Y-49309130D01*
X194916290Y-49309130D02*
X195003375Y-48612444D01*
X195317851Y-48883378D02*
X195443642Y-49425244D01*
X195704899Y-48883378D02*
X195443642Y-49425244D01*
X195443642Y-49425244D02*
X195342042Y-49618768D01*
X195342042Y-49618768D02*
X195298499Y-49657473D01*
X195298499Y-49657473D02*
X195216251Y-49696178D01*
X195216251Y-64868444D02*
X195680708Y-64868444D01*
X195448480Y-65681244D02*
X195448480Y-64868444D01*
X195216251Y-54708444D02*
X195680708Y-54708444D01*
X195448480Y-55521244D02*
X195448480Y-54708444D01*
D10*
X250737786Y-52978603D02*
X250737786Y-52165803D01*
X250737786Y-52165803D02*
X250931310Y-52165803D01*
X250931310Y-52165803D02*
X251047424Y-52204508D01*
X251047424Y-52204508D02*
X251124834Y-52281918D01*
X251124834Y-52281918D02*
X251163539Y-52359327D01*
X251163539Y-52359327D02*
X251202243Y-52514146D01*
X251202243Y-52514146D02*
X251202243Y-52630260D01*
X251202243Y-52630260D02*
X251163539Y-52785079D01*
X251163539Y-52785079D02*
X251124834Y-52862489D01*
X251124834Y-52862489D02*
X251047424Y-52939899D01*
X251047424Y-52939899D02*
X250931310Y-52978603D01*
X250931310Y-52978603D02*
X250737786Y-52978603D01*
X251976339Y-52978603D02*
X251511882Y-52978603D01*
X251744110Y-52978603D02*
X251744110Y-52165803D01*
X251744110Y-52165803D02*
X251666701Y-52281918D01*
X251666701Y-52281918D02*
X251589291Y-52359327D01*
X251589291Y-52359327D02*
X251511882Y-52398032D01*
X252363386Y-52978603D02*
X252518205Y-52978603D01*
X252518205Y-52978603D02*
X252595615Y-52939899D01*
X252595615Y-52939899D02*
X252634319Y-52901194D01*
X252634319Y-52901194D02*
X252711729Y-52785079D01*
X252711729Y-52785079D02*
X252750434Y-52630260D01*
X252750434Y-52630260D02*
X252750434Y-52320622D01*
X252750434Y-52320622D02*
X252711729Y-52243213D01*
X252711729Y-52243213D02*
X252673024Y-52204508D01*
X252673024Y-52204508D02*
X252595615Y-52165803D01*
X252595615Y-52165803D02*
X252440796Y-52165803D01*
X252440796Y-52165803D02*
X252363386Y-52204508D01*
X252363386Y-52204508D02*
X252324681Y-52243213D01*
X252324681Y-52243213D02*
X252285977Y-52320622D01*
X252285977Y-52320622D02*
X252285977Y-52514146D01*
X252285977Y-52514146D02*
X252324681Y-52591556D01*
X252324681Y-52591556D02*
X252363386Y-52630260D01*
X252363386Y-52630260D02*
X252440796Y-52668965D01*
X252440796Y-52668965D02*
X252595615Y-52668965D01*
X252595615Y-52668965D02*
X252673024Y-52630260D01*
X252673024Y-52630260D02*
X252711729Y-52591556D01*
X252711729Y-52591556D02*
X252750434Y-52514146D01*
D12*
X195370126Y-74284122D02*
X195036792Y-74284122D01*
X195036792Y-74284122D02*
X195003459Y-74617455D01*
X195003459Y-74617455D02*
X195036792Y-74584122D01*
X195036792Y-74584122D02*
X195103459Y-74550789D01*
X195103459Y-74550789D02*
X195270126Y-74550789D01*
X195270126Y-74550789D02*
X195336792Y-74584122D01*
X195336792Y-74584122D02*
X195370126Y-74617455D01*
X195370126Y-74617455D02*
X195403459Y-74684122D01*
X195403459Y-74684122D02*
X195403459Y-74850789D01*
X195403459Y-74850789D02*
X195370126Y-74917455D01*
X195370126Y-74917455D02*
X195336792Y-74950789D01*
X195336792Y-74950789D02*
X195270126Y-74984122D01*
X195270126Y-74984122D02*
X195103459Y-74984122D01*
X195103459Y-74984122D02*
X195036792Y-74950789D01*
X195036792Y-74950789D02*
X195003459Y-74917455D01*
X195636793Y-74517455D02*
X195803459Y-74984122D01*
X195803459Y-74984122D02*
X195970126Y-74517455D01*
X195036792Y-76111083D02*
X195036792Y-75644416D01*
X195036792Y-75411083D02*
X195003459Y-75444416D01*
X195003459Y-75444416D02*
X195036792Y-75477750D01*
X195036792Y-75477750D02*
X195070126Y-75444416D01*
X195070126Y-75444416D02*
X195036792Y-75411083D01*
X195036792Y-75411083D02*
X195036792Y-75477750D01*
X195370125Y-75644416D02*
X195370125Y-76344416D01*
X195370125Y-75677750D02*
X195436792Y-75644416D01*
X195436792Y-75644416D02*
X195570125Y-75644416D01*
X195570125Y-75644416D02*
X195636792Y-75677750D01*
X195636792Y-75677750D02*
X195670125Y-75711083D01*
X195670125Y-75711083D02*
X195703459Y-75777750D01*
X195703459Y-75777750D02*
X195703459Y-75977750D01*
X195703459Y-75977750D02*
X195670125Y-76044416D01*
X195670125Y-76044416D02*
X195636792Y-76077750D01*
X195636792Y-76077750D02*
X195570125Y-76111083D01*
X195570125Y-76111083D02*
X195436792Y-76111083D01*
X195436792Y-76111083D02*
X195370125Y-76077750D01*
D11*
X257700251Y-44294444D02*
X258164708Y-44294444D01*
X257932480Y-45107244D02*
X257932480Y-44294444D01*
X258358232Y-44294444D02*
X258900098Y-45107244D01*
X258900098Y-44294444D02*
X258358232Y-45107244D01*
X259364555Y-44294444D02*
X259441965Y-44294444D01*
X259441965Y-44294444D02*
X259519374Y-44333149D01*
X259519374Y-44333149D02*
X259558079Y-44371854D01*
X259558079Y-44371854D02*
X259596784Y-44449263D01*
X259596784Y-44449263D02*
X259635489Y-44604082D01*
X259635489Y-44604082D02*
X259635489Y-44797606D01*
X259635489Y-44797606D02*
X259596784Y-44952425D01*
X259596784Y-44952425D02*
X259558079Y-45029835D01*
X259558079Y-45029835D02*
X259519374Y-45068540D01*
X259519374Y-45068540D02*
X259441965Y-45107244D01*
X259441965Y-45107244D02*
X259364555Y-45107244D01*
X259364555Y-45107244D02*
X259287146Y-45068540D01*
X259287146Y-45068540D02*
X259248441Y-45029835D01*
X259248441Y-45029835D02*
X259209736Y-44952425D01*
X259209736Y-44952425D02*
X259171032Y-44797606D01*
X259171032Y-44797606D02*
X259171032Y-44604082D01*
X259171032Y-44604082D02*
X259209736Y-44449263D01*
X259209736Y-44449263D02*
X259248441Y-44371854D01*
X259248441Y-44371854D02*
X259287146Y-44333149D01*
X259287146Y-44333149D02*
X259364555Y-44294444D01*
D10*
X251124834Y-45612603D02*
X251124834Y-44799803D01*
X251124834Y-44799803D02*
X251318358Y-44799803D01*
X251318358Y-44799803D02*
X251434472Y-44838508D01*
X251434472Y-44838508D02*
X251511882Y-44915918D01*
X251511882Y-44915918D02*
X251550587Y-44993327D01*
X251550587Y-44993327D02*
X251589291Y-45148146D01*
X251589291Y-45148146D02*
X251589291Y-45264260D01*
X251589291Y-45264260D02*
X251550587Y-45419079D01*
X251550587Y-45419079D02*
X251511882Y-45496489D01*
X251511882Y-45496489D02*
X251434472Y-45573899D01*
X251434472Y-45573899D02*
X251318358Y-45612603D01*
X251318358Y-45612603D02*
X251124834Y-45612603D01*
X252363387Y-45612603D02*
X251898930Y-45612603D01*
X252131158Y-45612603D02*
X252131158Y-44799803D01*
X252131158Y-44799803D02*
X252053749Y-44915918D01*
X252053749Y-44915918D02*
X251976339Y-44993327D01*
X251976339Y-44993327D02*
X251898930Y-45032032D01*
X250737786Y-40278603D02*
X250737786Y-39465803D01*
X250737786Y-39465803D02*
X250931310Y-39465803D01*
X250931310Y-39465803D02*
X251047424Y-39504508D01*
X251047424Y-39504508D02*
X251124834Y-39581918D01*
X251124834Y-39581918D02*
X251163539Y-39659327D01*
X251163539Y-39659327D02*
X251202243Y-39814146D01*
X251202243Y-39814146D02*
X251202243Y-39930260D01*
X251202243Y-39930260D02*
X251163539Y-40085079D01*
X251163539Y-40085079D02*
X251124834Y-40162489D01*
X251124834Y-40162489D02*
X251047424Y-40239899D01*
X251047424Y-40239899D02*
X250931310Y-40278603D01*
X250931310Y-40278603D02*
X250737786Y-40278603D01*
X251511882Y-39543213D02*
X251550586Y-39504508D01*
X251550586Y-39504508D02*
X251627996Y-39465803D01*
X251627996Y-39465803D02*
X251821520Y-39465803D01*
X251821520Y-39465803D02*
X251898929Y-39504508D01*
X251898929Y-39504508D02*
X251937634Y-39543213D01*
X251937634Y-39543213D02*
X251976339Y-39620622D01*
X251976339Y-39620622D02*
X251976339Y-39698032D01*
X251976339Y-39698032D02*
X251937634Y-39814146D01*
X251937634Y-39814146D02*
X251473177Y-40278603D01*
X251473177Y-40278603D02*
X251976339Y-40278603D01*
X252247272Y-39465803D02*
X252750434Y-39465803D01*
X252750434Y-39465803D02*
X252479500Y-39775441D01*
X252479500Y-39775441D02*
X252595615Y-39775441D01*
X252595615Y-39775441D02*
X252673024Y-39814146D01*
X252673024Y-39814146D02*
X252711729Y-39852851D01*
X252711729Y-39852851D02*
X252750434Y-39930260D01*
X252750434Y-39930260D02*
X252750434Y-40123784D01*
X252750434Y-40123784D02*
X252711729Y-40201194D01*
X252711729Y-40201194D02*
X252673024Y-40239899D01*
X252673024Y-40239899D02*
X252595615Y-40278603D01*
X252595615Y-40278603D02*
X252363386Y-40278603D01*
X252363386Y-40278603D02*
X252285977Y-40239899D01*
X252285977Y-40239899D02*
X252247272Y-40201194D01*
X201207786Y-47898603D02*
X201207786Y-47085803D01*
X201207786Y-47085803D02*
X201401310Y-47085803D01*
X201401310Y-47085803D02*
X201517424Y-47124508D01*
X201517424Y-47124508D02*
X201594834Y-47201918D01*
X201594834Y-47201918D02*
X201633539Y-47279327D01*
X201633539Y-47279327D02*
X201672243Y-47434146D01*
X201672243Y-47434146D02*
X201672243Y-47550260D01*
X201672243Y-47550260D02*
X201633539Y-47705079D01*
X201633539Y-47705079D02*
X201594834Y-47782489D01*
X201594834Y-47782489D02*
X201517424Y-47859899D01*
X201517424Y-47859899D02*
X201401310Y-47898603D01*
X201401310Y-47898603D02*
X201207786Y-47898603D01*
X201943177Y-47085803D02*
X202446339Y-47085803D01*
X202446339Y-47085803D02*
X202175405Y-47395441D01*
X202175405Y-47395441D02*
X202291520Y-47395441D01*
X202291520Y-47395441D02*
X202368929Y-47434146D01*
X202368929Y-47434146D02*
X202407634Y-47472851D01*
X202407634Y-47472851D02*
X202446339Y-47550260D01*
X202446339Y-47550260D02*
X202446339Y-47743784D01*
X202446339Y-47743784D02*
X202407634Y-47821194D01*
X202407634Y-47821194D02*
X202368929Y-47859899D01*
X202368929Y-47859899D02*
X202291520Y-47898603D01*
X202291520Y-47898603D02*
X202059291Y-47898603D01*
X202059291Y-47898603D02*
X201981882Y-47859899D01*
X201981882Y-47859899D02*
X201943177Y-47821194D01*
X203143024Y-47356737D02*
X203143024Y-47898603D01*
X202949500Y-47047099D02*
X202755977Y-47627670D01*
X202755977Y-47627670D02*
X203259138Y-47627670D01*
X251105482Y-72524508D02*
X251028072Y-72485803D01*
X251028072Y-72485803D02*
X250911958Y-72485803D01*
X250911958Y-72485803D02*
X250795844Y-72524508D01*
X250795844Y-72524508D02*
X250718434Y-72601918D01*
X250718434Y-72601918D02*
X250679729Y-72679327D01*
X250679729Y-72679327D02*
X250641025Y-72834146D01*
X250641025Y-72834146D02*
X250641025Y-72950260D01*
X250641025Y-72950260D02*
X250679729Y-73105079D01*
X250679729Y-73105079D02*
X250718434Y-73182489D01*
X250718434Y-73182489D02*
X250795844Y-73259899D01*
X250795844Y-73259899D02*
X250911958Y-73298603D01*
X250911958Y-73298603D02*
X250989367Y-73298603D01*
X250989367Y-73298603D02*
X251105482Y-73259899D01*
X251105482Y-73259899D02*
X251144186Y-73221194D01*
X251144186Y-73221194D02*
X251144186Y-72950260D01*
X251144186Y-72950260D02*
X250989367Y-72950260D01*
X251492529Y-73298603D02*
X251492529Y-72485803D01*
X251492529Y-72485803D02*
X251956986Y-73298603D01*
X251956986Y-73298603D02*
X251956986Y-72485803D01*
X252344034Y-73298603D02*
X252344034Y-72485803D01*
X252344034Y-72485803D02*
X252537558Y-72485803D01*
X252537558Y-72485803D02*
X252653672Y-72524508D01*
X252653672Y-72524508D02*
X252731082Y-72601918D01*
X252731082Y-72601918D02*
X252769787Y-72679327D01*
X252769787Y-72679327D02*
X252808491Y-72834146D01*
X252808491Y-72834146D02*
X252808491Y-72950260D01*
X252808491Y-72950260D02*
X252769787Y-73105079D01*
X252769787Y-73105079D02*
X252731082Y-73182489D01*
X252731082Y-73182489D02*
X252653672Y-73259899D01*
X252653672Y-73259899D02*
X252537558Y-73298603D01*
X252537558Y-73298603D02*
X252344034Y-73298603D01*
X251124834Y-68218603D02*
X251124834Y-67405803D01*
X251124834Y-67405803D02*
X251318358Y-67405803D01*
X251318358Y-67405803D02*
X251434472Y-67444508D01*
X251434472Y-67444508D02*
X251511882Y-67521918D01*
X251511882Y-67521918D02*
X251550587Y-67599327D01*
X251550587Y-67599327D02*
X251589291Y-67754146D01*
X251589291Y-67754146D02*
X251589291Y-67870260D01*
X251589291Y-67870260D02*
X251550587Y-68025079D01*
X251550587Y-68025079D02*
X251511882Y-68102489D01*
X251511882Y-68102489D02*
X251434472Y-68179899D01*
X251434472Y-68179899D02*
X251318358Y-68218603D01*
X251318358Y-68218603D02*
X251124834Y-68218603D01*
X251898930Y-67483213D02*
X251937634Y-67444508D01*
X251937634Y-67444508D02*
X252015044Y-67405803D01*
X252015044Y-67405803D02*
X252208568Y-67405803D01*
X252208568Y-67405803D02*
X252285977Y-67444508D01*
X252285977Y-67444508D02*
X252324682Y-67483213D01*
X252324682Y-67483213D02*
X252363387Y-67560622D01*
X252363387Y-67560622D02*
X252363387Y-67638032D01*
X252363387Y-67638032D02*
X252324682Y-67754146D01*
X252324682Y-67754146D02*
X251860225Y-68218603D01*
X251860225Y-68218603D02*
X252363387Y-68218603D01*
X201207786Y-52978603D02*
X201207786Y-52165803D01*
X201207786Y-52165803D02*
X201401310Y-52165803D01*
X201401310Y-52165803D02*
X201517424Y-52204508D01*
X201517424Y-52204508D02*
X201594834Y-52281918D01*
X201594834Y-52281918D02*
X201633539Y-52359327D01*
X201633539Y-52359327D02*
X201672243Y-52514146D01*
X201672243Y-52514146D02*
X201672243Y-52630260D01*
X201672243Y-52630260D02*
X201633539Y-52785079D01*
X201633539Y-52785079D02*
X201594834Y-52862489D01*
X201594834Y-52862489D02*
X201517424Y-52939899D01*
X201517424Y-52939899D02*
X201401310Y-52978603D01*
X201401310Y-52978603D02*
X201207786Y-52978603D01*
X201943177Y-52165803D02*
X202446339Y-52165803D01*
X202446339Y-52165803D02*
X202175405Y-52475441D01*
X202175405Y-52475441D02*
X202291520Y-52475441D01*
X202291520Y-52475441D02*
X202368929Y-52514146D01*
X202368929Y-52514146D02*
X202407634Y-52552851D01*
X202407634Y-52552851D02*
X202446339Y-52630260D01*
X202446339Y-52630260D02*
X202446339Y-52823784D01*
X202446339Y-52823784D02*
X202407634Y-52901194D01*
X202407634Y-52901194D02*
X202368929Y-52939899D01*
X202368929Y-52939899D02*
X202291520Y-52978603D01*
X202291520Y-52978603D02*
X202059291Y-52978603D01*
X202059291Y-52978603D02*
X201981882Y-52939899D01*
X201981882Y-52939899D02*
X201943177Y-52901194D01*
X202755977Y-52243213D02*
X202794681Y-52204508D01*
X202794681Y-52204508D02*
X202872091Y-52165803D01*
X202872091Y-52165803D02*
X203065615Y-52165803D01*
X203065615Y-52165803D02*
X203143024Y-52204508D01*
X203143024Y-52204508D02*
X203181729Y-52243213D01*
X203181729Y-52243213D02*
X203220434Y-52320622D01*
X203220434Y-52320622D02*
X203220434Y-52398032D01*
X203220434Y-52398032D02*
X203181729Y-52514146D01*
X203181729Y-52514146D02*
X202717272Y-52978603D01*
X202717272Y-52978603D02*
X203220434Y-52978603D01*
X201517424Y-42513803D02*
X201788357Y-43326603D01*
X201788357Y-43326603D02*
X202059291Y-42513803D01*
X202330224Y-43326603D02*
X202330224Y-42513803D01*
X202330224Y-42513803D02*
X202639862Y-42513803D01*
X202639862Y-42513803D02*
X202717272Y-42552508D01*
X202717272Y-42552508D02*
X202755977Y-42591213D01*
X202755977Y-42591213D02*
X202794681Y-42668622D01*
X202794681Y-42668622D02*
X202794681Y-42784737D01*
X202794681Y-42784737D02*
X202755977Y-42862146D01*
X202755977Y-42862146D02*
X202717272Y-42900851D01*
X202717272Y-42900851D02*
X202639862Y-42939556D01*
X202639862Y-42939556D02*
X202330224Y-42939556D01*
D11*
X195216251Y-67408444D02*
X195680708Y-67408444D01*
X195448480Y-68221244D02*
X195448480Y-67408444D01*
D12*
X258148888Y-74792122D02*
X258582221Y-74792122D01*
X258582221Y-74792122D02*
X258348888Y-75058789D01*
X258348888Y-75058789D02*
X258448888Y-75058789D01*
X258448888Y-75058789D02*
X258515554Y-75092122D01*
X258515554Y-75092122D02*
X258548888Y-75125455D01*
X258548888Y-75125455D02*
X258582221Y-75192122D01*
X258582221Y-75192122D02*
X258582221Y-75358789D01*
X258582221Y-75358789D02*
X258548888Y-75425455D01*
X258548888Y-75425455D02*
X258515554Y-75458789D01*
X258515554Y-75458789D02*
X258448888Y-75492122D01*
X258448888Y-75492122D02*
X258248888Y-75492122D01*
X258248888Y-75492122D02*
X258182221Y-75458789D01*
X258182221Y-75458789D02*
X258148888Y-75425455D01*
X258815555Y-75025455D02*
X258982221Y-75492122D01*
X258982221Y-75492122D02*
X259148888Y-75025455D01*
X259348888Y-74792122D02*
X259782221Y-74792122D01*
X259782221Y-74792122D02*
X259548888Y-75058789D01*
X259548888Y-75058789D02*
X259648888Y-75058789D01*
X259648888Y-75058789D02*
X259715554Y-75092122D01*
X259715554Y-75092122D02*
X259748888Y-75125455D01*
X259748888Y-75125455D02*
X259782221Y-75192122D01*
X259782221Y-75192122D02*
X259782221Y-75358789D01*
X259782221Y-75358789D02*
X259748888Y-75425455D01*
X259748888Y-75425455D02*
X259715554Y-75458789D01*
X259715554Y-75458789D02*
X259648888Y-75492122D01*
X259648888Y-75492122D02*
X259448888Y-75492122D01*
X259448888Y-75492122D02*
X259382221Y-75458789D01*
X259382221Y-75458789D02*
X259348888Y-75425455D01*
X258315554Y-76619083D02*
X258248888Y-76585750D01*
X258248888Y-76585750D02*
X258215554Y-76552416D01*
X258215554Y-76552416D02*
X258182221Y-76485750D01*
X258182221Y-76485750D02*
X258182221Y-76285750D01*
X258182221Y-76285750D02*
X258215554Y-76219083D01*
X258215554Y-76219083D02*
X258248888Y-76185750D01*
X258248888Y-76185750D02*
X258315554Y-76152416D01*
X258315554Y-76152416D02*
X258415554Y-76152416D01*
X258415554Y-76152416D02*
X258482221Y-76185750D01*
X258482221Y-76185750D02*
X258515554Y-76219083D01*
X258515554Y-76219083D02*
X258548888Y-76285750D01*
X258548888Y-76285750D02*
X258548888Y-76485750D01*
X258548888Y-76485750D02*
X258515554Y-76552416D01*
X258515554Y-76552416D02*
X258482221Y-76585750D01*
X258482221Y-76585750D02*
X258415554Y-76619083D01*
X258415554Y-76619083D02*
X258315554Y-76619083D01*
X258848887Y-76152416D02*
X258848887Y-76852416D01*
X258848887Y-76185750D02*
X258915554Y-76152416D01*
X258915554Y-76152416D02*
X259048887Y-76152416D01*
X259048887Y-76152416D02*
X259115554Y-76185750D01*
X259115554Y-76185750D02*
X259148887Y-76219083D01*
X259148887Y-76219083D02*
X259182221Y-76285750D01*
X259182221Y-76285750D02*
X259182221Y-76485750D01*
X259182221Y-76485750D02*
X259148887Y-76552416D01*
X259148887Y-76552416D02*
X259115554Y-76585750D01*
X259115554Y-76585750D02*
X259048887Y-76619083D01*
X259048887Y-76619083D02*
X258915554Y-76619083D01*
X258915554Y-76619083D02*
X258848887Y-76585750D01*
D10*
X201207786Y-63392603D02*
X201207786Y-62579803D01*
X201207786Y-62579803D02*
X201401310Y-62579803D01*
X201401310Y-62579803D02*
X201517424Y-62618508D01*
X201517424Y-62618508D02*
X201594834Y-62695918D01*
X201594834Y-62695918D02*
X201633539Y-62773327D01*
X201633539Y-62773327D02*
X201672243Y-62928146D01*
X201672243Y-62928146D02*
X201672243Y-63044260D01*
X201672243Y-63044260D02*
X201633539Y-63199079D01*
X201633539Y-63199079D02*
X201594834Y-63276489D01*
X201594834Y-63276489D02*
X201517424Y-63353899D01*
X201517424Y-63353899D02*
X201401310Y-63392603D01*
X201401310Y-63392603D02*
X201207786Y-63392603D01*
X201981882Y-62657213D02*
X202020586Y-62618508D01*
X202020586Y-62618508D02*
X202097996Y-62579803D01*
X202097996Y-62579803D02*
X202291520Y-62579803D01*
X202291520Y-62579803D02*
X202368929Y-62618508D01*
X202368929Y-62618508D02*
X202407634Y-62657213D01*
X202407634Y-62657213D02*
X202446339Y-62734622D01*
X202446339Y-62734622D02*
X202446339Y-62812032D01*
X202446339Y-62812032D02*
X202407634Y-62928146D01*
X202407634Y-62928146D02*
X201943177Y-63392603D01*
X201943177Y-63392603D02*
X202446339Y-63392603D01*
X202717272Y-62579803D02*
X203259138Y-62579803D01*
X203259138Y-62579803D02*
X202910796Y-63392603D01*
D11*
X258728346Y-64868444D02*
X259192803Y-64868444D01*
X258960575Y-65681244D02*
X258960575Y-64868444D01*
D10*
X250737786Y-63138603D02*
X250737786Y-62325803D01*
X250737786Y-62325803D02*
X250931310Y-62325803D01*
X250931310Y-62325803D02*
X251047424Y-62364508D01*
X251047424Y-62364508D02*
X251124834Y-62441918D01*
X251124834Y-62441918D02*
X251163539Y-62519327D01*
X251163539Y-62519327D02*
X251202243Y-62674146D01*
X251202243Y-62674146D02*
X251202243Y-62790260D01*
X251202243Y-62790260D02*
X251163539Y-62945079D01*
X251163539Y-62945079D02*
X251124834Y-63022489D01*
X251124834Y-63022489D02*
X251047424Y-63099899D01*
X251047424Y-63099899D02*
X250931310Y-63138603D01*
X250931310Y-63138603D02*
X250737786Y-63138603D01*
X251976339Y-63138603D02*
X251511882Y-63138603D01*
X251744110Y-63138603D02*
X251744110Y-62325803D01*
X251744110Y-62325803D02*
X251666701Y-62441918D01*
X251666701Y-62441918D02*
X251589291Y-62519327D01*
X251589291Y-62519327D02*
X251511882Y-62558032D01*
X252673024Y-62325803D02*
X252518205Y-62325803D01*
X252518205Y-62325803D02*
X252440796Y-62364508D01*
X252440796Y-62364508D02*
X252402091Y-62403213D01*
X252402091Y-62403213D02*
X252324681Y-62519327D01*
X252324681Y-62519327D02*
X252285977Y-62674146D01*
X252285977Y-62674146D02*
X252285977Y-62983784D01*
X252285977Y-62983784D02*
X252324681Y-63061194D01*
X252324681Y-63061194D02*
X252363386Y-63099899D01*
X252363386Y-63099899D02*
X252440796Y-63138603D01*
X252440796Y-63138603D02*
X252595615Y-63138603D01*
X252595615Y-63138603D02*
X252673024Y-63099899D01*
X252673024Y-63099899D02*
X252711729Y-63061194D01*
X252711729Y-63061194D02*
X252750434Y-62983784D01*
X252750434Y-62983784D02*
X252750434Y-62790260D01*
X252750434Y-62790260D02*
X252711729Y-62712851D01*
X252711729Y-62712851D02*
X252673024Y-62674146D01*
X252673024Y-62674146D02*
X252595615Y-62635441D01*
X252595615Y-62635441D02*
X252440796Y-62635441D01*
X252440796Y-62635441D02*
X252363386Y-62674146D01*
X252363386Y-62674146D02*
X252324681Y-62712851D01*
X252324681Y-62712851D02*
X252285977Y-62790260D01*
X201207786Y-65678603D02*
X201207786Y-64865803D01*
X201207786Y-64865803D02*
X201401310Y-64865803D01*
X201401310Y-64865803D02*
X201517424Y-64904508D01*
X201517424Y-64904508D02*
X201594834Y-64981918D01*
X201594834Y-64981918D02*
X201633539Y-65059327D01*
X201633539Y-65059327D02*
X201672243Y-65214146D01*
X201672243Y-65214146D02*
X201672243Y-65330260D01*
X201672243Y-65330260D02*
X201633539Y-65485079D01*
X201633539Y-65485079D02*
X201594834Y-65562489D01*
X201594834Y-65562489D02*
X201517424Y-65639899D01*
X201517424Y-65639899D02*
X201401310Y-65678603D01*
X201401310Y-65678603D02*
X201207786Y-65678603D01*
X202446339Y-65678603D02*
X201981882Y-65678603D01*
X202214110Y-65678603D02*
X202214110Y-64865803D01*
X202214110Y-64865803D02*
X202136701Y-64981918D01*
X202136701Y-64981918D02*
X202059291Y-65059327D01*
X202059291Y-65059327D02*
X201981882Y-65098032D01*
X203143024Y-65136737D02*
X203143024Y-65678603D01*
X202949500Y-64827099D02*
X202755977Y-65407670D01*
X202755977Y-65407670D02*
X203259138Y-65407670D01*
D11*
X195216251Y-70202444D02*
X195680708Y-70202444D01*
X195448480Y-71015244D02*
X195448480Y-70202444D01*
X257973603Y-67408444D02*
X258438060Y-67408444D01*
X258205832Y-68221244D02*
X258205832Y-67408444D01*
X259289565Y-67369740D02*
X258592879Y-68414768D01*
X259947546Y-68221244D02*
X259560498Y-68221244D01*
X259560498Y-68221244D02*
X259560498Y-67408444D01*
D10*
X250737786Y-70758603D02*
X250737786Y-69945803D01*
X250737786Y-69945803D02*
X250931310Y-69945803D01*
X250931310Y-69945803D02*
X251047424Y-69984508D01*
X251047424Y-69984508D02*
X251124834Y-70061918D01*
X251124834Y-70061918D02*
X251163539Y-70139327D01*
X251163539Y-70139327D02*
X251202243Y-70294146D01*
X251202243Y-70294146D02*
X251202243Y-70410260D01*
X251202243Y-70410260D02*
X251163539Y-70565079D01*
X251163539Y-70565079D02*
X251124834Y-70642489D01*
X251124834Y-70642489D02*
X251047424Y-70719899D01*
X251047424Y-70719899D02*
X250931310Y-70758603D01*
X250931310Y-70758603D02*
X250737786Y-70758603D01*
X251976339Y-70758603D02*
X251511882Y-70758603D01*
X251744110Y-70758603D02*
X251744110Y-69945803D01*
X251744110Y-69945803D02*
X251666701Y-70061918D01*
X251666701Y-70061918D02*
X251589291Y-70139327D01*
X251589291Y-70139327D02*
X251511882Y-70178032D01*
X252711729Y-69945803D02*
X252324681Y-69945803D01*
X252324681Y-69945803D02*
X252285977Y-70332851D01*
X252285977Y-70332851D02*
X252324681Y-70294146D01*
X252324681Y-70294146D02*
X252402091Y-70255441D01*
X252402091Y-70255441D02*
X252595615Y-70255441D01*
X252595615Y-70255441D02*
X252673024Y-70294146D01*
X252673024Y-70294146D02*
X252711729Y-70332851D01*
X252711729Y-70332851D02*
X252750434Y-70410260D01*
X252750434Y-70410260D02*
X252750434Y-70603784D01*
X252750434Y-70603784D02*
X252711729Y-70681194D01*
X252711729Y-70681194D02*
X252673024Y-70719899D01*
X252673024Y-70719899D02*
X252595615Y-70758603D01*
X252595615Y-70758603D02*
X252402091Y-70758603D01*
X252402091Y-70758603D02*
X252324681Y-70719899D01*
X252324681Y-70719899D02*
X252285977Y-70681194D01*
X201207786Y-55264603D02*
X201207786Y-54451803D01*
X201207786Y-54451803D02*
X201401310Y-54451803D01*
X201401310Y-54451803D02*
X201517424Y-54490508D01*
X201517424Y-54490508D02*
X201594834Y-54567918D01*
X201594834Y-54567918D02*
X201633539Y-54645327D01*
X201633539Y-54645327D02*
X201672243Y-54800146D01*
X201672243Y-54800146D02*
X201672243Y-54916260D01*
X201672243Y-54916260D02*
X201633539Y-55071079D01*
X201633539Y-55071079D02*
X201594834Y-55148489D01*
X201594834Y-55148489D02*
X201517424Y-55225899D01*
X201517424Y-55225899D02*
X201401310Y-55264603D01*
X201401310Y-55264603D02*
X201207786Y-55264603D01*
X201943177Y-54451803D02*
X202446339Y-54451803D01*
X202446339Y-54451803D02*
X202175405Y-54761441D01*
X202175405Y-54761441D02*
X202291520Y-54761441D01*
X202291520Y-54761441D02*
X202368929Y-54800146D01*
X202368929Y-54800146D02*
X202407634Y-54838851D01*
X202407634Y-54838851D02*
X202446339Y-54916260D01*
X202446339Y-54916260D02*
X202446339Y-55109784D01*
X202446339Y-55109784D02*
X202407634Y-55187194D01*
X202407634Y-55187194D02*
X202368929Y-55225899D01*
X202368929Y-55225899D02*
X202291520Y-55264603D01*
X202291520Y-55264603D02*
X202059291Y-55264603D01*
X202059291Y-55264603D02*
X201981882Y-55225899D01*
X201981882Y-55225899D02*
X201943177Y-55187194D01*
X202717272Y-54451803D02*
X203220434Y-54451803D01*
X203220434Y-54451803D02*
X202949500Y-54761441D01*
X202949500Y-54761441D02*
X203065615Y-54761441D01*
X203065615Y-54761441D02*
X203143024Y-54800146D01*
X203143024Y-54800146D02*
X203181729Y-54838851D01*
X203181729Y-54838851D02*
X203220434Y-54916260D01*
X203220434Y-54916260D02*
X203220434Y-55109784D01*
X203220434Y-55109784D02*
X203181729Y-55187194D01*
X203181729Y-55187194D02*
X203143024Y-55225899D01*
X203143024Y-55225899D02*
X203065615Y-55264603D01*
X203065615Y-55264603D02*
X202833386Y-55264603D01*
X202833386Y-55264603D02*
X202755977Y-55225899D01*
X202755977Y-55225899D02*
X202717272Y-55187194D01*
X251124834Y-58058603D02*
X251124834Y-57245803D01*
X251124834Y-57245803D02*
X251318358Y-57245803D01*
X251318358Y-57245803D02*
X251434472Y-57284508D01*
X251434472Y-57284508D02*
X251511882Y-57361918D01*
X251511882Y-57361918D02*
X251550587Y-57439327D01*
X251550587Y-57439327D02*
X251589291Y-57594146D01*
X251589291Y-57594146D02*
X251589291Y-57710260D01*
X251589291Y-57710260D02*
X251550587Y-57865079D01*
X251550587Y-57865079D02*
X251511882Y-57942489D01*
X251511882Y-57942489D02*
X251434472Y-58019899D01*
X251434472Y-58019899D02*
X251318358Y-58058603D01*
X251318358Y-58058603D02*
X251124834Y-58058603D01*
X252324682Y-57245803D02*
X251937634Y-57245803D01*
X251937634Y-57245803D02*
X251898930Y-57632851D01*
X251898930Y-57632851D02*
X251937634Y-57594146D01*
X251937634Y-57594146D02*
X252015044Y-57555441D01*
X252015044Y-57555441D02*
X252208568Y-57555441D01*
X252208568Y-57555441D02*
X252285977Y-57594146D01*
X252285977Y-57594146D02*
X252324682Y-57632851D01*
X252324682Y-57632851D02*
X252363387Y-57710260D01*
X252363387Y-57710260D02*
X252363387Y-57903784D01*
X252363387Y-57903784D02*
X252324682Y-57981194D01*
X252324682Y-57981194D02*
X252285977Y-58019899D01*
X252285977Y-58019899D02*
X252208568Y-58058603D01*
X252208568Y-58058603D02*
X252015044Y-58058603D01*
X252015044Y-58058603D02*
X251937634Y-58019899D01*
X251937634Y-58019899D02*
X251898930Y-57981194D01*
X250737786Y-50184603D02*
X250737786Y-49371803D01*
X250737786Y-49371803D02*
X250931310Y-49371803D01*
X250931310Y-49371803D02*
X251047424Y-49410508D01*
X251047424Y-49410508D02*
X251124834Y-49487918D01*
X251124834Y-49487918D02*
X251163539Y-49565327D01*
X251163539Y-49565327D02*
X251202243Y-49720146D01*
X251202243Y-49720146D02*
X251202243Y-49836260D01*
X251202243Y-49836260D02*
X251163539Y-49991079D01*
X251163539Y-49991079D02*
X251124834Y-50068489D01*
X251124834Y-50068489D02*
X251047424Y-50145899D01*
X251047424Y-50145899D02*
X250931310Y-50184603D01*
X250931310Y-50184603D02*
X250737786Y-50184603D01*
X251511882Y-49449213D02*
X251550586Y-49410508D01*
X251550586Y-49410508D02*
X251627996Y-49371803D01*
X251627996Y-49371803D02*
X251821520Y-49371803D01*
X251821520Y-49371803D02*
X251898929Y-49410508D01*
X251898929Y-49410508D02*
X251937634Y-49449213D01*
X251937634Y-49449213D02*
X251976339Y-49526622D01*
X251976339Y-49526622D02*
X251976339Y-49604032D01*
X251976339Y-49604032D02*
X251937634Y-49720146D01*
X251937634Y-49720146D02*
X251473177Y-50184603D01*
X251473177Y-50184603D02*
X251976339Y-50184603D01*
X252750434Y-50184603D02*
X252285977Y-50184603D01*
X252518205Y-50184603D02*
X252518205Y-49371803D01*
X252518205Y-49371803D02*
X252440796Y-49487918D01*
X252440796Y-49487918D02*
X252363386Y-49565327D01*
X252363386Y-49565327D02*
X252285977Y-49604032D01*
D11*
X258026822Y-47901244D02*
X257755889Y-47514197D01*
X257562365Y-47901244D02*
X257562365Y-47088444D01*
X257562365Y-47088444D02*
X257872003Y-47088444D01*
X257872003Y-47088444D02*
X257949413Y-47127149D01*
X257949413Y-47127149D02*
X257988118Y-47165854D01*
X257988118Y-47165854D02*
X258026822Y-47243263D01*
X258026822Y-47243263D02*
X258026822Y-47359378D01*
X258026822Y-47359378D02*
X257988118Y-47436787D01*
X257988118Y-47436787D02*
X257949413Y-47475492D01*
X257949413Y-47475492D02*
X257872003Y-47514197D01*
X257872003Y-47514197D02*
X257562365Y-47514197D01*
X258297756Y-47088444D02*
X258839622Y-47901244D01*
X258839622Y-47088444D02*
X258297756Y-47901244D01*
X259304079Y-47088444D02*
X259381489Y-47088444D01*
X259381489Y-47088444D02*
X259458898Y-47127149D01*
X259458898Y-47127149D02*
X259497603Y-47165854D01*
X259497603Y-47165854D02*
X259536308Y-47243263D01*
X259536308Y-47243263D02*
X259575013Y-47398082D01*
X259575013Y-47398082D02*
X259575013Y-47591606D01*
X259575013Y-47591606D02*
X259536308Y-47746425D01*
X259536308Y-47746425D02*
X259497603Y-47823835D01*
X259497603Y-47823835D02*
X259458898Y-47862540D01*
X259458898Y-47862540D02*
X259381489Y-47901244D01*
X259381489Y-47901244D02*
X259304079Y-47901244D01*
X259304079Y-47901244D02*
X259226670Y-47862540D01*
X259226670Y-47862540D02*
X259187965Y-47823835D01*
X259187965Y-47823835D02*
X259149260Y-47746425D01*
X259149260Y-47746425D02*
X259110556Y-47591606D01*
X259110556Y-47591606D02*
X259110556Y-47398082D01*
X259110556Y-47398082D02*
X259149260Y-47243263D01*
X259149260Y-47243263D02*
X259187965Y-47165854D01*
X259187965Y-47165854D02*
X259226670Y-47127149D01*
X259226670Y-47127149D02*
X259304079Y-47088444D01*
D10*
X201207786Y-50184603D02*
X201207786Y-49371803D01*
X201207786Y-49371803D02*
X201401310Y-49371803D01*
X201401310Y-49371803D02*
X201517424Y-49410508D01*
X201517424Y-49410508D02*
X201594834Y-49487918D01*
X201594834Y-49487918D02*
X201633539Y-49565327D01*
X201633539Y-49565327D02*
X201672243Y-49720146D01*
X201672243Y-49720146D02*
X201672243Y-49836260D01*
X201672243Y-49836260D02*
X201633539Y-49991079D01*
X201633539Y-49991079D02*
X201594834Y-50068489D01*
X201594834Y-50068489D02*
X201517424Y-50145899D01*
X201517424Y-50145899D02*
X201401310Y-50184603D01*
X201401310Y-50184603D02*
X201207786Y-50184603D01*
X201943177Y-49371803D02*
X202446339Y-49371803D01*
X202446339Y-49371803D02*
X202175405Y-49681441D01*
X202175405Y-49681441D02*
X202291520Y-49681441D01*
X202291520Y-49681441D02*
X202368929Y-49720146D01*
X202368929Y-49720146D02*
X202407634Y-49758851D01*
X202407634Y-49758851D02*
X202446339Y-49836260D01*
X202446339Y-49836260D02*
X202446339Y-50029784D01*
X202446339Y-50029784D02*
X202407634Y-50107194D01*
X202407634Y-50107194D02*
X202368929Y-50145899D01*
X202368929Y-50145899D02*
X202291520Y-50184603D01*
X202291520Y-50184603D02*
X202059291Y-50184603D01*
X202059291Y-50184603D02*
X201981882Y-50145899D01*
X201981882Y-50145899D02*
X201943177Y-50107194D01*
X203181729Y-49371803D02*
X202794681Y-49371803D01*
X202794681Y-49371803D02*
X202755977Y-49758851D01*
X202755977Y-49758851D02*
X202794681Y-49720146D01*
X202794681Y-49720146D02*
X202872091Y-49681441D01*
X202872091Y-49681441D02*
X203065615Y-49681441D01*
X203065615Y-49681441D02*
X203143024Y-49720146D01*
X203143024Y-49720146D02*
X203181729Y-49758851D01*
X203181729Y-49758851D02*
X203220434Y-49836260D01*
X203220434Y-49836260D02*
X203220434Y-50029784D01*
X203220434Y-50029784D02*
X203181729Y-50107194D01*
X203181729Y-50107194D02*
X203143024Y-50145899D01*
X203143024Y-50145899D02*
X203065615Y-50184603D01*
X203065615Y-50184603D02*
X202872091Y-50184603D01*
X202872091Y-50184603D02*
X202794681Y-50145899D01*
X202794681Y-50145899D02*
X202755977Y-50107194D01*
D11*
X258280822Y-63141244D02*
X258009889Y-62754197D01*
X257816365Y-63141244D02*
X257816365Y-62328444D01*
X257816365Y-62328444D02*
X258126003Y-62328444D01*
X258126003Y-62328444D02*
X258203413Y-62367149D01*
X258203413Y-62367149D02*
X258242118Y-62405854D01*
X258242118Y-62405854D02*
X258280822Y-62483263D01*
X258280822Y-62483263D02*
X258280822Y-62599378D01*
X258280822Y-62599378D02*
X258242118Y-62676787D01*
X258242118Y-62676787D02*
X258203413Y-62715492D01*
X258203413Y-62715492D02*
X258126003Y-62754197D01*
X258126003Y-62754197D02*
X257816365Y-62754197D01*
X258551756Y-62328444D02*
X259093622Y-63141244D01*
X259093622Y-62328444D02*
X258551756Y-63141244D01*
X259364556Y-62405854D02*
X259403260Y-62367149D01*
X259403260Y-62367149D02*
X259480670Y-62328444D01*
X259480670Y-62328444D02*
X259674194Y-62328444D01*
X259674194Y-62328444D02*
X259751603Y-62367149D01*
X259751603Y-62367149D02*
X259790308Y-62405854D01*
X259790308Y-62405854D02*
X259829013Y-62483263D01*
X259829013Y-62483263D02*
X259829013Y-62560673D01*
X259829013Y-62560673D02*
X259790308Y-62676787D01*
X259790308Y-62676787D02*
X259325851Y-63141244D01*
X259325851Y-63141244D02*
X259829013Y-63141244D01*
X258728346Y-69948444D02*
X259192803Y-69948444D01*
X258960575Y-70761244D02*
X258960575Y-69948444D01*
D10*
X250757139Y-75025803D02*
X251260301Y-75025803D01*
X251260301Y-75025803D02*
X250989367Y-75335441D01*
X250989367Y-75335441D02*
X251105482Y-75335441D01*
X251105482Y-75335441D02*
X251182891Y-75374146D01*
X251182891Y-75374146D02*
X251221596Y-75412851D01*
X251221596Y-75412851D02*
X251260301Y-75490260D01*
X251260301Y-75490260D02*
X251260301Y-75683784D01*
X251260301Y-75683784D02*
X251221596Y-75761194D01*
X251221596Y-75761194D02*
X251182891Y-75799899D01*
X251182891Y-75799899D02*
X251105482Y-75838603D01*
X251105482Y-75838603D02*
X250873253Y-75838603D01*
X250873253Y-75838603D02*
X250795844Y-75799899D01*
X250795844Y-75799899D02*
X250757139Y-75761194D01*
X251531234Y-75296737D02*
X251724758Y-75838603D01*
X251724758Y-75838603D02*
X251918281Y-75296737D01*
X252150510Y-75025803D02*
X252653672Y-75025803D01*
X252653672Y-75025803D02*
X252382738Y-75335441D01*
X252382738Y-75335441D02*
X252498853Y-75335441D01*
X252498853Y-75335441D02*
X252576262Y-75374146D01*
X252576262Y-75374146D02*
X252614967Y-75412851D01*
X252614967Y-75412851D02*
X252653672Y-75490260D01*
X252653672Y-75490260D02*
X252653672Y-75683784D01*
X252653672Y-75683784D02*
X252614967Y-75761194D01*
X252614967Y-75761194D02*
X252576262Y-75799899D01*
X252576262Y-75799899D02*
X252498853Y-75838603D01*
X252498853Y-75838603D02*
X252266624Y-75838603D01*
X252266624Y-75838603D02*
X252189215Y-75799899D01*
X252189215Y-75799899D02*
X252150510Y-75761194D01*
D11*
X195216251Y-62582444D02*
X195680708Y-62582444D01*
X195448480Y-63395244D02*
X195448480Y-62582444D01*
X257954251Y-60042444D02*
X258418708Y-60042444D01*
X258186480Y-60855244D02*
X258186480Y-60042444D01*
X258612232Y-60042444D02*
X259154098Y-60855244D01*
X259154098Y-60042444D02*
X258612232Y-60855244D01*
X259425032Y-60119854D02*
X259463736Y-60081149D01*
X259463736Y-60081149D02*
X259541146Y-60042444D01*
X259541146Y-60042444D02*
X259734670Y-60042444D01*
X259734670Y-60042444D02*
X259812079Y-60081149D01*
X259812079Y-60081149D02*
X259850784Y-60119854D01*
X259850784Y-60119854D02*
X259889489Y-60197263D01*
X259889489Y-60197263D02*
X259889489Y-60274673D01*
X259889489Y-60274673D02*
X259850784Y-60390787D01*
X259850784Y-60390787D02*
X259386327Y-60855244D01*
X259386327Y-60855244D02*
X259889489Y-60855244D01*
D13*
X255190666Y-78404819D02*
X255190666Y-79119104D01*
X255190666Y-79119104D02*
X255143047Y-79261961D01*
X255143047Y-79261961D02*
X255047809Y-79357200D01*
X255047809Y-79357200D02*
X254904952Y-79404819D01*
X254904952Y-79404819D02*
X254809714Y-79404819D01*
X255571619Y-78404819D02*
X256190666Y-78404819D01*
X256190666Y-78404819D02*
X255857333Y-78785771D01*
X255857333Y-78785771D02*
X256000190Y-78785771D01*
X256000190Y-78785771D02*
X256095428Y-78833390D01*
X256095428Y-78833390D02*
X256143047Y-78881009D01*
X256143047Y-78881009D02*
X256190666Y-78976247D01*
X256190666Y-78976247D02*
X256190666Y-79214342D01*
X256190666Y-79214342D02*
X256143047Y-79309580D01*
X256143047Y-79309580D02*
X256095428Y-79357200D01*
X256095428Y-79357200D02*
X256000190Y-79404819D01*
X256000190Y-79404819D02*
X255714476Y-79404819D01*
X255714476Y-79404819D02*
X255619238Y-79357200D01*
X255619238Y-79357200D02*
X255571619Y-79309580D01*
X197786666Y-78150819D02*
X197786666Y-78865104D01*
X197786666Y-78865104D02*
X197739047Y-79007961D01*
X197739047Y-79007961D02*
X197643809Y-79103200D01*
X197643809Y-79103200D02*
X197500952Y-79150819D01*
X197500952Y-79150819D02*
X197405714Y-79150819D01*
X198215238Y-78246057D02*
X198262857Y-78198438D01*
X198262857Y-78198438D02*
X198358095Y-78150819D01*
X198358095Y-78150819D02*
X198596190Y-78150819D01*
X198596190Y-78150819D02*
X198691428Y-78198438D01*
X198691428Y-78198438D02*
X198739047Y-78246057D01*
X198739047Y-78246057D02*
X198786666Y-78341295D01*
X198786666Y-78341295D02*
X198786666Y-78436533D01*
X198786666Y-78436533D02*
X198739047Y-78579390D01*
X198739047Y-78579390D02*
X198167619Y-79150819D01*
X198167619Y-79150819D02*
X198786666Y-79150819D01*
X242024819Y-58245333D02*
X242739104Y-58245333D01*
X242739104Y-58245333D02*
X242881961Y-58292952D01*
X242881961Y-58292952D02*
X242977200Y-58388190D01*
X242977200Y-58388190D02*
X243024819Y-58531047D01*
X243024819Y-58531047D02*
X243024819Y-58626285D01*
X242358152Y-57340571D02*
X243024819Y-57340571D01*
X241977200Y-57578666D02*
X242691485Y-57816761D01*
X242691485Y-57816761D02*
X242691485Y-57197714D01*
X225738095Y-49714819D02*
X225738095Y-50524342D01*
X225738095Y-50524342D02*
X225785714Y-50619580D01*
X225785714Y-50619580D02*
X225833333Y-50667200D01*
X225833333Y-50667200D02*
X225928571Y-50714819D01*
X225928571Y-50714819D02*
X226119047Y-50714819D01*
X226119047Y-50714819D02*
X226214285Y-50667200D01*
X226214285Y-50667200D02*
X226261904Y-50619580D01*
X226261904Y-50619580D02*
X226309523Y-50524342D01*
X226309523Y-50524342D02*
X226309523Y-49714819D01*
X227309523Y-50714819D02*
X226738095Y-50714819D01*
X227023809Y-50714819D02*
X227023809Y-49714819D01*
X227023809Y-49714819D02*
X226928571Y-49857676D01*
X226928571Y-49857676D02*
X226833333Y-49952914D01*
X226833333Y-49952914D02*
X226738095Y-50000533D01*
X216618095Y-79401009D02*
X216951428Y-79401009D01*
X217094285Y-79924819D02*
X216618095Y-79924819D01*
X216618095Y-79924819D02*
X216618095Y-78924819D01*
X216618095Y-78924819D02*
X217094285Y-78924819D01*
X217522857Y-79258152D02*
X217522857Y-79924819D01*
X217522857Y-79353390D02*
X217570476Y-79305771D01*
X217570476Y-79305771D02*
X217665714Y-79258152D01*
X217665714Y-79258152D02*
X217808571Y-79258152D01*
X217808571Y-79258152D02*
X217903809Y-79305771D01*
X217903809Y-79305771D02*
X217951428Y-79401009D01*
X217951428Y-79401009D02*
X217951428Y-79924819D01*
X218856190Y-79924819D02*
X218856190Y-79401009D01*
X218856190Y-79401009D02*
X218808571Y-79305771D01*
X218808571Y-79305771D02*
X218713333Y-79258152D01*
X218713333Y-79258152D02*
X218522857Y-79258152D01*
X218522857Y-79258152D02*
X218427619Y-79305771D01*
X218856190Y-79877200D02*
X218760952Y-79924819D01*
X218760952Y-79924819D02*
X218522857Y-79924819D01*
X218522857Y-79924819D02*
X218427619Y-79877200D01*
X218427619Y-79877200D02*
X218380000Y-79781961D01*
X218380000Y-79781961D02*
X218380000Y-79686723D01*
X218380000Y-79686723D02*
X218427619Y-79591485D01*
X218427619Y-79591485D02*
X218522857Y-79543866D01*
X218522857Y-79543866D02*
X218760952Y-79543866D01*
X218760952Y-79543866D02*
X218856190Y-79496247D01*
X219332381Y-79924819D02*
X219332381Y-78924819D01*
X219332381Y-79305771D02*
X219427619Y-79258152D01*
X219427619Y-79258152D02*
X219618095Y-79258152D01*
X219618095Y-79258152D02*
X219713333Y-79305771D01*
X219713333Y-79305771D02*
X219760952Y-79353390D01*
X219760952Y-79353390D02*
X219808571Y-79448628D01*
X219808571Y-79448628D02*
X219808571Y-79734342D01*
X219808571Y-79734342D02*
X219760952Y-79829580D01*
X219760952Y-79829580D02*
X219713333Y-79877200D01*
X219713333Y-79877200D02*
X219618095Y-79924819D01*
X219618095Y-79924819D02*
X219427619Y-79924819D01*
X219427619Y-79924819D02*
X219332381Y-79877200D01*
X220380000Y-79924819D02*
X220284762Y-79877200D01*
X220284762Y-79877200D02*
X220237143Y-79781961D01*
X220237143Y-79781961D02*
X220237143Y-78924819D01*
X221141905Y-79877200D02*
X221046667Y-79924819D01*
X221046667Y-79924819D02*
X220856191Y-79924819D01*
X220856191Y-79924819D02*
X220760953Y-79877200D01*
X220760953Y-79877200D02*
X220713334Y-79781961D01*
X220713334Y-79781961D02*
X220713334Y-79401009D01*
X220713334Y-79401009D02*
X220760953Y-79305771D01*
X220760953Y-79305771D02*
X220856191Y-79258152D01*
X220856191Y-79258152D02*
X221046667Y-79258152D01*
X221046667Y-79258152D02*
X221141905Y-79305771D01*
X221141905Y-79305771D02*
X221189524Y-79401009D01*
X221189524Y-79401009D02*
X221189524Y-79496247D01*
X221189524Y-79496247D02*
X220713334Y-79591485D01*
X233000952Y-79401009D02*
X233143809Y-79448628D01*
X233143809Y-79448628D02*
X233191428Y-79496247D01*
X233191428Y-79496247D02*
X233239047Y-79591485D01*
X233239047Y-79591485D02*
X233239047Y-79734342D01*
X233239047Y-79734342D02*
X233191428Y-79829580D01*
X233191428Y-79829580D02*
X233143809Y-79877200D01*
X233143809Y-79877200D02*
X233048571Y-79924819D01*
X233048571Y-79924819D02*
X232667619Y-79924819D01*
X232667619Y-79924819D02*
X232667619Y-78924819D01*
X232667619Y-78924819D02*
X233000952Y-78924819D01*
X233000952Y-78924819D02*
X233096190Y-78972438D01*
X233096190Y-78972438D02*
X233143809Y-79020057D01*
X233143809Y-79020057D02*
X233191428Y-79115295D01*
X233191428Y-79115295D02*
X233191428Y-79210533D01*
X233191428Y-79210533D02*
X233143809Y-79305771D01*
X233143809Y-79305771D02*
X233096190Y-79353390D01*
X233096190Y-79353390D02*
X233000952Y-79401009D01*
X233000952Y-79401009D02*
X232667619Y-79401009D01*
X233810476Y-79924819D02*
X233715238Y-79877200D01*
X233715238Y-79877200D02*
X233667619Y-79829580D01*
X233667619Y-79829580D02*
X233620000Y-79734342D01*
X233620000Y-79734342D02*
X233620000Y-79448628D01*
X233620000Y-79448628D02*
X233667619Y-79353390D01*
X233667619Y-79353390D02*
X233715238Y-79305771D01*
X233715238Y-79305771D02*
X233810476Y-79258152D01*
X233810476Y-79258152D02*
X233953333Y-79258152D01*
X233953333Y-79258152D02*
X234048571Y-79305771D01*
X234048571Y-79305771D02*
X234096190Y-79353390D01*
X234096190Y-79353390D02*
X234143809Y-79448628D01*
X234143809Y-79448628D02*
X234143809Y-79734342D01*
X234143809Y-79734342D02*
X234096190Y-79829580D01*
X234096190Y-79829580D02*
X234048571Y-79877200D01*
X234048571Y-79877200D02*
X233953333Y-79924819D01*
X233953333Y-79924819D02*
X233810476Y-79924819D01*
X234715238Y-79924819D02*
X234620000Y-79877200D01*
X234620000Y-79877200D02*
X234572381Y-79829580D01*
X234572381Y-79829580D02*
X234524762Y-79734342D01*
X234524762Y-79734342D02*
X234524762Y-79448628D01*
X234524762Y-79448628D02*
X234572381Y-79353390D01*
X234572381Y-79353390D02*
X234620000Y-79305771D01*
X234620000Y-79305771D02*
X234715238Y-79258152D01*
X234715238Y-79258152D02*
X234858095Y-79258152D01*
X234858095Y-79258152D02*
X234953333Y-79305771D01*
X234953333Y-79305771D02*
X235000952Y-79353390D01*
X235000952Y-79353390D02*
X235048571Y-79448628D01*
X235048571Y-79448628D02*
X235048571Y-79734342D01*
X235048571Y-79734342D02*
X235000952Y-79829580D01*
X235000952Y-79829580D02*
X234953333Y-79877200D01*
X234953333Y-79877200D02*
X234858095Y-79924819D01*
X234858095Y-79924819D02*
X234715238Y-79924819D01*
X235334286Y-79258152D02*
X235715238Y-79258152D01*
X235477143Y-78924819D02*
X235477143Y-79781961D01*
X235477143Y-79781961D02*
X235524762Y-79877200D01*
X235524762Y-79877200D02*
X235620000Y-79924819D01*
X235620000Y-79924819D02*
X235715238Y-79924819D01*
X225238095Y-82734819D02*
X225238095Y-83544342D01*
X225238095Y-83544342D02*
X225285714Y-83639580D01*
X225285714Y-83639580D02*
X225333333Y-83687200D01*
X225333333Y-83687200D02*
X225428571Y-83734819D01*
X225428571Y-83734819D02*
X225619047Y-83734819D01*
X225619047Y-83734819D02*
X225714285Y-83687200D01*
X225714285Y-83687200D02*
X225761904Y-83639580D01*
X225761904Y-83639580D02*
X225809523Y-83544342D01*
X225809523Y-83544342D02*
X225809523Y-82734819D01*
X226238095Y-83687200D02*
X226380952Y-83734819D01*
X226380952Y-83734819D02*
X226619047Y-83734819D01*
X226619047Y-83734819D02*
X226714285Y-83687200D01*
X226714285Y-83687200D02*
X226761904Y-83639580D01*
X226761904Y-83639580D02*
X226809523Y-83544342D01*
X226809523Y-83544342D02*
X226809523Y-83449104D01*
X226809523Y-83449104D02*
X226761904Y-83353866D01*
X226761904Y-83353866D02*
X226714285Y-83306247D01*
X226714285Y-83306247D02*
X226619047Y-83258628D01*
X226619047Y-83258628D02*
X226428571Y-83211009D01*
X226428571Y-83211009D02*
X226333333Y-83163390D01*
X226333333Y-83163390D02*
X226285714Y-83115771D01*
X226285714Y-83115771D02*
X226238095Y-83020533D01*
X226238095Y-83020533D02*
X226238095Y-82925295D01*
X226238095Y-82925295D02*
X226285714Y-82830057D01*
X226285714Y-82830057D02*
X226333333Y-82782438D01*
X226333333Y-82782438D02*
X226428571Y-82734819D01*
X226428571Y-82734819D02*
X226666666Y-82734819D01*
X226666666Y-82734819D02*
X226809523Y-82782438D01*
X227571428Y-83211009D02*
X227714285Y-83258628D01*
X227714285Y-83258628D02*
X227761904Y-83306247D01*
X227761904Y-83306247D02*
X227809523Y-83401485D01*
X227809523Y-83401485D02*
X227809523Y-83544342D01*
X227809523Y-83544342D02*
X227761904Y-83639580D01*
X227761904Y-83639580D02*
X227714285Y-83687200D01*
X227714285Y-83687200D02*
X227619047Y-83734819D01*
X227619047Y-83734819D02*
X227238095Y-83734819D01*
X227238095Y-83734819D02*
X227238095Y-82734819D01*
X227238095Y-82734819D02*
X227571428Y-82734819D01*
X227571428Y-82734819D02*
X227666666Y-82782438D01*
X227666666Y-82782438D02*
X227714285Y-82830057D01*
X227714285Y-82830057D02*
X227761904Y-82925295D01*
X227761904Y-82925295D02*
X227761904Y-83020533D01*
X227761904Y-83020533D02*
X227714285Y-83115771D01*
X227714285Y-83115771D02*
X227666666Y-83163390D01*
X227666666Y-83163390D02*
X227571428Y-83211009D01*
X227571428Y-83211009D02*
X227238095Y-83211009D01*
X201226819Y-82462666D02*
X200750628Y-82795999D01*
X201226819Y-83034094D02*
X200226819Y-83034094D01*
X200226819Y-83034094D02*
X200226819Y-82653142D01*
X200226819Y-82653142D02*
X200274438Y-82557904D01*
X200274438Y-82557904D02*
X200322057Y-82510285D01*
X200322057Y-82510285D02*
X200417295Y-82462666D01*
X200417295Y-82462666D02*
X200560152Y-82462666D01*
X200560152Y-82462666D02*
X200655390Y-82510285D01*
X200655390Y-82510285D02*
X200703009Y-82557904D01*
X200703009Y-82557904D02*
X200750628Y-82653142D01*
X200750628Y-82653142D02*
X200750628Y-83034094D01*
X201226819Y-81510285D02*
X201226819Y-82081713D01*
X201226819Y-81795999D02*
X200226819Y-81795999D01*
X200226819Y-81795999D02*
X200369676Y-81891237D01*
X200369676Y-81891237D02*
X200464914Y-81986475D01*
X200464914Y-81986475D02*
X200512533Y-82081713D01*
X198040666Y-37002819D02*
X198040666Y-37717104D01*
X198040666Y-37717104D02*
X197993047Y-37859961D01*
X197993047Y-37859961D02*
X197897809Y-37955200D01*
X197897809Y-37955200D02*
X197754952Y-38002819D01*
X197754952Y-38002819D02*
X197659714Y-38002819D01*
X199040666Y-38002819D02*
X198469238Y-38002819D01*
X198754952Y-38002819D02*
X198754952Y-37002819D01*
X198754952Y-37002819D02*
X198659714Y-37145676D01*
X198659714Y-37145676D02*
X198564476Y-37240914D01*
X198564476Y-37240914D02*
X198469238Y-37288533D01*
X254088819Y-82208666D02*
X253612628Y-82541999D01*
X254088819Y-82780094D02*
X253088819Y-82780094D01*
X253088819Y-82780094D02*
X253088819Y-82399142D01*
X253088819Y-82399142D02*
X253136438Y-82303904D01*
X253136438Y-82303904D02*
X253184057Y-82256285D01*
X253184057Y-82256285D02*
X253279295Y-82208666D01*
X253279295Y-82208666D02*
X253422152Y-82208666D01*
X253422152Y-82208666D02*
X253517390Y-82256285D01*
X253517390Y-82256285D02*
X253565009Y-82303904D01*
X253565009Y-82303904D02*
X253612628Y-82399142D01*
X253612628Y-82399142D02*
X253612628Y-82780094D01*
X253184057Y-81827713D02*
X253136438Y-81780094D01*
X253136438Y-81780094D02*
X253088819Y-81684856D01*
X253088819Y-81684856D02*
X253088819Y-81446761D01*
X253088819Y-81446761D02*
X253136438Y-81351523D01*
X253136438Y-81351523D02*
X253184057Y-81303904D01*
X253184057Y-81303904D02*
X253279295Y-81256285D01*
X253279295Y-81256285D02*
X253374533Y-81256285D01*
X253374533Y-81256285D02*
X253517390Y-81303904D01*
X253517390Y-81303904D02*
X254088819Y-81875332D01*
X254088819Y-81875332D02*
X254088819Y-81256285D01*
X207282905Y-78028819D02*
X207282905Y-77028819D01*
X207282905Y-77028819D02*
X207521000Y-77028819D01*
X207521000Y-77028819D02*
X207663857Y-77076438D01*
X207663857Y-77076438D02*
X207759095Y-77171676D01*
X207759095Y-77171676D02*
X207806714Y-77266914D01*
X207806714Y-77266914D02*
X207854333Y-77457390D01*
X207854333Y-77457390D02*
X207854333Y-77600247D01*
X207854333Y-77600247D02*
X207806714Y-77790723D01*
X207806714Y-77790723D02*
X207759095Y-77885961D01*
X207759095Y-77885961D02*
X207663857Y-77981200D01*
X207663857Y-77981200D02*
X207521000Y-78028819D01*
X207521000Y-78028819D02*
X207282905Y-78028819D01*
X208806714Y-78028819D02*
X208235286Y-78028819D01*
X208521000Y-78028819D02*
X208521000Y-77028819D01*
X208521000Y-77028819D02*
X208425762Y-77171676D01*
X208425762Y-77171676D02*
X208330524Y-77266914D01*
X208330524Y-77266914D02*
X208235286Y-77314533D01*
X211346819Y-57991333D02*
X212061104Y-57991333D01*
X212061104Y-57991333D02*
X212203961Y-58038952D01*
X212203961Y-58038952D02*
X212299200Y-58134190D01*
X212299200Y-58134190D02*
X212346819Y-58277047D01*
X212346819Y-58277047D02*
X212346819Y-58372285D01*
X211346819Y-57038952D02*
X211346819Y-57515142D01*
X211346819Y-57515142D02*
X211823009Y-57562761D01*
X211823009Y-57562761D02*
X211775390Y-57515142D01*
X211775390Y-57515142D02*
X211727771Y-57419904D01*
X211727771Y-57419904D02*
X211727771Y-57181809D01*
X211727771Y-57181809D02*
X211775390Y-57086571D01*
X211775390Y-57086571D02*
X211823009Y-57038952D01*
X211823009Y-57038952D02*
X211918247Y-56991333D01*
X211918247Y-56991333D02*
X212156342Y-56991333D01*
X212156342Y-56991333D02*
X212251580Y-57038952D01*
X212251580Y-57038952D02*
X212299200Y-57086571D01*
X212299200Y-57086571D02*
X212346819Y-57181809D01*
X212346819Y-57181809D02*
X212346819Y-57419904D01*
X212346819Y-57419904D02*
X212299200Y-57515142D01*
X212299200Y-57515142D02*
X212251580Y-57562761D01*
X246180905Y-86264819D02*
X246180905Y-85264819D01*
X246180905Y-85264819D02*
X246419000Y-85264819D01*
X246419000Y-85264819D02*
X246561857Y-85312438D01*
X246561857Y-85312438D02*
X246657095Y-85407676D01*
X246657095Y-85407676D02*
X246704714Y-85502914D01*
X246704714Y-85502914D02*
X246752333Y-85693390D01*
X246752333Y-85693390D02*
X246752333Y-85836247D01*
X246752333Y-85836247D02*
X246704714Y-86026723D01*
X246704714Y-86026723D02*
X246657095Y-86121961D01*
X246657095Y-86121961D02*
X246561857Y-86217200D01*
X246561857Y-86217200D02*
X246419000Y-86264819D01*
X246419000Y-86264819D02*
X246180905Y-86264819D01*
X247133286Y-85360057D02*
X247180905Y-85312438D01*
X247180905Y-85312438D02*
X247276143Y-85264819D01*
X247276143Y-85264819D02*
X247514238Y-85264819D01*
X247514238Y-85264819D02*
X247609476Y-85312438D01*
X247609476Y-85312438D02*
X247657095Y-85360057D01*
X247657095Y-85360057D02*
X247704714Y-85455295D01*
X247704714Y-85455295D02*
X247704714Y-85550533D01*
X247704714Y-85550533D02*
X247657095Y-85693390D01*
X247657095Y-85693390D02*
X247085667Y-86264819D01*
X247085667Y-86264819D02*
X247704714Y-86264819D01*
X255190666Y-37256819D02*
X255190666Y-37971104D01*
X255190666Y-37971104D02*
X255143047Y-38113961D01*
X255143047Y-38113961D02*
X255047809Y-38209200D01*
X255047809Y-38209200D02*
X254904952Y-38256819D01*
X254904952Y-38256819D02*
X254809714Y-38256819D01*
X256095428Y-37256819D02*
X255904952Y-37256819D01*
X255904952Y-37256819D02*
X255809714Y-37304438D01*
X255809714Y-37304438D02*
X255762095Y-37352057D01*
X255762095Y-37352057D02*
X255666857Y-37494914D01*
X255666857Y-37494914D02*
X255619238Y-37685390D01*
X255619238Y-37685390D02*
X255619238Y-38066342D01*
X255619238Y-38066342D02*
X255666857Y-38161580D01*
X255666857Y-38161580D02*
X255714476Y-38209200D01*
X255714476Y-38209200D02*
X255809714Y-38256819D01*
X255809714Y-38256819D02*
X256000190Y-38256819D01*
X256000190Y-38256819D02*
X256095428Y-38209200D01*
X256095428Y-38209200D02*
X256143047Y-38161580D01*
X256143047Y-38161580D02*
X256190666Y-38066342D01*
X256190666Y-38066342D02*
X256190666Y-37828247D01*
X256190666Y-37828247D02*
X256143047Y-37733009D01*
X256143047Y-37733009D02*
X256095428Y-37685390D01*
X256095428Y-37685390D02*
X256000190Y-37637771D01*
X256000190Y-37637771D02*
X255809714Y-37637771D01*
X255809714Y-37637771D02*
X255714476Y-37685390D01*
X255714476Y-37685390D02*
X255666857Y-37733009D01*
X255666857Y-37733009D02*
X255619238Y-37828247D01*
D14*
%TO.C,J3*%
X254194000Y-79950000D02*
X255524000Y-79950000D01*
X254194000Y-81280000D02*
X254194000Y-79950000D01*
X254194000Y-82550000D02*
X254194000Y-82610000D01*
X254194000Y-82550000D02*
X256854000Y-82550000D01*
X254194000Y-82610000D02*
X256854000Y-82610000D01*
X256854000Y-82550000D02*
X256854000Y-82610000D01*
%TO.C,J2*%
X196790000Y-79696000D02*
X198120000Y-79696000D01*
X196790000Y-81026000D02*
X196790000Y-79696000D01*
X196790000Y-82296000D02*
X196790000Y-82356000D01*
X196790000Y-82296000D02*
X199450000Y-82296000D01*
X196790000Y-82356000D02*
X199450000Y-82356000D01*
X199450000Y-82296000D02*
X199450000Y-82356000D01*
%TO.C,J4*%
X243644000Y-38498000D02*
X243644000Y-76818000D01*
X243644000Y-39878000D02*
X244644000Y-39878000D01*
X243644000Y-40128000D02*
X244644000Y-40128000D01*
X243644000Y-75188000D02*
X244644000Y-75188000D01*
X243644000Y-75438000D02*
X244644000Y-75438000D01*
X243644000Y-76818000D02*
X249664000Y-76818000D01*
X244644000Y-39878000D02*
X244644000Y-44958000D01*
X244644000Y-39878000D02*
X245174000Y-40128000D01*
X244644000Y-44958000D02*
X243644000Y-44958000D01*
X244644000Y-70358000D02*
X243644000Y-70358000D01*
X244644000Y-75438000D02*
X244644000Y-70358000D01*
X244644000Y-75438000D02*
X245174000Y-75188000D01*
X245174000Y-40128000D02*
X245174000Y-44958000D01*
X245174000Y-44958000D02*
X244644000Y-44958000D01*
X245174000Y-70358000D02*
X244644000Y-70358000D01*
X245174000Y-75188000D02*
X245174000Y-70358000D01*
X248634000Y-38208000D02*
X244634000Y-38208000D01*
X249064000Y-39078000D02*
X249064000Y-40678000D01*
X249064000Y-40678000D02*
X249664000Y-40678000D01*
X249064000Y-41618000D02*
X249064000Y-43218000D01*
X249064000Y-43218000D02*
X249664000Y-43218000D01*
X249064000Y-44158000D02*
X249064000Y-45758000D01*
X249064000Y-45758000D02*
X249664000Y-45758000D01*
X249064000Y-46698000D02*
X249064000Y-48298000D01*
X249064000Y-48298000D02*
X249664000Y-48298000D01*
X249064000Y-49238000D02*
X249064000Y-50838000D01*
X249064000Y-50838000D02*
X249664000Y-50838000D01*
X249064000Y-51778000D02*
X249064000Y-53378000D01*
X249064000Y-53378000D02*
X249664000Y-53378000D01*
X249064000Y-54318000D02*
X249064000Y-55918000D01*
X249064000Y-55918000D02*
X249664000Y-55918000D01*
X249064000Y-56858000D02*
X249064000Y-58458000D01*
X249064000Y-58458000D02*
X249664000Y-58458000D01*
X249064000Y-59398000D02*
X249064000Y-60998000D01*
X249064000Y-60998000D02*
X249664000Y-60998000D01*
X249064000Y-61938000D02*
X249064000Y-63538000D01*
X249064000Y-63538000D02*
X249664000Y-63538000D01*
X249064000Y-64478000D02*
X249064000Y-66078000D01*
X249064000Y-66078000D02*
X249664000Y-66078000D01*
X249064000Y-67018000D02*
X249064000Y-68618000D01*
X249064000Y-68618000D02*
X249664000Y-68618000D01*
X249064000Y-69558000D02*
X249064000Y-71158000D01*
X249064000Y-71158000D02*
X249664000Y-71158000D01*
X249064000Y-72098000D02*
X249064000Y-73698000D01*
X249064000Y-73698000D02*
X249664000Y-73698000D01*
X249064000Y-74638000D02*
X249064000Y-76238000D01*
X249064000Y-76238000D02*
X249664000Y-76238000D01*
X249664000Y-38498000D02*
X243644000Y-38498000D01*
X249664000Y-39078000D02*
X249064000Y-39078000D01*
X249664000Y-41618000D02*
X249064000Y-41618000D01*
X249664000Y-44158000D02*
X249064000Y-44158000D01*
X249664000Y-46698000D02*
X249064000Y-46698000D01*
X249664000Y-49238000D02*
X249064000Y-49238000D01*
X249664000Y-51778000D02*
X249064000Y-51778000D01*
X249664000Y-54318000D02*
X249064000Y-54318000D01*
X249664000Y-56858000D02*
X249064000Y-56858000D01*
X249664000Y-59398000D02*
X249064000Y-59398000D01*
X249664000Y-61938000D02*
X249064000Y-61938000D01*
X249664000Y-64478000D02*
X249064000Y-64478000D01*
X249664000Y-67018000D02*
X249064000Y-67018000D01*
X249664000Y-69558000D02*
X249064000Y-69558000D01*
X249664000Y-72098000D02*
X249064000Y-72098000D01*
X249664000Y-74638000D02*
X249064000Y-74638000D01*
X249664000Y-76818000D02*
X249664000Y-38498000D01*
%TO.C,U1*%
X212500000Y-35750000D02*
X212500000Y-83250000D01*
X214500000Y-33750000D02*
X238500000Y-33750000D01*
X214500000Y-85250000D02*
X238500000Y-85250000D01*
X217610000Y-35020000D02*
X235390000Y-35020000D01*
X217610000Y-40100000D02*
X217610000Y-35020000D01*
X217610000Y-80740000D02*
X220150000Y-80740000D01*
X217610000Y-84550000D02*
X217610000Y-80740000D01*
X218880000Y-35782000D02*
X221420000Y-35782000D01*
X218880000Y-39338000D02*
X218880000Y-35782000D01*
X219000000Y-40750000D02*
X234000000Y-40750000D01*
X219000000Y-58750000D02*
X219000000Y-40750000D01*
X220150000Y-80740000D02*
X220150000Y-84550000D01*
X220150000Y-84550000D02*
X217610000Y-84550000D01*
X221420000Y-35782000D02*
X221420000Y-37814000D01*
X221420000Y-37814000D02*
X223960000Y-37814000D01*
X222500000Y-79250000D02*
X222500000Y-85250000D01*
X222500000Y-79250000D02*
X230500000Y-79250000D01*
X223960000Y-35782000D02*
X226500000Y-35782000D01*
X223960000Y-37814000D02*
X223960000Y-35782000D01*
X226500000Y-35782000D02*
X226500000Y-37814000D01*
X226500000Y-37814000D02*
X229040000Y-37814000D01*
X229040000Y-35782000D02*
X234120000Y-35782000D01*
X229040000Y-37814000D02*
X229040000Y-35782000D01*
X230500000Y-79250000D02*
X230500000Y-85250000D01*
X231580000Y-35782000D02*
X231580000Y-39338000D01*
X232850000Y-80740000D02*
X235390000Y-80740000D01*
X232850000Y-84550000D02*
X232850000Y-80740000D01*
X234000000Y-40750000D02*
X234000000Y-58750000D01*
X234000000Y-58750000D02*
X219000000Y-58750000D01*
X234120000Y-35782000D02*
X234120000Y-39338000D01*
X235390000Y-35020000D02*
X235390000Y-40100000D01*
X235390000Y-40100000D02*
X217610000Y-40100000D01*
X235390000Y-80740000D02*
X235390000Y-84550000D01*
X235390000Y-84550000D02*
X232850000Y-84550000D01*
X240500000Y-83250000D02*
X240500000Y-35750000D01*
X212500000Y-35750000D02*
G75*
G02*
X214500000Y-33750000I1999999J1D01*
G01*
X214500000Y-85250000D02*
G75*
G02*
X212500000Y-83250000I-1J1999999D01*
G01*
X238500000Y-33750000D02*
G75*
G02*
X240500000Y-35750000I0J-2000000D01*
G01*
X240500000Y-83250000D02*
G75*
G02*
X238500000Y-85250000I-2000000J0D01*
G01*
X216300000Y-35750000D02*
G75*
G02*
X213300000Y-35750000I-1500000J0D01*
G01*
X213300000Y-35750000D02*
G75*
G02*
X216300000Y-35750000I1500000J0D01*
G01*
X216300000Y-83250000D02*
G75*
G02*
X213300000Y-83250000I-1500000J0D01*
G01*
X213300000Y-83250000D02*
G75*
G02*
X216300000Y-83250000I1500000J0D01*
G01*
D15*
X219180000Y-82645000D02*
G75*
G02*
X218580000Y-82645000I-300000J0D01*
G01*
X218580000Y-82645000D02*
G75*
G02*
X219180000Y-82645000I300000J0D01*
G01*
D16*
X221820000Y-56610000D02*
G75*
G02*
X221020000Y-56610000I-400000J0D01*
G01*
X221020000Y-56610000D02*
G75*
G02*
X221820000Y-56610000I400000J0D01*
G01*
D15*
X234420000Y-82645000D02*
G75*
G02*
X233820000Y-82645000I-300000J0D01*
G01*
X233820000Y-82645000D02*
G75*
G02*
X234420000Y-82645000I300000J0D01*
G01*
D14*
X239700000Y-35750000D02*
G75*
G02*
X236700000Y-35750000I-1500000J0D01*
G01*
X236700000Y-35750000D02*
G75*
G02*
X239700000Y-35750000I1500000J0D01*
G01*
X239700000Y-83250000D02*
G75*
G02*
X236700000Y-83250000I-1500000J0D01*
G01*
X236700000Y-83250000D02*
G75*
G02*
X239700000Y-83250000I1500000J0D01*
G01*
%TO.C,R1*%
X201772000Y-80376000D02*
X201772000Y-84216000D01*
X201772000Y-84216000D02*
X203612000Y-84216000D01*
X202692000Y-79426000D02*
X202692000Y-80376000D01*
X202692000Y-85166000D02*
X202692000Y-84216000D01*
X203612000Y-80376000D02*
X201772000Y-80376000D01*
X203612000Y-84216000D02*
X203612000Y-80376000D01*
%TO.C,J1*%
X197044000Y-38548000D02*
X198374000Y-38548000D01*
X197044000Y-39878000D02*
X197044000Y-38548000D01*
X197044000Y-41148000D02*
X197044000Y-76768000D01*
X197044000Y-41148000D02*
X199704000Y-41148000D01*
X197044000Y-76768000D02*
X199704000Y-76768000D01*
X199704000Y-41148000D02*
X199704000Y-76768000D01*
%TO.C,R2*%
X250794000Y-80122000D02*
X250794000Y-83962000D01*
X250794000Y-83962000D02*
X252634000Y-83962000D01*
X251714000Y-79172000D02*
X251714000Y-80122000D01*
X251714000Y-84912000D02*
X251714000Y-83962000D01*
X252634000Y-80122000D02*
X250794000Y-80122000D01*
X252634000Y-83962000D02*
X252634000Y-80122000D01*
%TO.C,D1*%
X205461000Y-79989000D02*
X205461000Y-83079000D01*
X205461000Y-79989170D02*
G75*
G02*
X211011000Y-81533952I2560000J-1544830D01*
G01*
X211011000Y-81534048D02*
G75*
G02*
X205461000Y-83078830I-2990000J48D01*
G01*
X210521000Y-81534000D02*
G75*
G02*
X205521000Y-81534000I-2500000J0D01*
G01*
X205521000Y-81534000D02*
G75*
G02*
X210521000Y-81534000I2500000J0D01*
G01*
%TO.C,J5*%
X204782000Y-38498000D02*
X204782000Y-76818000D01*
X204782000Y-39878000D02*
X205782000Y-39878000D01*
X204782000Y-40128000D02*
X205782000Y-40128000D01*
X204782000Y-75188000D02*
X205782000Y-75188000D01*
X204782000Y-75438000D02*
X205782000Y-75438000D01*
X204782000Y-76818000D02*
X210802000Y-76818000D01*
X205782000Y-39878000D02*
X205782000Y-44958000D01*
X205782000Y-39878000D02*
X206312000Y-40128000D01*
X205782000Y-44958000D02*
X204782000Y-44958000D01*
X205782000Y-70358000D02*
X204782000Y-70358000D01*
X205782000Y-75438000D02*
X205782000Y-70358000D01*
X205782000Y-75438000D02*
X206312000Y-75188000D01*
X206312000Y-40128000D02*
X206312000Y-44958000D01*
X206312000Y-44958000D02*
X205782000Y-44958000D01*
X206312000Y-70358000D02*
X205782000Y-70358000D01*
X206312000Y-75188000D02*
X206312000Y-70358000D01*
X209772000Y-38208000D02*
X205772000Y-38208000D01*
X210202000Y-39078000D02*
X210202000Y-40678000D01*
X210202000Y-40678000D02*
X210802000Y-40678000D01*
X210202000Y-41618000D02*
X210202000Y-43218000D01*
X210202000Y-43218000D02*
X210802000Y-43218000D01*
X210202000Y-44158000D02*
X210202000Y-45758000D01*
X210202000Y-45758000D02*
X210802000Y-45758000D01*
X210202000Y-46698000D02*
X210202000Y-48298000D01*
X210202000Y-48298000D02*
X210802000Y-48298000D01*
X210202000Y-49238000D02*
X210202000Y-50838000D01*
X210202000Y-50838000D02*
X210802000Y-50838000D01*
X210202000Y-51778000D02*
X210202000Y-53378000D01*
X210202000Y-53378000D02*
X210802000Y-53378000D01*
X210202000Y-54318000D02*
X210202000Y-55918000D01*
X210202000Y-55918000D02*
X210802000Y-55918000D01*
X210202000Y-56858000D02*
X210202000Y-58458000D01*
X210202000Y-58458000D02*
X210802000Y-58458000D01*
X210202000Y-59398000D02*
X210202000Y-60998000D01*
X210202000Y-60998000D02*
X210802000Y-60998000D01*
X210202000Y-61938000D02*
X210202000Y-63538000D01*
X210202000Y-63538000D02*
X210802000Y-63538000D01*
X210202000Y-64478000D02*
X210202000Y-66078000D01*
X210202000Y-66078000D02*
X210802000Y-66078000D01*
X210202000Y-67018000D02*
X210202000Y-68618000D01*
X210202000Y-68618000D02*
X210802000Y-68618000D01*
X210202000Y-69558000D02*
X210202000Y-71158000D01*
X210202000Y-71158000D02*
X210802000Y-71158000D01*
X210202000Y-72098000D02*
X210202000Y-73698000D01*
X210202000Y-73698000D02*
X210802000Y-73698000D01*
X210202000Y-74638000D02*
X210202000Y-76238000D01*
X210202000Y-76238000D02*
X210802000Y-76238000D01*
X210802000Y-38498000D02*
X204782000Y-38498000D01*
X210802000Y-39078000D02*
X210202000Y-39078000D01*
X210802000Y-41618000D02*
X210202000Y-41618000D01*
X210802000Y-44158000D02*
X210202000Y-44158000D01*
X210802000Y-46698000D02*
X210202000Y-46698000D01*
X210802000Y-49238000D02*
X210202000Y-49238000D01*
X210802000Y-51778000D02*
X210202000Y-51778000D01*
X210802000Y-54318000D02*
X210202000Y-54318000D01*
X210802000Y-56858000D02*
X210202000Y-56858000D01*
X210802000Y-59398000D02*
X210202000Y-59398000D01*
X210802000Y-61938000D02*
X210202000Y-61938000D01*
X210802000Y-64478000D02*
X210202000Y-64478000D01*
X210802000Y-67018000D02*
X210202000Y-67018000D01*
X210802000Y-69558000D02*
X210202000Y-69558000D01*
X210802000Y-72098000D02*
X210202000Y-72098000D01*
X210802000Y-74638000D02*
X210202000Y-74638000D01*
X210802000Y-76818000D02*
X210802000Y-38498000D01*
%TO.C,D2*%
X249448000Y-82825000D02*
X249448000Y-79735000D01*
X243898000Y-81279952D02*
G75*
G02*
X249448000Y-79735170I2990000J-48D01*
G01*
X249448000Y-82824830D02*
G75*
G02*
X243898000Y-81280048I-2560000J1544830D01*
G01*
X249388000Y-81280000D02*
G75*
G02*
X244388000Y-81280000I-2500000J0D01*
G01*
X244388000Y-81280000D02*
G75*
G02*
X249388000Y-81280000I2500000J0D01*
G01*
%TO.C,J6*%
X254194000Y-38802000D02*
X255524000Y-38802000D01*
X254194000Y-40132000D02*
X254194000Y-38802000D01*
X254194000Y-41402000D02*
X254194000Y-77022000D01*
X254194000Y-41402000D02*
X256854000Y-41402000D01*
X254194000Y-77022000D02*
X256854000Y-77022000D01*
X256854000Y-41402000D02*
X256854000Y-77022000D01*
%TD*%
%LPC*%
D17*
%TO.C,J3*%
X255524000Y-81280000D03*
%TD*%
%TO.C,J2*%
X198120000Y-81026000D03*
%TD*%
D18*
%TO.C,J4*%
X246634000Y-39878000D03*
D19*
X246634000Y-42418000D03*
X246634000Y-44958000D03*
X246634000Y-47498000D03*
X246634000Y-50038000D03*
X246634000Y-52578000D03*
X246634000Y-55118000D03*
X246634000Y-57658000D03*
X246634000Y-60198000D03*
X246634000Y-62738000D03*
X246634000Y-65278000D03*
X246634000Y-67818000D03*
X246634000Y-70358000D03*
X246634000Y-72898000D03*
X246634000Y-75438000D03*
%TD*%
D20*
%TO.C,U1*%
X213800000Y-39790000D03*
X213800000Y-42330000D03*
X213800000Y-44870000D03*
X213800000Y-47410000D03*
X213800000Y-49950000D03*
X213800000Y-52490000D03*
X213800000Y-55030000D03*
X213800000Y-57570000D03*
X213800000Y-60110000D03*
X213800000Y-62650000D03*
X213800000Y-65190000D03*
X213800000Y-67730000D03*
X213800000Y-70270000D03*
X213800000Y-72810000D03*
X213800000Y-75350000D03*
X239200000Y-75350000D03*
X239200000Y-72810000D03*
X239200000Y-70270000D03*
X239200000Y-67730000D03*
X239200000Y-65190000D03*
X239200000Y-62650000D03*
X239200000Y-60110000D03*
X239200000Y-57570000D03*
X239200000Y-55030000D03*
X239200000Y-52490000D03*
X239200000Y-49950000D03*
X239200000Y-47410000D03*
X239200000Y-44870000D03*
X239200000Y-42330000D03*
X239200000Y-39790000D03*
%TD*%
D21*
%TO.C,R1*%
X202692000Y-86106000D03*
D22*
X202692000Y-78486000D03*
%TD*%
D17*
%TO.C,J1*%
X198374000Y-39878000D03*
D23*
X198374000Y-42418000D03*
X198374000Y-44958000D03*
X198374000Y-47498000D03*
X198374000Y-50038000D03*
X198374000Y-52578000D03*
X198374000Y-55118000D03*
X198374000Y-57658000D03*
X198374000Y-60198000D03*
X198374000Y-62738000D03*
X198374000Y-65278000D03*
X198374000Y-67818000D03*
X198374000Y-70358000D03*
X198374000Y-72898000D03*
X198374000Y-75438000D03*
%TD*%
D21*
%TO.C,R2*%
X251714000Y-78232000D03*
D22*
X251714000Y-85852000D03*
%TD*%
D24*
%TO.C,D1*%
X206751000Y-81534000D03*
D25*
X209291000Y-81534000D03*
%TD*%
D18*
%TO.C,J5*%
X207772000Y-39878000D03*
D19*
X207772000Y-42418000D03*
X207772000Y-44958000D03*
X207772000Y-47498000D03*
X207772000Y-50038000D03*
X207772000Y-52578000D03*
X207772000Y-55118000D03*
X207772000Y-57658000D03*
X207772000Y-60198000D03*
X207772000Y-62738000D03*
X207772000Y-65278000D03*
X207772000Y-67818000D03*
X207772000Y-70358000D03*
X207772000Y-72898000D03*
X207772000Y-75438000D03*
%TD*%
D24*
%TO.C,D2*%
X248158000Y-81280000D03*
D25*
X245618000Y-81280000D03*
%TD*%
D17*
%TO.C,J6*%
X255524000Y-40132000D03*
D23*
X255524000Y-42672000D03*
X255524000Y-45212000D03*
X255524000Y-47752000D03*
X255524000Y-50292000D03*
X255524000Y-52832000D03*
X255524000Y-55372000D03*
X255524000Y-57912000D03*
X255524000Y-60452000D03*
X255524000Y-62992000D03*
X255524000Y-65532000D03*
X255524000Y-68072000D03*
X255524000Y-70612000D03*
X255524000Y-73152000D03*
X255524000Y-75692000D03*
%TD*%
%LPD*%
M02*
