%TF.GenerationSoftware,KiCad,Pcbnew,8.0.7*%
%TF.CreationDate,2025-01-22T20:40:04+05:30*%
%TF.ProjectId,Esp_Test,4573705f-5465-4737-942e-6b696361645f,rev?*%
%TF.SameCoordinates,Original*%
%TF.FileFunction,Soldermask,Bot*%
%TF.FilePolarity,Negative*%
%FSLAX46Y46*%
G04 Gerber Fmt 4.6, Leading zero omitted, Abs format (unit mm)*
G04 Created by KiCad (PCBNEW 8.0.7) date 2025-01-22 20:40:04*
%MOMM*%
%LPD*%
G01*
G04 APERTURE LIST*
G04 APERTURE END LIST*
G36*
X202733933Y-85411104D02*
G01*
X202776376Y-85411104D01*
X202812119Y-85419914D01*
X202847680Y-85423921D01*
X202893679Y-85440017D01*
X202940223Y-85451489D01*
X202967745Y-85465933D01*
X202995553Y-85475664D01*
X203042549Y-85505193D01*
X203089645Y-85529911D01*
X203108568Y-85546675D01*
X203128205Y-85559014D01*
X203172541Y-85603350D01*
X203215958Y-85641814D01*
X203226994Y-85657803D01*
X203238985Y-85669794D01*
X203276680Y-85729786D01*
X203311819Y-85780694D01*
X203316617Y-85793346D01*
X203322335Y-85802446D01*
X203349370Y-85879710D01*
X203371659Y-85938479D01*
X203372575Y-85946024D01*
X203374078Y-85950319D01*
X203386723Y-86062543D01*
X203392000Y-86106000D01*
X203386722Y-86149459D01*
X203374078Y-86261680D01*
X203372575Y-86265974D01*
X203371659Y-86273521D01*
X203349366Y-86332301D01*
X203322335Y-86409553D01*
X203316618Y-86418650D01*
X203311819Y-86431306D01*
X203276673Y-86482223D01*
X203238985Y-86542205D01*
X203226997Y-86554192D01*
X203215958Y-86570186D01*
X203172532Y-86608657D01*
X203128205Y-86652985D01*
X203108572Y-86665320D01*
X203089645Y-86682089D01*
X203042540Y-86706811D01*
X202995553Y-86736335D01*
X202967750Y-86746063D01*
X202940223Y-86760511D01*
X202893670Y-86771985D01*
X202847680Y-86788078D01*
X202812126Y-86792084D01*
X202776376Y-86800896D01*
X202733924Y-86800896D01*
X202692000Y-86805620D01*
X202650076Y-86800896D01*
X202607624Y-86800896D01*
X202571873Y-86792084D01*
X202536319Y-86788078D01*
X202490326Y-86771984D01*
X202443777Y-86760511D01*
X202416251Y-86746064D01*
X202388446Y-86736335D01*
X202341453Y-86706808D01*
X202294355Y-86682089D01*
X202275430Y-86665323D01*
X202255794Y-86652985D01*
X202211458Y-86608649D01*
X202168042Y-86570186D01*
X202157005Y-86554196D01*
X202145014Y-86542205D01*
X202107315Y-86482207D01*
X202072181Y-86431306D01*
X202067383Y-86418654D01*
X202061664Y-86409553D01*
X202034620Y-86332267D01*
X202012341Y-86273521D01*
X202011425Y-86265978D01*
X202009921Y-86261680D01*
X201997263Y-86149345D01*
X201992000Y-86106000D01*
X201997262Y-86062658D01*
X202009921Y-85950319D01*
X202011425Y-85946019D01*
X202012341Y-85938479D01*
X202034616Y-85879744D01*
X202061664Y-85802446D01*
X202067384Y-85793342D01*
X202072181Y-85780694D01*
X202107308Y-85729802D01*
X202145014Y-85669794D01*
X202157007Y-85657800D01*
X202168042Y-85641814D01*
X202211449Y-85603358D01*
X202255794Y-85559014D01*
X202275433Y-85546673D01*
X202294355Y-85529911D01*
X202341444Y-85505196D01*
X202388446Y-85475664D01*
X202416256Y-85465932D01*
X202443777Y-85451489D01*
X202490316Y-85440017D01*
X202536319Y-85423921D01*
X202571881Y-85419913D01*
X202607624Y-85411104D01*
X202650067Y-85411104D01*
X202692000Y-85406379D01*
X202733933Y-85411104D01*
G37*
G36*
X251755933Y-85157104D02*
G01*
X251798376Y-85157104D01*
X251834119Y-85165914D01*
X251869680Y-85169921D01*
X251915679Y-85186017D01*
X251962223Y-85197489D01*
X251989745Y-85211933D01*
X252017553Y-85221664D01*
X252064549Y-85251193D01*
X252111645Y-85275911D01*
X252130568Y-85292675D01*
X252150205Y-85305014D01*
X252194541Y-85349350D01*
X252237958Y-85387814D01*
X252248994Y-85403803D01*
X252260985Y-85415794D01*
X252298680Y-85475786D01*
X252333819Y-85526694D01*
X252338617Y-85539346D01*
X252344335Y-85548446D01*
X252371370Y-85625710D01*
X252393659Y-85684479D01*
X252394575Y-85692024D01*
X252396078Y-85696319D01*
X252408723Y-85808543D01*
X252414000Y-85852000D01*
X252408722Y-85895459D01*
X252396078Y-86007680D01*
X252394575Y-86011974D01*
X252393659Y-86019521D01*
X252371366Y-86078301D01*
X252344335Y-86155553D01*
X252338618Y-86164650D01*
X252333819Y-86177306D01*
X252298673Y-86228223D01*
X252260985Y-86288205D01*
X252248997Y-86300192D01*
X252237958Y-86316186D01*
X252194532Y-86354657D01*
X252150205Y-86398985D01*
X252130572Y-86411320D01*
X252111645Y-86428089D01*
X252064540Y-86452811D01*
X252017553Y-86482335D01*
X251989750Y-86492063D01*
X251962223Y-86506511D01*
X251915670Y-86517985D01*
X251869680Y-86534078D01*
X251834126Y-86538084D01*
X251798376Y-86546896D01*
X251755924Y-86546896D01*
X251714000Y-86551620D01*
X251672076Y-86546896D01*
X251629624Y-86546896D01*
X251593873Y-86538084D01*
X251558319Y-86534078D01*
X251512326Y-86517984D01*
X251465777Y-86506511D01*
X251438251Y-86492064D01*
X251410446Y-86482335D01*
X251363453Y-86452808D01*
X251316355Y-86428089D01*
X251297430Y-86411323D01*
X251277794Y-86398985D01*
X251233458Y-86354649D01*
X251190042Y-86316186D01*
X251179005Y-86300196D01*
X251167014Y-86288205D01*
X251129315Y-86228207D01*
X251094181Y-86177306D01*
X251089383Y-86164654D01*
X251083664Y-86155553D01*
X251056620Y-86078267D01*
X251034341Y-86019521D01*
X251033425Y-86011978D01*
X251031921Y-86007680D01*
X251019263Y-85895345D01*
X251014000Y-85852000D01*
X251019262Y-85808658D01*
X251031921Y-85696319D01*
X251033425Y-85692019D01*
X251034341Y-85684479D01*
X251056616Y-85625744D01*
X251083664Y-85548446D01*
X251089384Y-85539342D01*
X251094181Y-85526694D01*
X251129308Y-85475802D01*
X251167014Y-85415794D01*
X251179007Y-85403800D01*
X251190042Y-85387814D01*
X251233449Y-85349358D01*
X251277794Y-85305014D01*
X251297433Y-85292673D01*
X251316355Y-85275911D01*
X251363444Y-85251196D01*
X251410446Y-85221664D01*
X251438256Y-85211932D01*
X251465777Y-85197489D01*
X251512316Y-85186017D01*
X251558319Y-85169921D01*
X251593881Y-85165913D01*
X251629624Y-85157104D01*
X251672067Y-85157104D01*
X251714000Y-85152379D01*
X251755933Y-85157104D01*
G37*
G36*
X207651000Y-82434000D02*
G01*
X205851000Y-82434000D01*
X205851000Y-80634000D01*
X207651000Y-80634000D01*
X207651000Y-82434000D01*
G37*
G36*
X209338113Y-80638930D02*
G01*
X209385076Y-80638930D01*
X209425622Y-80647548D01*
X209466526Y-80651577D01*
X209517916Y-80667166D01*
X209569115Y-80678049D01*
X209601879Y-80692636D01*
X209635304Y-80702776D01*
X209688420Y-80731166D01*
X209741000Y-80754577D01*
X209765445Y-80772337D01*
X209790849Y-80785916D01*
X209842669Y-80828444D01*
X209893218Y-80865170D01*
X209909631Y-80883398D01*
X209927190Y-80897809D01*
X209974379Y-80955308D01*
X210019115Y-81004993D01*
X210028512Y-81021269D01*
X210039083Y-81034150D01*
X210078183Y-81107302D01*
X210113191Y-81167937D01*
X210117218Y-81180331D01*
X210122223Y-81189695D01*
X210149821Y-81280672D01*
X210171333Y-81346879D01*
X210172090Y-81354082D01*
X210173422Y-81358473D01*
X210186377Y-81490021D01*
X210191000Y-81534000D01*
X210186377Y-81577982D01*
X210173422Y-81709526D01*
X210172090Y-81713916D01*
X210171333Y-81721121D01*
X210149816Y-81787341D01*
X210122223Y-81878304D01*
X210117219Y-81887665D01*
X210113191Y-81900063D01*
X210078176Y-81960709D01*
X210039083Y-82033849D01*
X210028514Y-82046726D01*
X210019115Y-82063007D01*
X209974369Y-82112701D01*
X209927190Y-82170190D01*
X209909634Y-82184597D01*
X209893218Y-82202830D01*
X209842659Y-82239563D01*
X209790849Y-82282083D01*
X209765450Y-82295658D01*
X209741000Y-82313423D01*
X209688408Y-82336838D01*
X209635304Y-82365223D01*
X209601886Y-82375360D01*
X209569115Y-82389951D01*
X209517905Y-82400836D01*
X209466526Y-82416422D01*
X209425631Y-82420449D01*
X209385076Y-82429070D01*
X209338103Y-82429070D01*
X209291000Y-82433709D01*
X209243897Y-82429070D01*
X209196924Y-82429070D01*
X209156368Y-82420449D01*
X209115473Y-82416422D01*
X209064091Y-82400835D01*
X209012885Y-82389951D01*
X208980115Y-82375361D01*
X208946695Y-82365223D01*
X208893585Y-82336835D01*
X208841000Y-82313423D01*
X208816552Y-82295660D01*
X208791150Y-82282083D01*
X208739332Y-82239556D01*
X208688782Y-82202830D01*
X208672368Y-82184600D01*
X208654809Y-82170190D01*
X208607618Y-82112688D01*
X208562885Y-82063007D01*
X208553487Y-82046730D01*
X208542916Y-82033849D01*
X208503810Y-81960686D01*
X208468809Y-81900063D01*
X208464782Y-81887670D01*
X208459776Y-81878304D01*
X208432168Y-81787294D01*
X208410667Y-81721121D01*
X208409910Y-81713921D01*
X208408577Y-81709526D01*
X208395606Y-81577831D01*
X208391000Y-81534000D01*
X208395606Y-81490172D01*
X208408577Y-81358473D01*
X208409910Y-81354077D01*
X208410667Y-81346879D01*
X208432163Y-81280719D01*
X208459776Y-81189695D01*
X208464783Y-81180327D01*
X208468809Y-81167937D01*
X208503802Y-81107326D01*
X208542916Y-81034150D01*
X208553489Y-81021265D01*
X208562885Y-81004993D01*
X208607609Y-80955321D01*
X208654809Y-80897809D01*
X208672371Y-80883395D01*
X208688782Y-80865170D01*
X208739321Y-80828450D01*
X208791150Y-80785916D01*
X208816557Y-80772335D01*
X208841000Y-80754577D01*
X208893573Y-80731169D01*
X208946695Y-80702776D01*
X208980122Y-80692635D01*
X209012885Y-80678049D01*
X209064080Y-80667166D01*
X209115473Y-80651577D01*
X209156377Y-80647548D01*
X209196924Y-80638930D01*
X209243887Y-80638930D01*
X209291000Y-80634290D01*
X209338113Y-80638930D01*
G37*
G36*
X249058000Y-82180000D02*
G01*
X247258000Y-82180000D01*
X247258000Y-80380000D01*
X249058000Y-80380000D01*
X249058000Y-82180000D01*
G37*
G36*
X245665113Y-80384930D02*
G01*
X245712076Y-80384930D01*
X245752622Y-80393548D01*
X245793526Y-80397577D01*
X245844916Y-80413166D01*
X245896115Y-80424049D01*
X245928879Y-80438636D01*
X245962304Y-80448776D01*
X246015420Y-80477166D01*
X246068000Y-80500577D01*
X246092445Y-80518337D01*
X246117849Y-80531916D01*
X246169669Y-80574444D01*
X246220218Y-80611170D01*
X246236631Y-80629398D01*
X246254190Y-80643809D01*
X246301379Y-80701308D01*
X246346115Y-80750993D01*
X246355512Y-80767269D01*
X246366083Y-80780150D01*
X246405183Y-80853302D01*
X246440191Y-80913937D01*
X246444218Y-80926331D01*
X246449223Y-80935695D01*
X246476821Y-81026672D01*
X246498333Y-81092879D01*
X246499090Y-81100082D01*
X246500422Y-81104473D01*
X246513377Y-81236021D01*
X246518000Y-81280000D01*
X246513377Y-81323982D01*
X246500422Y-81455526D01*
X246499090Y-81459916D01*
X246498333Y-81467121D01*
X246476816Y-81533341D01*
X246449223Y-81624304D01*
X246444219Y-81633665D01*
X246440191Y-81646063D01*
X246405176Y-81706709D01*
X246366083Y-81779849D01*
X246355514Y-81792726D01*
X246346115Y-81809007D01*
X246301369Y-81858701D01*
X246254190Y-81916190D01*
X246236634Y-81930597D01*
X246220218Y-81948830D01*
X246169659Y-81985563D01*
X246117849Y-82028083D01*
X246092450Y-82041658D01*
X246068000Y-82059423D01*
X246015408Y-82082838D01*
X245962304Y-82111223D01*
X245928886Y-82121360D01*
X245896115Y-82135951D01*
X245844905Y-82146836D01*
X245793526Y-82162422D01*
X245752631Y-82166449D01*
X245712076Y-82175070D01*
X245665103Y-82175070D01*
X245618000Y-82179709D01*
X245570897Y-82175070D01*
X245523924Y-82175070D01*
X245483368Y-82166449D01*
X245442473Y-82162422D01*
X245391091Y-82146835D01*
X245339885Y-82135951D01*
X245307115Y-82121361D01*
X245273695Y-82111223D01*
X245220585Y-82082835D01*
X245168000Y-82059423D01*
X245143552Y-82041660D01*
X245118150Y-82028083D01*
X245066332Y-81985556D01*
X245015782Y-81948830D01*
X244999368Y-81930600D01*
X244981809Y-81916190D01*
X244934618Y-81858688D01*
X244889885Y-81809007D01*
X244880487Y-81792730D01*
X244869916Y-81779849D01*
X244830810Y-81706686D01*
X244795809Y-81646063D01*
X244791782Y-81633670D01*
X244786776Y-81624304D01*
X244759168Y-81533294D01*
X244737667Y-81467121D01*
X244736910Y-81459921D01*
X244735577Y-81455526D01*
X244722606Y-81323831D01*
X244718000Y-81280000D01*
X244722606Y-81236172D01*
X244735577Y-81104473D01*
X244736910Y-81100077D01*
X244737667Y-81092879D01*
X244759163Y-81026719D01*
X244786776Y-80935695D01*
X244791783Y-80926327D01*
X244795809Y-80913937D01*
X244830802Y-80853326D01*
X244869916Y-80780150D01*
X244880489Y-80767265D01*
X244889885Y-80750993D01*
X244934609Y-80701321D01*
X244981809Y-80643809D01*
X244999371Y-80629395D01*
X245015782Y-80611170D01*
X245066321Y-80574450D01*
X245118150Y-80531916D01*
X245143557Y-80518335D01*
X245168000Y-80500577D01*
X245220573Y-80477169D01*
X245273695Y-80448776D01*
X245307122Y-80438635D01*
X245339885Y-80424049D01*
X245391080Y-80413166D01*
X245442473Y-80397577D01*
X245483377Y-80393548D01*
X245523924Y-80384930D01*
X245570887Y-80384930D01*
X245618000Y-80380290D01*
X245665113Y-80384930D01*
G37*
G36*
X256374000Y-82130000D02*
G01*
X254674000Y-82130000D01*
X254674000Y-80430000D01*
X256374000Y-80430000D01*
X256374000Y-82130000D01*
G37*
G36*
X198970000Y-81876000D02*
G01*
X197270000Y-81876000D01*
X197270000Y-80176000D01*
X198970000Y-80176000D01*
X198970000Y-81876000D01*
G37*
G36*
X202733933Y-77791104D02*
G01*
X202776376Y-77791104D01*
X202812119Y-77799914D01*
X202847680Y-77803921D01*
X202893679Y-77820017D01*
X202940223Y-77831489D01*
X202967745Y-77845933D01*
X202995553Y-77855664D01*
X203042549Y-77885193D01*
X203089645Y-77909911D01*
X203108568Y-77926675D01*
X203128205Y-77939014D01*
X203172541Y-77983350D01*
X203215958Y-78021814D01*
X203226994Y-78037803D01*
X203238985Y-78049794D01*
X203276680Y-78109786D01*
X203311819Y-78160694D01*
X203316617Y-78173346D01*
X203322335Y-78182446D01*
X203349370Y-78259710D01*
X203371659Y-78318479D01*
X203372575Y-78326024D01*
X203374078Y-78330319D01*
X203386723Y-78442543D01*
X203392000Y-78486000D01*
X203386722Y-78529459D01*
X203374078Y-78641680D01*
X203372575Y-78645974D01*
X203371659Y-78653521D01*
X203349366Y-78712301D01*
X203322335Y-78789553D01*
X203316618Y-78798650D01*
X203311819Y-78811306D01*
X203276673Y-78862223D01*
X203238985Y-78922205D01*
X203226997Y-78934192D01*
X203215958Y-78950186D01*
X203172532Y-78988657D01*
X203128205Y-79032985D01*
X203108572Y-79045320D01*
X203089645Y-79062089D01*
X203042540Y-79086811D01*
X202995553Y-79116335D01*
X202967750Y-79126063D01*
X202940223Y-79140511D01*
X202893670Y-79151985D01*
X202847680Y-79168078D01*
X202812126Y-79172084D01*
X202776376Y-79180896D01*
X202733924Y-79180896D01*
X202692000Y-79185620D01*
X202650076Y-79180896D01*
X202607624Y-79180896D01*
X202571873Y-79172084D01*
X202536319Y-79168078D01*
X202490326Y-79151984D01*
X202443777Y-79140511D01*
X202416251Y-79126064D01*
X202388446Y-79116335D01*
X202341453Y-79086808D01*
X202294355Y-79062089D01*
X202275430Y-79045323D01*
X202255794Y-79032985D01*
X202211458Y-78988649D01*
X202168042Y-78950186D01*
X202157005Y-78934196D01*
X202145014Y-78922205D01*
X202107315Y-78862207D01*
X202072181Y-78811306D01*
X202067383Y-78798654D01*
X202061664Y-78789553D01*
X202034620Y-78712267D01*
X202012341Y-78653521D01*
X202011425Y-78645978D01*
X202009921Y-78641680D01*
X201997263Y-78529345D01*
X201992000Y-78486000D01*
X201997262Y-78442658D01*
X202009921Y-78330319D01*
X202011425Y-78326019D01*
X202012341Y-78318479D01*
X202034616Y-78259744D01*
X202061664Y-78182446D01*
X202067384Y-78173342D01*
X202072181Y-78160694D01*
X202107308Y-78109802D01*
X202145014Y-78049794D01*
X202157007Y-78037800D01*
X202168042Y-78021814D01*
X202211449Y-77983358D01*
X202255794Y-77939014D01*
X202275433Y-77926673D01*
X202294355Y-77909911D01*
X202341444Y-77885196D01*
X202388446Y-77855664D01*
X202416256Y-77845932D01*
X202443777Y-77831489D01*
X202490316Y-77820017D01*
X202536319Y-77803921D01*
X202571881Y-77799913D01*
X202607624Y-77791104D01*
X202650067Y-77791104D01*
X202692000Y-77786379D01*
X202733933Y-77791104D01*
G37*
G36*
X251755933Y-77537104D02*
G01*
X251798376Y-77537104D01*
X251834119Y-77545914D01*
X251869680Y-77549921D01*
X251915679Y-77566017D01*
X251962223Y-77577489D01*
X251989745Y-77591933D01*
X252017553Y-77601664D01*
X252064549Y-77631193D01*
X252111645Y-77655911D01*
X252130568Y-77672675D01*
X252150205Y-77685014D01*
X252194541Y-77729350D01*
X252237958Y-77767814D01*
X252248994Y-77783803D01*
X252260985Y-77795794D01*
X252298680Y-77855786D01*
X252333819Y-77906694D01*
X252338617Y-77919346D01*
X252344335Y-77928446D01*
X252371370Y-78005710D01*
X252393659Y-78064479D01*
X252394575Y-78072024D01*
X252396078Y-78076319D01*
X252408723Y-78188543D01*
X252414000Y-78232000D01*
X252408722Y-78275459D01*
X252396078Y-78387680D01*
X252394575Y-78391974D01*
X252393659Y-78399521D01*
X252371366Y-78458301D01*
X252344335Y-78535553D01*
X252338618Y-78544650D01*
X252333819Y-78557306D01*
X252298673Y-78608223D01*
X252260985Y-78668205D01*
X252248997Y-78680192D01*
X252237958Y-78696186D01*
X252194532Y-78734657D01*
X252150205Y-78778985D01*
X252130572Y-78791320D01*
X252111645Y-78808089D01*
X252064540Y-78832811D01*
X252017553Y-78862335D01*
X251989750Y-78872063D01*
X251962223Y-78886511D01*
X251915670Y-78897985D01*
X251869680Y-78914078D01*
X251834126Y-78918084D01*
X251798376Y-78926896D01*
X251755924Y-78926896D01*
X251714000Y-78931620D01*
X251672076Y-78926896D01*
X251629624Y-78926896D01*
X251593873Y-78918084D01*
X251558319Y-78914078D01*
X251512326Y-78897984D01*
X251465777Y-78886511D01*
X251438251Y-78872064D01*
X251410446Y-78862335D01*
X251363453Y-78832808D01*
X251316355Y-78808089D01*
X251297430Y-78791323D01*
X251277794Y-78778985D01*
X251233458Y-78734649D01*
X251190042Y-78696186D01*
X251179005Y-78680196D01*
X251167014Y-78668205D01*
X251129315Y-78608207D01*
X251094181Y-78557306D01*
X251089383Y-78544654D01*
X251083664Y-78535553D01*
X251056620Y-78458267D01*
X251034341Y-78399521D01*
X251033425Y-78391978D01*
X251031921Y-78387680D01*
X251019263Y-78275345D01*
X251014000Y-78232000D01*
X251019262Y-78188658D01*
X251031921Y-78076319D01*
X251033425Y-78072019D01*
X251034341Y-78064479D01*
X251056616Y-78005744D01*
X251083664Y-77928446D01*
X251089384Y-77919342D01*
X251094181Y-77906694D01*
X251129308Y-77855802D01*
X251167014Y-77795794D01*
X251179007Y-77783800D01*
X251190042Y-77767814D01*
X251233449Y-77729358D01*
X251277794Y-77685014D01*
X251297433Y-77672673D01*
X251316355Y-77655911D01*
X251363444Y-77631196D01*
X251410446Y-77601664D01*
X251438256Y-77591932D01*
X251465777Y-77577489D01*
X251512316Y-77566017D01*
X251558319Y-77549921D01*
X251593881Y-77545913D01*
X251629624Y-77537104D01*
X251672067Y-77537104D01*
X251714000Y-77532379D01*
X251755933Y-77537104D01*
G37*
G36*
X255786664Y-74883602D02*
G01*
X255949000Y-74955878D01*
X256092761Y-75060327D01*
X256211664Y-75192383D01*
X256300514Y-75346274D01*
X256355425Y-75515275D01*
X256374000Y-75692000D01*
X256355425Y-75868725D01*
X256300514Y-76037726D01*
X256211664Y-76191617D01*
X256092761Y-76323673D01*
X255949000Y-76428122D01*
X255786664Y-76500398D01*
X255612849Y-76537344D01*
X255435151Y-76537344D01*
X255261336Y-76500398D01*
X255099000Y-76428122D01*
X254955239Y-76323673D01*
X254836336Y-76191617D01*
X254747486Y-76037726D01*
X254692575Y-75868725D01*
X254674000Y-75692000D01*
X254692575Y-75515275D01*
X254747486Y-75346274D01*
X254836336Y-75192383D01*
X254955239Y-75060327D01*
X255099000Y-74955878D01*
X255261336Y-74883602D01*
X255435151Y-74846656D01*
X255612849Y-74846656D01*
X255786664Y-74883602D01*
G37*
G36*
X208082275Y-74572189D02*
G01*
X208249548Y-74605462D01*
X208407115Y-74670729D01*
X208548922Y-74765481D01*
X208669519Y-74886078D01*
X208764271Y-75027885D01*
X208829538Y-75185452D01*
X208862811Y-75352725D01*
X208862811Y-75523275D01*
X208829538Y-75690548D01*
X208764271Y-75848115D01*
X208669519Y-75989922D01*
X208548922Y-76110519D01*
X208407115Y-76205271D01*
X208249548Y-76270538D01*
X208082275Y-76303811D01*
X207997000Y-76308000D01*
X207995522Y-76308000D01*
X207548478Y-76308000D01*
X207547000Y-76308000D01*
X207461725Y-76303811D01*
X207294452Y-76270538D01*
X207136885Y-76205271D01*
X206995078Y-76110519D01*
X206874481Y-75989922D01*
X206779729Y-75848115D01*
X206714462Y-75690548D01*
X206681189Y-75523275D01*
X206681189Y-75352725D01*
X206714462Y-75185452D01*
X206779729Y-75027885D01*
X206874481Y-74886078D01*
X206995078Y-74765481D01*
X207136885Y-74670729D01*
X207294452Y-74605462D01*
X207461725Y-74572189D01*
X207547000Y-74568000D01*
X207997000Y-74568000D01*
X208082275Y-74572189D01*
G37*
G36*
X246944275Y-74572189D02*
G01*
X247111548Y-74605462D01*
X247269115Y-74670729D01*
X247410922Y-74765481D01*
X247531519Y-74886078D01*
X247626271Y-75027885D01*
X247691538Y-75185452D01*
X247724811Y-75352725D01*
X247724811Y-75523275D01*
X247691538Y-75690548D01*
X247626271Y-75848115D01*
X247531519Y-75989922D01*
X247410922Y-76110519D01*
X247269115Y-76205271D01*
X247111548Y-76270538D01*
X246944275Y-76303811D01*
X246859000Y-76308000D01*
X246857522Y-76308000D01*
X246410478Y-76308000D01*
X246409000Y-76308000D01*
X246323725Y-76303811D01*
X246156452Y-76270538D01*
X245998885Y-76205271D01*
X245857078Y-76110519D01*
X245736481Y-75989922D01*
X245641729Y-75848115D01*
X245576462Y-75690548D01*
X245543189Y-75523275D01*
X245543189Y-75352725D01*
X245576462Y-75185452D01*
X245641729Y-75027885D01*
X245736481Y-74886078D01*
X245857078Y-74765481D01*
X245998885Y-74670729D01*
X246156452Y-74605462D01*
X246323725Y-74572189D01*
X246409000Y-74568000D01*
X246859000Y-74568000D01*
X246944275Y-74572189D01*
G37*
G36*
X198636664Y-74629602D02*
G01*
X198799000Y-74701878D01*
X198942761Y-74806327D01*
X199061664Y-74938383D01*
X199150514Y-75092274D01*
X199205425Y-75261275D01*
X199224000Y-75438000D01*
X199205425Y-75614725D01*
X199150514Y-75783726D01*
X199061664Y-75937617D01*
X198942761Y-76069673D01*
X198799000Y-76174122D01*
X198636664Y-76246398D01*
X198462849Y-76283344D01*
X198285151Y-76283344D01*
X198111336Y-76246398D01*
X197949000Y-76174122D01*
X197805239Y-76069673D01*
X197686336Y-75937617D01*
X197597486Y-75783726D01*
X197542575Y-75614725D01*
X197524000Y-75438000D01*
X197542575Y-75261275D01*
X197597486Y-75092274D01*
X197686336Y-74938383D01*
X197805239Y-74806327D01*
X197949000Y-74701878D01*
X198111336Y-74629602D01*
X198285151Y-74592656D01*
X198462849Y-74592656D01*
X198636664Y-74629602D01*
G37*
G36*
X214950000Y-76200000D02*
G01*
X212650000Y-76200000D01*
X212650000Y-74500000D01*
X214950000Y-74500000D01*
X214950000Y-76200000D01*
G37*
G36*
X240350000Y-76200000D02*
G01*
X238050000Y-76200000D01*
X238050000Y-74500000D01*
X240350000Y-74500000D01*
X240350000Y-76200000D01*
G37*
G36*
X255786664Y-72343602D02*
G01*
X255949000Y-72415878D01*
X256092761Y-72520327D01*
X256211664Y-72652383D01*
X256300514Y-72806274D01*
X256355425Y-72975275D01*
X256374000Y-73152000D01*
X256355425Y-73328725D01*
X256300514Y-73497726D01*
X256211664Y-73651617D01*
X256092761Y-73783673D01*
X255949000Y-73888122D01*
X255786664Y-73960398D01*
X255612849Y-73997344D01*
X255435151Y-73997344D01*
X255261336Y-73960398D01*
X255099000Y-73888122D01*
X254955239Y-73783673D01*
X254836336Y-73651617D01*
X254747486Y-73497726D01*
X254692575Y-73328725D01*
X254674000Y-73152000D01*
X254692575Y-72975275D01*
X254747486Y-72806274D01*
X254836336Y-72652383D01*
X254955239Y-72520327D01*
X255099000Y-72415878D01*
X255261336Y-72343602D01*
X255435151Y-72306656D01*
X255612849Y-72306656D01*
X255786664Y-72343602D01*
G37*
G36*
X208082275Y-72032189D02*
G01*
X208249548Y-72065462D01*
X208407115Y-72130729D01*
X208548922Y-72225481D01*
X208669519Y-72346078D01*
X208764271Y-72487885D01*
X208829538Y-72645452D01*
X208862811Y-72812725D01*
X208862811Y-72983275D01*
X208829538Y-73150548D01*
X208764271Y-73308115D01*
X208669519Y-73449922D01*
X208548922Y-73570519D01*
X208407115Y-73665271D01*
X208249548Y-73730538D01*
X208082275Y-73763811D01*
X207997000Y-73768000D01*
X207995522Y-73768000D01*
X207548478Y-73768000D01*
X207547000Y-73768000D01*
X207461725Y-73763811D01*
X207294452Y-73730538D01*
X207136885Y-73665271D01*
X206995078Y-73570519D01*
X206874481Y-73449922D01*
X206779729Y-73308115D01*
X206714462Y-73150548D01*
X206681189Y-72983275D01*
X206681189Y-72812725D01*
X206714462Y-72645452D01*
X206779729Y-72487885D01*
X206874481Y-72346078D01*
X206995078Y-72225481D01*
X207136885Y-72130729D01*
X207294452Y-72065462D01*
X207461725Y-72032189D01*
X207547000Y-72028000D01*
X207997000Y-72028000D01*
X208082275Y-72032189D01*
G37*
G36*
X246944275Y-72032189D02*
G01*
X247111548Y-72065462D01*
X247269115Y-72130729D01*
X247410922Y-72225481D01*
X247531519Y-72346078D01*
X247626271Y-72487885D01*
X247691538Y-72645452D01*
X247724811Y-72812725D01*
X247724811Y-72983275D01*
X247691538Y-73150548D01*
X247626271Y-73308115D01*
X247531519Y-73449922D01*
X247410922Y-73570519D01*
X247269115Y-73665271D01*
X247111548Y-73730538D01*
X246944275Y-73763811D01*
X246859000Y-73768000D01*
X246857522Y-73768000D01*
X246410478Y-73768000D01*
X246409000Y-73768000D01*
X246323725Y-73763811D01*
X246156452Y-73730538D01*
X245998885Y-73665271D01*
X245857078Y-73570519D01*
X245736481Y-73449922D01*
X245641729Y-73308115D01*
X245576462Y-73150548D01*
X245543189Y-72983275D01*
X245543189Y-72812725D01*
X245576462Y-72645452D01*
X245641729Y-72487885D01*
X245736481Y-72346078D01*
X245857078Y-72225481D01*
X245998885Y-72130729D01*
X246156452Y-72065462D01*
X246323725Y-72032189D01*
X246409000Y-72028000D01*
X246859000Y-72028000D01*
X246944275Y-72032189D01*
G37*
G36*
X198636664Y-72089602D02*
G01*
X198799000Y-72161878D01*
X198942761Y-72266327D01*
X199061664Y-72398383D01*
X199150514Y-72552274D01*
X199205425Y-72721275D01*
X199224000Y-72898000D01*
X199205425Y-73074725D01*
X199150514Y-73243726D01*
X199061664Y-73397617D01*
X198942761Y-73529673D01*
X198799000Y-73634122D01*
X198636664Y-73706398D01*
X198462849Y-73743344D01*
X198285151Y-73743344D01*
X198111336Y-73706398D01*
X197949000Y-73634122D01*
X197805239Y-73529673D01*
X197686336Y-73397617D01*
X197597486Y-73243726D01*
X197542575Y-73074725D01*
X197524000Y-72898000D01*
X197542575Y-72721275D01*
X197597486Y-72552274D01*
X197686336Y-72398383D01*
X197805239Y-72266327D01*
X197949000Y-72161878D01*
X198111336Y-72089602D01*
X198285151Y-72052656D01*
X198462849Y-72052656D01*
X198636664Y-72089602D01*
G37*
G36*
X214950000Y-73660000D02*
G01*
X212650000Y-73660000D01*
X212650000Y-71960000D01*
X214950000Y-71960000D01*
X214950000Y-73660000D01*
G37*
G36*
X240350000Y-73660000D02*
G01*
X238050000Y-73660000D01*
X238050000Y-71960000D01*
X240350000Y-71960000D01*
X240350000Y-73660000D01*
G37*
G36*
X255786664Y-69803602D02*
G01*
X255949000Y-69875878D01*
X256092761Y-69980327D01*
X256211664Y-70112383D01*
X256300514Y-70266274D01*
X256355425Y-70435275D01*
X256374000Y-70612000D01*
X256355425Y-70788725D01*
X256300514Y-70957726D01*
X256211664Y-71111617D01*
X256092761Y-71243673D01*
X255949000Y-71348122D01*
X255786664Y-71420398D01*
X255612849Y-71457344D01*
X255435151Y-71457344D01*
X255261336Y-71420398D01*
X255099000Y-71348122D01*
X254955239Y-71243673D01*
X254836336Y-71111617D01*
X254747486Y-70957726D01*
X254692575Y-70788725D01*
X254674000Y-70612000D01*
X254692575Y-70435275D01*
X254747486Y-70266274D01*
X254836336Y-70112383D01*
X254955239Y-69980327D01*
X255099000Y-69875878D01*
X255261336Y-69803602D01*
X255435151Y-69766656D01*
X255612849Y-69766656D01*
X255786664Y-69803602D01*
G37*
G36*
X208082275Y-69492189D02*
G01*
X208249548Y-69525462D01*
X208407115Y-69590729D01*
X208548922Y-69685481D01*
X208669519Y-69806078D01*
X208764271Y-69947885D01*
X208829538Y-70105452D01*
X208862811Y-70272725D01*
X208862811Y-70443275D01*
X208829538Y-70610548D01*
X208764271Y-70768115D01*
X208669519Y-70909922D01*
X208548922Y-71030519D01*
X208407115Y-71125271D01*
X208249548Y-71190538D01*
X208082275Y-71223811D01*
X207997000Y-71228000D01*
X207995522Y-71228000D01*
X207548478Y-71228000D01*
X207547000Y-71228000D01*
X207461725Y-71223811D01*
X207294452Y-71190538D01*
X207136885Y-71125271D01*
X206995078Y-71030519D01*
X206874481Y-70909922D01*
X206779729Y-70768115D01*
X206714462Y-70610548D01*
X206681189Y-70443275D01*
X206681189Y-70272725D01*
X206714462Y-70105452D01*
X206779729Y-69947885D01*
X206874481Y-69806078D01*
X206995078Y-69685481D01*
X207136885Y-69590729D01*
X207294452Y-69525462D01*
X207461725Y-69492189D01*
X207547000Y-69488000D01*
X207997000Y-69488000D01*
X208082275Y-69492189D01*
G37*
G36*
X246944275Y-69492189D02*
G01*
X247111548Y-69525462D01*
X247269115Y-69590729D01*
X247410922Y-69685481D01*
X247531519Y-69806078D01*
X247626271Y-69947885D01*
X247691538Y-70105452D01*
X247724811Y-70272725D01*
X247724811Y-70443275D01*
X247691538Y-70610548D01*
X247626271Y-70768115D01*
X247531519Y-70909922D01*
X247410922Y-71030519D01*
X247269115Y-71125271D01*
X247111548Y-71190538D01*
X246944275Y-71223811D01*
X246859000Y-71228000D01*
X246857522Y-71228000D01*
X246410478Y-71228000D01*
X246409000Y-71228000D01*
X246323725Y-71223811D01*
X246156452Y-71190538D01*
X245998885Y-71125271D01*
X245857078Y-71030519D01*
X245736481Y-70909922D01*
X245641729Y-70768115D01*
X245576462Y-70610548D01*
X245543189Y-70443275D01*
X245543189Y-70272725D01*
X245576462Y-70105452D01*
X245641729Y-69947885D01*
X245736481Y-69806078D01*
X245857078Y-69685481D01*
X245998885Y-69590729D01*
X246156452Y-69525462D01*
X246323725Y-69492189D01*
X246409000Y-69488000D01*
X246859000Y-69488000D01*
X246944275Y-69492189D01*
G37*
G36*
X198636664Y-69549602D02*
G01*
X198799000Y-69621878D01*
X198942761Y-69726327D01*
X199061664Y-69858383D01*
X199150514Y-70012274D01*
X199205425Y-70181275D01*
X199224000Y-70358000D01*
X199205425Y-70534725D01*
X199150514Y-70703726D01*
X199061664Y-70857617D01*
X198942761Y-70989673D01*
X198799000Y-71094122D01*
X198636664Y-71166398D01*
X198462849Y-71203344D01*
X198285151Y-71203344D01*
X198111336Y-71166398D01*
X197949000Y-71094122D01*
X197805239Y-70989673D01*
X197686336Y-70857617D01*
X197597486Y-70703726D01*
X197542575Y-70534725D01*
X197524000Y-70358000D01*
X197542575Y-70181275D01*
X197597486Y-70012274D01*
X197686336Y-69858383D01*
X197805239Y-69726327D01*
X197949000Y-69621878D01*
X198111336Y-69549602D01*
X198285151Y-69512656D01*
X198462849Y-69512656D01*
X198636664Y-69549602D01*
G37*
G36*
X214950000Y-71120000D02*
G01*
X212650000Y-71120000D01*
X212650000Y-69420000D01*
X214950000Y-69420000D01*
X214950000Y-71120000D01*
G37*
G36*
X240350000Y-71120000D02*
G01*
X238050000Y-71120000D01*
X238050000Y-69420000D01*
X240350000Y-69420000D01*
X240350000Y-71120000D01*
G37*
G36*
X255786664Y-67263602D02*
G01*
X255949000Y-67335878D01*
X256092761Y-67440327D01*
X256211664Y-67572383D01*
X256300514Y-67726274D01*
X256355425Y-67895275D01*
X256374000Y-68072000D01*
X256355425Y-68248725D01*
X256300514Y-68417726D01*
X256211664Y-68571617D01*
X256092761Y-68703673D01*
X255949000Y-68808122D01*
X255786664Y-68880398D01*
X255612849Y-68917344D01*
X255435151Y-68917344D01*
X255261336Y-68880398D01*
X255099000Y-68808122D01*
X254955239Y-68703673D01*
X254836336Y-68571617D01*
X254747486Y-68417726D01*
X254692575Y-68248725D01*
X254674000Y-68072000D01*
X254692575Y-67895275D01*
X254747486Y-67726274D01*
X254836336Y-67572383D01*
X254955239Y-67440327D01*
X255099000Y-67335878D01*
X255261336Y-67263602D01*
X255435151Y-67226656D01*
X255612849Y-67226656D01*
X255786664Y-67263602D01*
G37*
G36*
X208082275Y-66952189D02*
G01*
X208249548Y-66985462D01*
X208407115Y-67050729D01*
X208548922Y-67145481D01*
X208669519Y-67266078D01*
X208764271Y-67407885D01*
X208829538Y-67565452D01*
X208862811Y-67732725D01*
X208862811Y-67903275D01*
X208829538Y-68070548D01*
X208764271Y-68228115D01*
X208669519Y-68369922D01*
X208548922Y-68490519D01*
X208407115Y-68585271D01*
X208249548Y-68650538D01*
X208082275Y-68683811D01*
X207997000Y-68688000D01*
X207995522Y-68688000D01*
X207548478Y-68688000D01*
X207547000Y-68688000D01*
X207461725Y-68683811D01*
X207294452Y-68650538D01*
X207136885Y-68585271D01*
X206995078Y-68490519D01*
X206874481Y-68369922D01*
X206779729Y-68228115D01*
X206714462Y-68070548D01*
X206681189Y-67903275D01*
X206681189Y-67732725D01*
X206714462Y-67565452D01*
X206779729Y-67407885D01*
X206874481Y-67266078D01*
X206995078Y-67145481D01*
X207136885Y-67050729D01*
X207294452Y-66985462D01*
X207461725Y-66952189D01*
X207547000Y-66948000D01*
X207997000Y-66948000D01*
X208082275Y-66952189D01*
G37*
G36*
X246944275Y-66952189D02*
G01*
X247111548Y-66985462D01*
X247269115Y-67050729D01*
X247410922Y-67145481D01*
X247531519Y-67266078D01*
X247626271Y-67407885D01*
X247691538Y-67565452D01*
X247724811Y-67732725D01*
X247724811Y-67903275D01*
X247691538Y-68070548D01*
X247626271Y-68228115D01*
X247531519Y-68369922D01*
X247410922Y-68490519D01*
X247269115Y-68585271D01*
X247111548Y-68650538D01*
X246944275Y-68683811D01*
X246859000Y-68688000D01*
X246857522Y-68688000D01*
X246410478Y-68688000D01*
X246409000Y-68688000D01*
X246323725Y-68683811D01*
X246156452Y-68650538D01*
X245998885Y-68585271D01*
X245857078Y-68490519D01*
X245736481Y-68369922D01*
X245641729Y-68228115D01*
X245576462Y-68070548D01*
X245543189Y-67903275D01*
X245543189Y-67732725D01*
X245576462Y-67565452D01*
X245641729Y-67407885D01*
X245736481Y-67266078D01*
X245857078Y-67145481D01*
X245998885Y-67050729D01*
X246156452Y-66985462D01*
X246323725Y-66952189D01*
X246409000Y-66948000D01*
X246859000Y-66948000D01*
X246944275Y-66952189D01*
G37*
G36*
X198636664Y-67009602D02*
G01*
X198799000Y-67081878D01*
X198942761Y-67186327D01*
X199061664Y-67318383D01*
X199150514Y-67472274D01*
X199205425Y-67641275D01*
X199224000Y-67818000D01*
X199205425Y-67994725D01*
X199150514Y-68163726D01*
X199061664Y-68317617D01*
X198942761Y-68449673D01*
X198799000Y-68554122D01*
X198636664Y-68626398D01*
X198462849Y-68663344D01*
X198285151Y-68663344D01*
X198111336Y-68626398D01*
X197949000Y-68554122D01*
X197805239Y-68449673D01*
X197686336Y-68317617D01*
X197597486Y-68163726D01*
X197542575Y-67994725D01*
X197524000Y-67818000D01*
X197542575Y-67641275D01*
X197597486Y-67472274D01*
X197686336Y-67318383D01*
X197805239Y-67186327D01*
X197949000Y-67081878D01*
X198111336Y-67009602D01*
X198285151Y-66972656D01*
X198462849Y-66972656D01*
X198636664Y-67009602D01*
G37*
G36*
X214950000Y-68580000D02*
G01*
X212650000Y-68580000D01*
X212650000Y-66880000D01*
X214950000Y-66880000D01*
X214950000Y-68580000D01*
G37*
G36*
X240350000Y-68580000D02*
G01*
X238050000Y-68580000D01*
X238050000Y-66880000D01*
X240350000Y-66880000D01*
X240350000Y-68580000D01*
G37*
G36*
X255786664Y-64723602D02*
G01*
X255949000Y-64795878D01*
X256092761Y-64900327D01*
X256211664Y-65032383D01*
X256300514Y-65186274D01*
X256355425Y-65355275D01*
X256374000Y-65532000D01*
X256355425Y-65708725D01*
X256300514Y-65877726D01*
X256211664Y-66031617D01*
X256092761Y-66163673D01*
X255949000Y-66268122D01*
X255786664Y-66340398D01*
X255612849Y-66377344D01*
X255435151Y-66377344D01*
X255261336Y-66340398D01*
X255099000Y-66268122D01*
X254955239Y-66163673D01*
X254836336Y-66031617D01*
X254747486Y-65877726D01*
X254692575Y-65708725D01*
X254674000Y-65532000D01*
X254692575Y-65355275D01*
X254747486Y-65186274D01*
X254836336Y-65032383D01*
X254955239Y-64900327D01*
X255099000Y-64795878D01*
X255261336Y-64723602D01*
X255435151Y-64686656D01*
X255612849Y-64686656D01*
X255786664Y-64723602D01*
G37*
G36*
X208082275Y-64412189D02*
G01*
X208249548Y-64445462D01*
X208407115Y-64510729D01*
X208548922Y-64605481D01*
X208669519Y-64726078D01*
X208764271Y-64867885D01*
X208829538Y-65025452D01*
X208862811Y-65192725D01*
X208862811Y-65363275D01*
X208829538Y-65530548D01*
X208764271Y-65688115D01*
X208669519Y-65829922D01*
X208548922Y-65950519D01*
X208407115Y-66045271D01*
X208249548Y-66110538D01*
X208082275Y-66143811D01*
X207997000Y-66148000D01*
X207995522Y-66148000D01*
X207548478Y-66148000D01*
X207547000Y-66148000D01*
X207461725Y-66143811D01*
X207294452Y-66110538D01*
X207136885Y-66045271D01*
X206995078Y-65950519D01*
X206874481Y-65829922D01*
X206779729Y-65688115D01*
X206714462Y-65530548D01*
X206681189Y-65363275D01*
X206681189Y-65192725D01*
X206714462Y-65025452D01*
X206779729Y-64867885D01*
X206874481Y-64726078D01*
X206995078Y-64605481D01*
X207136885Y-64510729D01*
X207294452Y-64445462D01*
X207461725Y-64412189D01*
X207547000Y-64408000D01*
X207997000Y-64408000D01*
X208082275Y-64412189D01*
G37*
G36*
X246944275Y-64412189D02*
G01*
X247111548Y-64445462D01*
X247269115Y-64510729D01*
X247410922Y-64605481D01*
X247531519Y-64726078D01*
X247626271Y-64867885D01*
X247691538Y-65025452D01*
X247724811Y-65192725D01*
X247724811Y-65363275D01*
X247691538Y-65530548D01*
X247626271Y-65688115D01*
X247531519Y-65829922D01*
X247410922Y-65950519D01*
X247269115Y-66045271D01*
X247111548Y-66110538D01*
X246944275Y-66143811D01*
X246859000Y-66148000D01*
X246857522Y-66148000D01*
X246410478Y-66148000D01*
X246409000Y-66148000D01*
X246323725Y-66143811D01*
X246156452Y-66110538D01*
X245998885Y-66045271D01*
X245857078Y-65950519D01*
X245736481Y-65829922D01*
X245641729Y-65688115D01*
X245576462Y-65530548D01*
X245543189Y-65363275D01*
X245543189Y-65192725D01*
X245576462Y-65025452D01*
X245641729Y-64867885D01*
X245736481Y-64726078D01*
X245857078Y-64605481D01*
X245998885Y-64510729D01*
X246156452Y-64445462D01*
X246323725Y-64412189D01*
X246409000Y-64408000D01*
X246859000Y-64408000D01*
X246944275Y-64412189D01*
G37*
G36*
X198636664Y-64469602D02*
G01*
X198799000Y-64541878D01*
X198942761Y-64646327D01*
X199061664Y-64778383D01*
X199150514Y-64932274D01*
X199205425Y-65101275D01*
X199224000Y-65278000D01*
X199205425Y-65454725D01*
X199150514Y-65623726D01*
X199061664Y-65777617D01*
X198942761Y-65909673D01*
X198799000Y-66014122D01*
X198636664Y-66086398D01*
X198462849Y-66123344D01*
X198285151Y-66123344D01*
X198111336Y-66086398D01*
X197949000Y-66014122D01*
X197805239Y-65909673D01*
X197686336Y-65777617D01*
X197597486Y-65623726D01*
X197542575Y-65454725D01*
X197524000Y-65278000D01*
X197542575Y-65101275D01*
X197597486Y-64932274D01*
X197686336Y-64778383D01*
X197805239Y-64646327D01*
X197949000Y-64541878D01*
X198111336Y-64469602D01*
X198285151Y-64432656D01*
X198462849Y-64432656D01*
X198636664Y-64469602D01*
G37*
G36*
X214950000Y-66040000D02*
G01*
X212650000Y-66040000D01*
X212650000Y-64340000D01*
X214950000Y-64340000D01*
X214950000Y-66040000D01*
G37*
G36*
X240350000Y-66040000D02*
G01*
X238050000Y-66040000D01*
X238050000Y-64340000D01*
X240350000Y-64340000D01*
X240350000Y-66040000D01*
G37*
G36*
X255786664Y-62183602D02*
G01*
X255949000Y-62255878D01*
X256092761Y-62360327D01*
X256211664Y-62492383D01*
X256300514Y-62646274D01*
X256355425Y-62815275D01*
X256374000Y-62992000D01*
X256355425Y-63168725D01*
X256300514Y-63337726D01*
X256211664Y-63491617D01*
X256092761Y-63623673D01*
X255949000Y-63728122D01*
X255786664Y-63800398D01*
X255612849Y-63837344D01*
X255435151Y-63837344D01*
X255261336Y-63800398D01*
X255099000Y-63728122D01*
X254955239Y-63623673D01*
X254836336Y-63491617D01*
X254747486Y-63337726D01*
X254692575Y-63168725D01*
X254674000Y-62992000D01*
X254692575Y-62815275D01*
X254747486Y-62646274D01*
X254836336Y-62492383D01*
X254955239Y-62360327D01*
X255099000Y-62255878D01*
X255261336Y-62183602D01*
X255435151Y-62146656D01*
X255612849Y-62146656D01*
X255786664Y-62183602D01*
G37*
G36*
X208082275Y-61872189D02*
G01*
X208249548Y-61905462D01*
X208407115Y-61970729D01*
X208548922Y-62065481D01*
X208669519Y-62186078D01*
X208764271Y-62327885D01*
X208829538Y-62485452D01*
X208862811Y-62652725D01*
X208862811Y-62823275D01*
X208829538Y-62990548D01*
X208764271Y-63148115D01*
X208669519Y-63289922D01*
X208548922Y-63410519D01*
X208407115Y-63505271D01*
X208249548Y-63570538D01*
X208082275Y-63603811D01*
X207997000Y-63608000D01*
X207995522Y-63608000D01*
X207548478Y-63608000D01*
X207547000Y-63608000D01*
X207461725Y-63603811D01*
X207294452Y-63570538D01*
X207136885Y-63505271D01*
X206995078Y-63410519D01*
X206874481Y-63289922D01*
X206779729Y-63148115D01*
X206714462Y-62990548D01*
X206681189Y-62823275D01*
X206681189Y-62652725D01*
X206714462Y-62485452D01*
X206779729Y-62327885D01*
X206874481Y-62186078D01*
X206995078Y-62065481D01*
X207136885Y-61970729D01*
X207294452Y-61905462D01*
X207461725Y-61872189D01*
X207547000Y-61868000D01*
X207997000Y-61868000D01*
X208082275Y-61872189D01*
G37*
G36*
X246944275Y-61872189D02*
G01*
X247111548Y-61905462D01*
X247269115Y-61970729D01*
X247410922Y-62065481D01*
X247531519Y-62186078D01*
X247626271Y-62327885D01*
X247691538Y-62485452D01*
X247724811Y-62652725D01*
X247724811Y-62823275D01*
X247691538Y-62990548D01*
X247626271Y-63148115D01*
X247531519Y-63289922D01*
X247410922Y-63410519D01*
X247269115Y-63505271D01*
X247111548Y-63570538D01*
X246944275Y-63603811D01*
X246859000Y-63608000D01*
X246857522Y-63608000D01*
X246410478Y-63608000D01*
X246409000Y-63608000D01*
X246323725Y-63603811D01*
X246156452Y-63570538D01*
X245998885Y-63505271D01*
X245857078Y-63410519D01*
X245736481Y-63289922D01*
X245641729Y-63148115D01*
X245576462Y-62990548D01*
X245543189Y-62823275D01*
X245543189Y-62652725D01*
X245576462Y-62485452D01*
X245641729Y-62327885D01*
X245736481Y-62186078D01*
X245857078Y-62065481D01*
X245998885Y-61970729D01*
X246156452Y-61905462D01*
X246323725Y-61872189D01*
X246409000Y-61868000D01*
X246859000Y-61868000D01*
X246944275Y-61872189D01*
G37*
G36*
X198636664Y-61929602D02*
G01*
X198799000Y-62001878D01*
X198942761Y-62106327D01*
X199061664Y-62238383D01*
X199150514Y-62392274D01*
X199205425Y-62561275D01*
X199224000Y-62738000D01*
X199205425Y-62914725D01*
X199150514Y-63083726D01*
X199061664Y-63237617D01*
X198942761Y-63369673D01*
X198799000Y-63474122D01*
X198636664Y-63546398D01*
X198462849Y-63583344D01*
X198285151Y-63583344D01*
X198111336Y-63546398D01*
X197949000Y-63474122D01*
X197805239Y-63369673D01*
X197686336Y-63237617D01*
X197597486Y-63083726D01*
X197542575Y-62914725D01*
X197524000Y-62738000D01*
X197542575Y-62561275D01*
X197597486Y-62392274D01*
X197686336Y-62238383D01*
X197805239Y-62106327D01*
X197949000Y-62001878D01*
X198111336Y-61929602D01*
X198285151Y-61892656D01*
X198462849Y-61892656D01*
X198636664Y-61929602D01*
G37*
G36*
X214950000Y-63500000D02*
G01*
X212650000Y-63500000D01*
X212650000Y-61800000D01*
X214950000Y-61800000D01*
X214950000Y-63500000D01*
G37*
G36*
X240350000Y-63500000D02*
G01*
X238050000Y-63500000D01*
X238050000Y-61800000D01*
X240350000Y-61800000D01*
X240350000Y-63500000D01*
G37*
G36*
X255786664Y-59643602D02*
G01*
X255949000Y-59715878D01*
X256092761Y-59820327D01*
X256211664Y-59952383D01*
X256300514Y-60106274D01*
X256355425Y-60275275D01*
X256374000Y-60452000D01*
X256355425Y-60628725D01*
X256300514Y-60797726D01*
X256211664Y-60951617D01*
X256092761Y-61083673D01*
X255949000Y-61188122D01*
X255786664Y-61260398D01*
X255612849Y-61297344D01*
X255435151Y-61297344D01*
X255261336Y-61260398D01*
X255099000Y-61188122D01*
X254955239Y-61083673D01*
X254836336Y-60951617D01*
X254747486Y-60797726D01*
X254692575Y-60628725D01*
X254674000Y-60452000D01*
X254692575Y-60275275D01*
X254747486Y-60106274D01*
X254836336Y-59952383D01*
X254955239Y-59820327D01*
X255099000Y-59715878D01*
X255261336Y-59643602D01*
X255435151Y-59606656D01*
X255612849Y-59606656D01*
X255786664Y-59643602D01*
G37*
G36*
X208082275Y-59332189D02*
G01*
X208249548Y-59365462D01*
X208407115Y-59430729D01*
X208548922Y-59525481D01*
X208669519Y-59646078D01*
X208764271Y-59787885D01*
X208829538Y-59945452D01*
X208862811Y-60112725D01*
X208862811Y-60283275D01*
X208829538Y-60450548D01*
X208764271Y-60608115D01*
X208669519Y-60749922D01*
X208548922Y-60870519D01*
X208407115Y-60965271D01*
X208249548Y-61030538D01*
X208082275Y-61063811D01*
X207997000Y-61068000D01*
X207995522Y-61068000D01*
X207548478Y-61068000D01*
X207547000Y-61068000D01*
X207461725Y-61063811D01*
X207294452Y-61030538D01*
X207136885Y-60965271D01*
X206995078Y-60870519D01*
X206874481Y-60749922D01*
X206779729Y-60608115D01*
X206714462Y-60450548D01*
X206681189Y-60283275D01*
X206681189Y-60112725D01*
X206714462Y-59945452D01*
X206779729Y-59787885D01*
X206874481Y-59646078D01*
X206995078Y-59525481D01*
X207136885Y-59430729D01*
X207294452Y-59365462D01*
X207461725Y-59332189D01*
X207547000Y-59328000D01*
X207997000Y-59328000D01*
X208082275Y-59332189D01*
G37*
G36*
X246944275Y-59332189D02*
G01*
X247111548Y-59365462D01*
X247269115Y-59430729D01*
X247410922Y-59525481D01*
X247531519Y-59646078D01*
X247626271Y-59787885D01*
X247691538Y-59945452D01*
X247724811Y-60112725D01*
X247724811Y-60283275D01*
X247691538Y-60450548D01*
X247626271Y-60608115D01*
X247531519Y-60749922D01*
X247410922Y-60870519D01*
X247269115Y-60965271D01*
X247111548Y-61030538D01*
X246944275Y-61063811D01*
X246859000Y-61068000D01*
X246857522Y-61068000D01*
X246410478Y-61068000D01*
X246409000Y-61068000D01*
X246323725Y-61063811D01*
X246156452Y-61030538D01*
X245998885Y-60965271D01*
X245857078Y-60870519D01*
X245736481Y-60749922D01*
X245641729Y-60608115D01*
X245576462Y-60450548D01*
X245543189Y-60283275D01*
X245543189Y-60112725D01*
X245576462Y-59945452D01*
X245641729Y-59787885D01*
X245736481Y-59646078D01*
X245857078Y-59525481D01*
X245998885Y-59430729D01*
X246156452Y-59365462D01*
X246323725Y-59332189D01*
X246409000Y-59328000D01*
X246859000Y-59328000D01*
X246944275Y-59332189D01*
G37*
G36*
X198636664Y-59389602D02*
G01*
X198799000Y-59461878D01*
X198942761Y-59566327D01*
X199061664Y-59698383D01*
X199150514Y-59852274D01*
X199205425Y-60021275D01*
X199224000Y-60198000D01*
X199205425Y-60374725D01*
X199150514Y-60543726D01*
X199061664Y-60697617D01*
X198942761Y-60829673D01*
X198799000Y-60934122D01*
X198636664Y-61006398D01*
X198462849Y-61043344D01*
X198285151Y-61043344D01*
X198111336Y-61006398D01*
X197949000Y-60934122D01*
X197805239Y-60829673D01*
X197686336Y-60697617D01*
X197597486Y-60543726D01*
X197542575Y-60374725D01*
X197524000Y-60198000D01*
X197542575Y-60021275D01*
X197597486Y-59852274D01*
X197686336Y-59698383D01*
X197805239Y-59566327D01*
X197949000Y-59461878D01*
X198111336Y-59389602D01*
X198285151Y-59352656D01*
X198462849Y-59352656D01*
X198636664Y-59389602D01*
G37*
G36*
X214950000Y-60960000D02*
G01*
X212650000Y-60960000D01*
X212650000Y-59260000D01*
X214950000Y-59260000D01*
X214950000Y-60960000D01*
G37*
G36*
X240350000Y-60960000D02*
G01*
X238050000Y-60960000D01*
X238050000Y-59260000D01*
X240350000Y-59260000D01*
X240350000Y-60960000D01*
G37*
G36*
X255786664Y-57103602D02*
G01*
X255949000Y-57175878D01*
X256092761Y-57280327D01*
X256211664Y-57412383D01*
X256300514Y-57566274D01*
X256355425Y-57735275D01*
X256374000Y-57912000D01*
X256355425Y-58088725D01*
X256300514Y-58257726D01*
X256211664Y-58411617D01*
X256092761Y-58543673D01*
X255949000Y-58648122D01*
X255786664Y-58720398D01*
X255612849Y-58757344D01*
X255435151Y-58757344D01*
X255261336Y-58720398D01*
X255099000Y-58648122D01*
X254955239Y-58543673D01*
X254836336Y-58411617D01*
X254747486Y-58257726D01*
X254692575Y-58088725D01*
X254674000Y-57912000D01*
X254692575Y-57735275D01*
X254747486Y-57566274D01*
X254836336Y-57412383D01*
X254955239Y-57280327D01*
X255099000Y-57175878D01*
X255261336Y-57103602D01*
X255435151Y-57066656D01*
X255612849Y-57066656D01*
X255786664Y-57103602D01*
G37*
G36*
X208082275Y-56792189D02*
G01*
X208249548Y-56825462D01*
X208407115Y-56890729D01*
X208548922Y-56985481D01*
X208669519Y-57106078D01*
X208764271Y-57247885D01*
X208829538Y-57405452D01*
X208862811Y-57572725D01*
X208862811Y-57743275D01*
X208829538Y-57910548D01*
X208764271Y-58068115D01*
X208669519Y-58209922D01*
X208548922Y-58330519D01*
X208407115Y-58425271D01*
X208249548Y-58490538D01*
X208082275Y-58523811D01*
X207997000Y-58528000D01*
X207995522Y-58528000D01*
X207548478Y-58528000D01*
X207547000Y-58528000D01*
X207461725Y-58523811D01*
X207294452Y-58490538D01*
X207136885Y-58425271D01*
X206995078Y-58330519D01*
X206874481Y-58209922D01*
X206779729Y-58068115D01*
X206714462Y-57910548D01*
X206681189Y-57743275D01*
X206681189Y-57572725D01*
X206714462Y-57405452D01*
X206779729Y-57247885D01*
X206874481Y-57106078D01*
X206995078Y-56985481D01*
X207136885Y-56890729D01*
X207294452Y-56825462D01*
X207461725Y-56792189D01*
X207547000Y-56788000D01*
X207997000Y-56788000D01*
X208082275Y-56792189D01*
G37*
G36*
X246944275Y-56792189D02*
G01*
X247111548Y-56825462D01*
X247269115Y-56890729D01*
X247410922Y-56985481D01*
X247531519Y-57106078D01*
X247626271Y-57247885D01*
X247691538Y-57405452D01*
X247724811Y-57572725D01*
X247724811Y-57743275D01*
X247691538Y-57910548D01*
X247626271Y-58068115D01*
X247531519Y-58209922D01*
X247410922Y-58330519D01*
X247269115Y-58425271D01*
X247111548Y-58490538D01*
X246944275Y-58523811D01*
X246859000Y-58528000D01*
X246857522Y-58528000D01*
X246410478Y-58528000D01*
X246409000Y-58528000D01*
X246323725Y-58523811D01*
X246156452Y-58490538D01*
X245998885Y-58425271D01*
X245857078Y-58330519D01*
X245736481Y-58209922D01*
X245641729Y-58068115D01*
X245576462Y-57910548D01*
X245543189Y-57743275D01*
X245543189Y-57572725D01*
X245576462Y-57405452D01*
X245641729Y-57247885D01*
X245736481Y-57106078D01*
X245857078Y-56985481D01*
X245998885Y-56890729D01*
X246156452Y-56825462D01*
X246323725Y-56792189D01*
X246409000Y-56788000D01*
X246859000Y-56788000D01*
X246944275Y-56792189D01*
G37*
G36*
X198636664Y-56849602D02*
G01*
X198799000Y-56921878D01*
X198942761Y-57026327D01*
X199061664Y-57158383D01*
X199150514Y-57312274D01*
X199205425Y-57481275D01*
X199224000Y-57658000D01*
X199205425Y-57834725D01*
X199150514Y-58003726D01*
X199061664Y-58157617D01*
X198942761Y-58289673D01*
X198799000Y-58394122D01*
X198636664Y-58466398D01*
X198462849Y-58503344D01*
X198285151Y-58503344D01*
X198111336Y-58466398D01*
X197949000Y-58394122D01*
X197805239Y-58289673D01*
X197686336Y-58157617D01*
X197597486Y-58003726D01*
X197542575Y-57834725D01*
X197524000Y-57658000D01*
X197542575Y-57481275D01*
X197597486Y-57312274D01*
X197686336Y-57158383D01*
X197805239Y-57026327D01*
X197949000Y-56921878D01*
X198111336Y-56849602D01*
X198285151Y-56812656D01*
X198462849Y-56812656D01*
X198636664Y-56849602D01*
G37*
G36*
X214950000Y-58420000D02*
G01*
X212650000Y-58420000D01*
X212650000Y-56720000D01*
X214950000Y-56720000D01*
X214950000Y-58420000D01*
G37*
G36*
X240350000Y-58420000D02*
G01*
X238050000Y-58420000D01*
X238050000Y-56720000D01*
X240350000Y-56720000D01*
X240350000Y-58420000D01*
G37*
G36*
X255786664Y-54563602D02*
G01*
X255949000Y-54635878D01*
X256092761Y-54740327D01*
X256211664Y-54872383D01*
X256300514Y-55026274D01*
X256355425Y-55195275D01*
X256374000Y-55372000D01*
X256355425Y-55548725D01*
X256300514Y-55717726D01*
X256211664Y-55871617D01*
X256092761Y-56003673D01*
X255949000Y-56108122D01*
X255786664Y-56180398D01*
X255612849Y-56217344D01*
X255435151Y-56217344D01*
X255261336Y-56180398D01*
X255099000Y-56108122D01*
X254955239Y-56003673D01*
X254836336Y-55871617D01*
X254747486Y-55717726D01*
X254692575Y-55548725D01*
X254674000Y-55372000D01*
X254692575Y-55195275D01*
X254747486Y-55026274D01*
X254836336Y-54872383D01*
X254955239Y-54740327D01*
X255099000Y-54635878D01*
X255261336Y-54563602D01*
X255435151Y-54526656D01*
X255612849Y-54526656D01*
X255786664Y-54563602D01*
G37*
G36*
X208082275Y-54252189D02*
G01*
X208249548Y-54285462D01*
X208407115Y-54350729D01*
X208548922Y-54445481D01*
X208669519Y-54566078D01*
X208764271Y-54707885D01*
X208829538Y-54865452D01*
X208862811Y-55032725D01*
X208862811Y-55203275D01*
X208829538Y-55370548D01*
X208764271Y-55528115D01*
X208669519Y-55669922D01*
X208548922Y-55790519D01*
X208407115Y-55885271D01*
X208249548Y-55950538D01*
X208082275Y-55983811D01*
X207997000Y-55988000D01*
X207995522Y-55988000D01*
X207548478Y-55988000D01*
X207547000Y-55988000D01*
X207461725Y-55983811D01*
X207294452Y-55950538D01*
X207136885Y-55885271D01*
X206995078Y-55790519D01*
X206874481Y-55669922D01*
X206779729Y-55528115D01*
X206714462Y-55370548D01*
X206681189Y-55203275D01*
X206681189Y-55032725D01*
X206714462Y-54865452D01*
X206779729Y-54707885D01*
X206874481Y-54566078D01*
X206995078Y-54445481D01*
X207136885Y-54350729D01*
X207294452Y-54285462D01*
X207461725Y-54252189D01*
X207547000Y-54248000D01*
X207997000Y-54248000D01*
X208082275Y-54252189D01*
G37*
G36*
X246944275Y-54252189D02*
G01*
X247111548Y-54285462D01*
X247269115Y-54350729D01*
X247410922Y-54445481D01*
X247531519Y-54566078D01*
X247626271Y-54707885D01*
X247691538Y-54865452D01*
X247724811Y-55032725D01*
X247724811Y-55203275D01*
X247691538Y-55370548D01*
X247626271Y-55528115D01*
X247531519Y-55669922D01*
X247410922Y-55790519D01*
X247269115Y-55885271D01*
X247111548Y-55950538D01*
X246944275Y-55983811D01*
X246859000Y-55988000D01*
X246857522Y-55988000D01*
X246410478Y-55988000D01*
X246409000Y-55988000D01*
X246323725Y-55983811D01*
X246156452Y-55950538D01*
X245998885Y-55885271D01*
X245857078Y-55790519D01*
X245736481Y-55669922D01*
X245641729Y-55528115D01*
X245576462Y-55370548D01*
X245543189Y-55203275D01*
X245543189Y-55032725D01*
X245576462Y-54865452D01*
X245641729Y-54707885D01*
X245736481Y-54566078D01*
X245857078Y-54445481D01*
X245998885Y-54350729D01*
X246156452Y-54285462D01*
X246323725Y-54252189D01*
X246409000Y-54248000D01*
X246859000Y-54248000D01*
X246944275Y-54252189D01*
G37*
G36*
X198636664Y-54309602D02*
G01*
X198799000Y-54381878D01*
X198942761Y-54486327D01*
X199061664Y-54618383D01*
X199150514Y-54772274D01*
X199205425Y-54941275D01*
X199224000Y-55118000D01*
X199205425Y-55294725D01*
X199150514Y-55463726D01*
X199061664Y-55617617D01*
X198942761Y-55749673D01*
X198799000Y-55854122D01*
X198636664Y-55926398D01*
X198462849Y-55963344D01*
X198285151Y-55963344D01*
X198111336Y-55926398D01*
X197949000Y-55854122D01*
X197805239Y-55749673D01*
X197686336Y-55617617D01*
X197597486Y-55463726D01*
X197542575Y-55294725D01*
X197524000Y-55118000D01*
X197542575Y-54941275D01*
X197597486Y-54772274D01*
X197686336Y-54618383D01*
X197805239Y-54486327D01*
X197949000Y-54381878D01*
X198111336Y-54309602D01*
X198285151Y-54272656D01*
X198462849Y-54272656D01*
X198636664Y-54309602D01*
G37*
G36*
X214950000Y-55880000D02*
G01*
X212650000Y-55880000D01*
X212650000Y-54180000D01*
X214950000Y-54180000D01*
X214950000Y-55880000D01*
G37*
G36*
X240350000Y-55880000D02*
G01*
X238050000Y-55880000D01*
X238050000Y-54180000D01*
X240350000Y-54180000D01*
X240350000Y-55880000D01*
G37*
G36*
X255786664Y-52023602D02*
G01*
X255949000Y-52095878D01*
X256092761Y-52200327D01*
X256211664Y-52332383D01*
X256300514Y-52486274D01*
X256355425Y-52655275D01*
X256374000Y-52832000D01*
X256355425Y-53008725D01*
X256300514Y-53177726D01*
X256211664Y-53331617D01*
X256092761Y-53463673D01*
X255949000Y-53568122D01*
X255786664Y-53640398D01*
X255612849Y-53677344D01*
X255435151Y-53677344D01*
X255261336Y-53640398D01*
X255099000Y-53568122D01*
X254955239Y-53463673D01*
X254836336Y-53331617D01*
X254747486Y-53177726D01*
X254692575Y-53008725D01*
X254674000Y-52832000D01*
X254692575Y-52655275D01*
X254747486Y-52486274D01*
X254836336Y-52332383D01*
X254955239Y-52200327D01*
X255099000Y-52095878D01*
X255261336Y-52023602D01*
X255435151Y-51986656D01*
X255612849Y-51986656D01*
X255786664Y-52023602D01*
G37*
G36*
X208082275Y-51712189D02*
G01*
X208249548Y-51745462D01*
X208407115Y-51810729D01*
X208548922Y-51905481D01*
X208669519Y-52026078D01*
X208764271Y-52167885D01*
X208829538Y-52325452D01*
X208862811Y-52492725D01*
X208862811Y-52663275D01*
X208829538Y-52830548D01*
X208764271Y-52988115D01*
X208669519Y-53129922D01*
X208548922Y-53250519D01*
X208407115Y-53345271D01*
X208249548Y-53410538D01*
X208082275Y-53443811D01*
X207997000Y-53448000D01*
X207995522Y-53448000D01*
X207548478Y-53448000D01*
X207547000Y-53448000D01*
X207461725Y-53443811D01*
X207294452Y-53410538D01*
X207136885Y-53345271D01*
X206995078Y-53250519D01*
X206874481Y-53129922D01*
X206779729Y-52988115D01*
X206714462Y-52830548D01*
X206681189Y-52663275D01*
X206681189Y-52492725D01*
X206714462Y-52325452D01*
X206779729Y-52167885D01*
X206874481Y-52026078D01*
X206995078Y-51905481D01*
X207136885Y-51810729D01*
X207294452Y-51745462D01*
X207461725Y-51712189D01*
X207547000Y-51708000D01*
X207997000Y-51708000D01*
X208082275Y-51712189D01*
G37*
G36*
X246944275Y-51712189D02*
G01*
X247111548Y-51745462D01*
X247269115Y-51810729D01*
X247410922Y-51905481D01*
X247531519Y-52026078D01*
X247626271Y-52167885D01*
X247691538Y-52325452D01*
X247724811Y-52492725D01*
X247724811Y-52663275D01*
X247691538Y-52830548D01*
X247626271Y-52988115D01*
X247531519Y-53129922D01*
X247410922Y-53250519D01*
X247269115Y-53345271D01*
X247111548Y-53410538D01*
X246944275Y-53443811D01*
X246859000Y-53448000D01*
X246857522Y-53448000D01*
X246410478Y-53448000D01*
X246409000Y-53448000D01*
X246323725Y-53443811D01*
X246156452Y-53410538D01*
X245998885Y-53345271D01*
X245857078Y-53250519D01*
X245736481Y-53129922D01*
X245641729Y-52988115D01*
X245576462Y-52830548D01*
X245543189Y-52663275D01*
X245543189Y-52492725D01*
X245576462Y-52325452D01*
X245641729Y-52167885D01*
X245736481Y-52026078D01*
X245857078Y-51905481D01*
X245998885Y-51810729D01*
X246156452Y-51745462D01*
X246323725Y-51712189D01*
X246409000Y-51708000D01*
X246859000Y-51708000D01*
X246944275Y-51712189D01*
G37*
G36*
X198636664Y-51769602D02*
G01*
X198799000Y-51841878D01*
X198942761Y-51946327D01*
X199061664Y-52078383D01*
X199150514Y-52232274D01*
X199205425Y-52401275D01*
X199224000Y-52578000D01*
X199205425Y-52754725D01*
X199150514Y-52923726D01*
X199061664Y-53077617D01*
X198942761Y-53209673D01*
X198799000Y-53314122D01*
X198636664Y-53386398D01*
X198462849Y-53423344D01*
X198285151Y-53423344D01*
X198111336Y-53386398D01*
X197949000Y-53314122D01*
X197805239Y-53209673D01*
X197686336Y-53077617D01*
X197597486Y-52923726D01*
X197542575Y-52754725D01*
X197524000Y-52578000D01*
X197542575Y-52401275D01*
X197597486Y-52232274D01*
X197686336Y-52078383D01*
X197805239Y-51946327D01*
X197949000Y-51841878D01*
X198111336Y-51769602D01*
X198285151Y-51732656D01*
X198462849Y-51732656D01*
X198636664Y-51769602D01*
G37*
G36*
X214950000Y-53340000D02*
G01*
X212650000Y-53340000D01*
X212650000Y-51640000D01*
X214950000Y-51640000D01*
X214950000Y-53340000D01*
G37*
G36*
X240350000Y-53340000D02*
G01*
X238050000Y-53340000D01*
X238050000Y-51640000D01*
X240350000Y-51640000D01*
X240350000Y-53340000D01*
G37*
G36*
X255786664Y-49483602D02*
G01*
X255949000Y-49555878D01*
X256092761Y-49660327D01*
X256211664Y-49792383D01*
X256300514Y-49946274D01*
X256355425Y-50115275D01*
X256374000Y-50292000D01*
X256355425Y-50468725D01*
X256300514Y-50637726D01*
X256211664Y-50791617D01*
X256092761Y-50923673D01*
X255949000Y-51028122D01*
X255786664Y-51100398D01*
X255612849Y-51137344D01*
X255435151Y-51137344D01*
X255261336Y-51100398D01*
X255099000Y-51028122D01*
X254955239Y-50923673D01*
X254836336Y-50791617D01*
X254747486Y-50637726D01*
X254692575Y-50468725D01*
X254674000Y-50292000D01*
X254692575Y-50115275D01*
X254747486Y-49946274D01*
X254836336Y-49792383D01*
X254955239Y-49660327D01*
X255099000Y-49555878D01*
X255261336Y-49483602D01*
X255435151Y-49446656D01*
X255612849Y-49446656D01*
X255786664Y-49483602D01*
G37*
G36*
X208082275Y-49172189D02*
G01*
X208249548Y-49205462D01*
X208407115Y-49270729D01*
X208548922Y-49365481D01*
X208669519Y-49486078D01*
X208764271Y-49627885D01*
X208829538Y-49785452D01*
X208862811Y-49952725D01*
X208862811Y-50123275D01*
X208829538Y-50290548D01*
X208764271Y-50448115D01*
X208669519Y-50589922D01*
X208548922Y-50710519D01*
X208407115Y-50805271D01*
X208249548Y-50870538D01*
X208082275Y-50903811D01*
X207997000Y-50908000D01*
X207995522Y-50908000D01*
X207548478Y-50908000D01*
X207547000Y-50908000D01*
X207461725Y-50903811D01*
X207294452Y-50870538D01*
X207136885Y-50805271D01*
X206995078Y-50710519D01*
X206874481Y-50589922D01*
X206779729Y-50448115D01*
X206714462Y-50290548D01*
X206681189Y-50123275D01*
X206681189Y-49952725D01*
X206714462Y-49785452D01*
X206779729Y-49627885D01*
X206874481Y-49486078D01*
X206995078Y-49365481D01*
X207136885Y-49270729D01*
X207294452Y-49205462D01*
X207461725Y-49172189D01*
X207547000Y-49168000D01*
X207997000Y-49168000D01*
X208082275Y-49172189D01*
G37*
G36*
X246944275Y-49172189D02*
G01*
X247111548Y-49205462D01*
X247269115Y-49270729D01*
X247410922Y-49365481D01*
X247531519Y-49486078D01*
X247626271Y-49627885D01*
X247691538Y-49785452D01*
X247724811Y-49952725D01*
X247724811Y-50123275D01*
X247691538Y-50290548D01*
X247626271Y-50448115D01*
X247531519Y-50589922D01*
X247410922Y-50710519D01*
X247269115Y-50805271D01*
X247111548Y-50870538D01*
X246944275Y-50903811D01*
X246859000Y-50908000D01*
X246857522Y-50908000D01*
X246410478Y-50908000D01*
X246409000Y-50908000D01*
X246323725Y-50903811D01*
X246156452Y-50870538D01*
X245998885Y-50805271D01*
X245857078Y-50710519D01*
X245736481Y-50589922D01*
X245641729Y-50448115D01*
X245576462Y-50290548D01*
X245543189Y-50123275D01*
X245543189Y-49952725D01*
X245576462Y-49785452D01*
X245641729Y-49627885D01*
X245736481Y-49486078D01*
X245857078Y-49365481D01*
X245998885Y-49270729D01*
X246156452Y-49205462D01*
X246323725Y-49172189D01*
X246409000Y-49168000D01*
X246859000Y-49168000D01*
X246944275Y-49172189D01*
G37*
G36*
X198636664Y-49229602D02*
G01*
X198799000Y-49301878D01*
X198942761Y-49406327D01*
X199061664Y-49538383D01*
X199150514Y-49692274D01*
X199205425Y-49861275D01*
X199224000Y-50038000D01*
X199205425Y-50214725D01*
X199150514Y-50383726D01*
X199061664Y-50537617D01*
X198942761Y-50669673D01*
X198799000Y-50774122D01*
X198636664Y-50846398D01*
X198462849Y-50883344D01*
X198285151Y-50883344D01*
X198111336Y-50846398D01*
X197949000Y-50774122D01*
X197805239Y-50669673D01*
X197686336Y-50537617D01*
X197597486Y-50383726D01*
X197542575Y-50214725D01*
X197524000Y-50038000D01*
X197542575Y-49861275D01*
X197597486Y-49692274D01*
X197686336Y-49538383D01*
X197805239Y-49406327D01*
X197949000Y-49301878D01*
X198111336Y-49229602D01*
X198285151Y-49192656D01*
X198462849Y-49192656D01*
X198636664Y-49229602D01*
G37*
G36*
X214950000Y-50800000D02*
G01*
X212650000Y-50800000D01*
X212650000Y-49100000D01*
X214950000Y-49100000D01*
X214950000Y-50800000D01*
G37*
G36*
X240350000Y-50800000D02*
G01*
X238050000Y-50800000D01*
X238050000Y-49100000D01*
X240350000Y-49100000D01*
X240350000Y-50800000D01*
G37*
G36*
X255786664Y-46943602D02*
G01*
X255949000Y-47015878D01*
X256092761Y-47120327D01*
X256211664Y-47252383D01*
X256300514Y-47406274D01*
X256355425Y-47575275D01*
X256374000Y-47752000D01*
X256355425Y-47928725D01*
X256300514Y-48097726D01*
X256211664Y-48251617D01*
X256092761Y-48383673D01*
X255949000Y-48488122D01*
X255786664Y-48560398D01*
X255612849Y-48597344D01*
X255435151Y-48597344D01*
X255261336Y-48560398D01*
X255099000Y-48488122D01*
X254955239Y-48383673D01*
X254836336Y-48251617D01*
X254747486Y-48097726D01*
X254692575Y-47928725D01*
X254674000Y-47752000D01*
X254692575Y-47575275D01*
X254747486Y-47406274D01*
X254836336Y-47252383D01*
X254955239Y-47120327D01*
X255099000Y-47015878D01*
X255261336Y-46943602D01*
X255435151Y-46906656D01*
X255612849Y-46906656D01*
X255786664Y-46943602D01*
G37*
G36*
X208082275Y-46632189D02*
G01*
X208249548Y-46665462D01*
X208407115Y-46730729D01*
X208548922Y-46825481D01*
X208669519Y-46946078D01*
X208764271Y-47087885D01*
X208829538Y-47245452D01*
X208862811Y-47412725D01*
X208862811Y-47583275D01*
X208829538Y-47750548D01*
X208764271Y-47908115D01*
X208669519Y-48049922D01*
X208548922Y-48170519D01*
X208407115Y-48265271D01*
X208249548Y-48330538D01*
X208082275Y-48363811D01*
X207997000Y-48368000D01*
X207995522Y-48368000D01*
X207548478Y-48368000D01*
X207547000Y-48368000D01*
X207461725Y-48363811D01*
X207294452Y-48330538D01*
X207136885Y-48265271D01*
X206995078Y-48170519D01*
X206874481Y-48049922D01*
X206779729Y-47908115D01*
X206714462Y-47750548D01*
X206681189Y-47583275D01*
X206681189Y-47412725D01*
X206714462Y-47245452D01*
X206779729Y-47087885D01*
X206874481Y-46946078D01*
X206995078Y-46825481D01*
X207136885Y-46730729D01*
X207294452Y-46665462D01*
X207461725Y-46632189D01*
X207547000Y-46628000D01*
X207997000Y-46628000D01*
X208082275Y-46632189D01*
G37*
G36*
X246944275Y-46632189D02*
G01*
X247111548Y-46665462D01*
X247269115Y-46730729D01*
X247410922Y-46825481D01*
X247531519Y-46946078D01*
X247626271Y-47087885D01*
X247691538Y-47245452D01*
X247724811Y-47412725D01*
X247724811Y-47583275D01*
X247691538Y-47750548D01*
X247626271Y-47908115D01*
X247531519Y-48049922D01*
X247410922Y-48170519D01*
X247269115Y-48265271D01*
X247111548Y-48330538D01*
X246944275Y-48363811D01*
X246859000Y-48368000D01*
X246857522Y-48368000D01*
X246410478Y-48368000D01*
X246409000Y-48368000D01*
X246323725Y-48363811D01*
X246156452Y-48330538D01*
X245998885Y-48265271D01*
X245857078Y-48170519D01*
X245736481Y-48049922D01*
X245641729Y-47908115D01*
X245576462Y-47750548D01*
X245543189Y-47583275D01*
X245543189Y-47412725D01*
X245576462Y-47245452D01*
X245641729Y-47087885D01*
X245736481Y-46946078D01*
X245857078Y-46825481D01*
X245998885Y-46730729D01*
X246156452Y-46665462D01*
X246323725Y-46632189D01*
X246409000Y-46628000D01*
X246859000Y-46628000D01*
X246944275Y-46632189D01*
G37*
G36*
X198636664Y-46689602D02*
G01*
X198799000Y-46761878D01*
X198942761Y-46866327D01*
X199061664Y-46998383D01*
X199150514Y-47152274D01*
X199205425Y-47321275D01*
X199224000Y-47498000D01*
X199205425Y-47674725D01*
X199150514Y-47843726D01*
X199061664Y-47997617D01*
X198942761Y-48129673D01*
X198799000Y-48234122D01*
X198636664Y-48306398D01*
X198462849Y-48343344D01*
X198285151Y-48343344D01*
X198111336Y-48306398D01*
X197949000Y-48234122D01*
X197805239Y-48129673D01*
X197686336Y-47997617D01*
X197597486Y-47843726D01*
X197542575Y-47674725D01*
X197524000Y-47498000D01*
X197542575Y-47321275D01*
X197597486Y-47152274D01*
X197686336Y-46998383D01*
X197805239Y-46866327D01*
X197949000Y-46761878D01*
X198111336Y-46689602D01*
X198285151Y-46652656D01*
X198462849Y-46652656D01*
X198636664Y-46689602D01*
G37*
G36*
X214950000Y-48260000D02*
G01*
X212650000Y-48260000D01*
X212650000Y-46560000D01*
X214950000Y-46560000D01*
X214950000Y-48260000D01*
G37*
G36*
X240350000Y-48260000D02*
G01*
X238050000Y-48260000D01*
X238050000Y-46560000D01*
X240350000Y-46560000D01*
X240350000Y-48260000D01*
G37*
G36*
X255786664Y-44403602D02*
G01*
X255949000Y-44475878D01*
X256092761Y-44580327D01*
X256211664Y-44712383D01*
X256300514Y-44866274D01*
X256355425Y-45035275D01*
X256374000Y-45212000D01*
X256355425Y-45388725D01*
X256300514Y-45557726D01*
X256211664Y-45711617D01*
X256092761Y-45843673D01*
X255949000Y-45948122D01*
X255786664Y-46020398D01*
X255612849Y-46057344D01*
X255435151Y-46057344D01*
X255261336Y-46020398D01*
X255099000Y-45948122D01*
X254955239Y-45843673D01*
X254836336Y-45711617D01*
X254747486Y-45557726D01*
X254692575Y-45388725D01*
X254674000Y-45212000D01*
X254692575Y-45035275D01*
X254747486Y-44866274D01*
X254836336Y-44712383D01*
X254955239Y-44580327D01*
X255099000Y-44475878D01*
X255261336Y-44403602D01*
X255435151Y-44366656D01*
X255612849Y-44366656D01*
X255786664Y-44403602D01*
G37*
G36*
X208082275Y-44092189D02*
G01*
X208249548Y-44125462D01*
X208407115Y-44190729D01*
X208548922Y-44285481D01*
X208669519Y-44406078D01*
X208764271Y-44547885D01*
X208829538Y-44705452D01*
X208862811Y-44872725D01*
X208862811Y-45043275D01*
X208829538Y-45210548D01*
X208764271Y-45368115D01*
X208669519Y-45509922D01*
X208548922Y-45630519D01*
X208407115Y-45725271D01*
X208249548Y-45790538D01*
X208082275Y-45823811D01*
X207997000Y-45828000D01*
X207995522Y-45828000D01*
X207548478Y-45828000D01*
X207547000Y-45828000D01*
X207461725Y-45823811D01*
X207294452Y-45790538D01*
X207136885Y-45725271D01*
X206995078Y-45630519D01*
X206874481Y-45509922D01*
X206779729Y-45368115D01*
X206714462Y-45210548D01*
X206681189Y-45043275D01*
X206681189Y-44872725D01*
X206714462Y-44705452D01*
X206779729Y-44547885D01*
X206874481Y-44406078D01*
X206995078Y-44285481D01*
X207136885Y-44190729D01*
X207294452Y-44125462D01*
X207461725Y-44092189D01*
X207547000Y-44088000D01*
X207997000Y-44088000D01*
X208082275Y-44092189D01*
G37*
G36*
X246944275Y-44092189D02*
G01*
X247111548Y-44125462D01*
X247269115Y-44190729D01*
X247410922Y-44285481D01*
X247531519Y-44406078D01*
X247626271Y-44547885D01*
X247691538Y-44705452D01*
X247724811Y-44872725D01*
X247724811Y-45043275D01*
X247691538Y-45210548D01*
X247626271Y-45368115D01*
X247531519Y-45509922D01*
X247410922Y-45630519D01*
X247269115Y-45725271D01*
X247111548Y-45790538D01*
X246944275Y-45823811D01*
X246859000Y-45828000D01*
X246857522Y-45828000D01*
X246410478Y-45828000D01*
X246409000Y-45828000D01*
X246323725Y-45823811D01*
X246156452Y-45790538D01*
X245998885Y-45725271D01*
X245857078Y-45630519D01*
X245736481Y-45509922D01*
X245641729Y-45368115D01*
X245576462Y-45210548D01*
X245543189Y-45043275D01*
X245543189Y-44872725D01*
X245576462Y-44705452D01*
X245641729Y-44547885D01*
X245736481Y-44406078D01*
X245857078Y-44285481D01*
X245998885Y-44190729D01*
X246156452Y-44125462D01*
X246323725Y-44092189D01*
X246409000Y-44088000D01*
X246859000Y-44088000D01*
X246944275Y-44092189D01*
G37*
G36*
X198636664Y-44149602D02*
G01*
X198799000Y-44221878D01*
X198942761Y-44326327D01*
X199061664Y-44458383D01*
X199150514Y-44612274D01*
X199205425Y-44781275D01*
X199224000Y-44958000D01*
X199205425Y-45134725D01*
X199150514Y-45303726D01*
X199061664Y-45457617D01*
X198942761Y-45589673D01*
X198799000Y-45694122D01*
X198636664Y-45766398D01*
X198462849Y-45803344D01*
X198285151Y-45803344D01*
X198111336Y-45766398D01*
X197949000Y-45694122D01*
X197805239Y-45589673D01*
X197686336Y-45457617D01*
X197597486Y-45303726D01*
X197542575Y-45134725D01*
X197524000Y-44958000D01*
X197542575Y-44781275D01*
X197597486Y-44612274D01*
X197686336Y-44458383D01*
X197805239Y-44326327D01*
X197949000Y-44221878D01*
X198111336Y-44149602D01*
X198285151Y-44112656D01*
X198462849Y-44112656D01*
X198636664Y-44149602D01*
G37*
G36*
X214950000Y-45720000D02*
G01*
X212650000Y-45720000D01*
X212650000Y-44020000D01*
X214950000Y-44020000D01*
X214950000Y-45720000D01*
G37*
G36*
X240350000Y-45720000D02*
G01*
X238050000Y-45720000D01*
X238050000Y-44020000D01*
X240350000Y-44020000D01*
X240350000Y-45720000D01*
G37*
G36*
X255786664Y-41863602D02*
G01*
X255949000Y-41935878D01*
X256092761Y-42040327D01*
X256211664Y-42172383D01*
X256300514Y-42326274D01*
X256355425Y-42495275D01*
X256374000Y-42672000D01*
X256355425Y-42848725D01*
X256300514Y-43017726D01*
X256211664Y-43171617D01*
X256092761Y-43303673D01*
X255949000Y-43408122D01*
X255786664Y-43480398D01*
X255612849Y-43517344D01*
X255435151Y-43517344D01*
X255261336Y-43480398D01*
X255099000Y-43408122D01*
X254955239Y-43303673D01*
X254836336Y-43171617D01*
X254747486Y-43017726D01*
X254692575Y-42848725D01*
X254674000Y-42672000D01*
X254692575Y-42495275D01*
X254747486Y-42326274D01*
X254836336Y-42172383D01*
X254955239Y-42040327D01*
X255099000Y-41935878D01*
X255261336Y-41863602D01*
X255435151Y-41826656D01*
X255612849Y-41826656D01*
X255786664Y-41863602D01*
G37*
G36*
X208082275Y-41552189D02*
G01*
X208249548Y-41585462D01*
X208407115Y-41650729D01*
X208548922Y-41745481D01*
X208669519Y-41866078D01*
X208764271Y-42007885D01*
X208829538Y-42165452D01*
X208862811Y-42332725D01*
X208862811Y-42503275D01*
X208829538Y-42670548D01*
X208764271Y-42828115D01*
X208669519Y-42969922D01*
X208548922Y-43090519D01*
X208407115Y-43185271D01*
X208249548Y-43250538D01*
X208082275Y-43283811D01*
X207997000Y-43288000D01*
X207995522Y-43288000D01*
X207548478Y-43288000D01*
X207547000Y-43288000D01*
X207461725Y-43283811D01*
X207294452Y-43250538D01*
X207136885Y-43185271D01*
X206995078Y-43090519D01*
X206874481Y-42969922D01*
X206779729Y-42828115D01*
X206714462Y-42670548D01*
X206681189Y-42503275D01*
X206681189Y-42332725D01*
X206714462Y-42165452D01*
X206779729Y-42007885D01*
X206874481Y-41866078D01*
X206995078Y-41745481D01*
X207136885Y-41650729D01*
X207294452Y-41585462D01*
X207461725Y-41552189D01*
X207547000Y-41548000D01*
X207997000Y-41548000D01*
X208082275Y-41552189D01*
G37*
G36*
X246944275Y-41552189D02*
G01*
X247111548Y-41585462D01*
X247269115Y-41650729D01*
X247410922Y-41745481D01*
X247531519Y-41866078D01*
X247626271Y-42007885D01*
X247691538Y-42165452D01*
X247724811Y-42332725D01*
X247724811Y-42503275D01*
X247691538Y-42670548D01*
X247626271Y-42828115D01*
X247531519Y-42969922D01*
X247410922Y-43090519D01*
X247269115Y-43185271D01*
X247111548Y-43250538D01*
X246944275Y-43283811D01*
X246859000Y-43288000D01*
X246857522Y-43288000D01*
X246410478Y-43288000D01*
X246409000Y-43288000D01*
X246323725Y-43283811D01*
X246156452Y-43250538D01*
X245998885Y-43185271D01*
X245857078Y-43090519D01*
X245736481Y-42969922D01*
X245641729Y-42828115D01*
X245576462Y-42670548D01*
X245543189Y-42503275D01*
X245543189Y-42332725D01*
X245576462Y-42165452D01*
X245641729Y-42007885D01*
X245736481Y-41866078D01*
X245857078Y-41745481D01*
X245998885Y-41650729D01*
X246156452Y-41585462D01*
X246323725Y-41552189D01*
X246409000Y-41548000D01*
X246859000Y-41548000D01*
X246944275Y-41552189D01*
G37*
G36*
X198636664Y-41609602D02*
G01*
X198799000Y-41681878D01*
X198942761Y-41786327D01*
X199061664Y-41918383D01*
X199150514Y-42072274D01*
X199205425Y-42241275D01*
X199224000Y-42418000D01*
X199205425Y-42594725D01*
X199150514Y-42763726D01*
X199061664Y-42917617D01*
X198942761Y-43049673D01*
X198799000Y-43154122D01*
X198636664Y-43226398D01*
X198462849Y-43263344D01*
X198285151Y-43263344D01*
X198111336Y-43226398D01*
X197949000Y-43154122D01*
X197805239Y-43049673D01*
X197686336Y-42917617D01*
X197597486Y-42763726D01*
X197542575Y-42594725D01*
X197524000Y-42418000D01*
X197542575Y-42241275D01*
X197597486Y-42072274D01*
X197686336Y-41918383D01*
X197805239Y-41786327D01*
X197949000Y-41681878D01*
X198111336Y-41609602D01*
X198285151Y-41572656D01*
X198462849Y-41572656D01*
X198636664Y-41609602D01*
G37*
G36*
X214950000Y-43180000D02*
G01*
X212650000Y-43180000D01*
X212650000Y-41480000D01*
X214950000Y-41480000D01*
X214950000Y-43180000D01*
G37*
G36*
X240350000Y-43180000D02*
G01*
X238050000Y-43180000D01*
X238050000Y-41480000D01*
X240350000Y-41480000D01*
X240350000Y-43180000D01*
G37*
G36*
X256374000Y-40982000D02*
G01*
X254674000Y-40982000D01*
X254674000Y-39282000D01*
X256374000Y-39282000D01*
X256374000Y-40982000D01*
G37*
G36*
X208621850Y-39008964D02*
G01*
X208672040Y-39014787D01*
X208689189Y-39022359D01*
X208712671Y-39027030D01*
X208737810Y-39043827D01*
X208757696Y-39052608D01*
X208771277Y-39066189D01*
X208793777Y-39081223D01*
X208808810Y-39103722D01*
X208822391Y-39117303D01*
X208831170Y-39137186D01*
X208847970Y-39162329D01*
X208852641Y-39185812D01*
X208860212Y-39202959D01*
X208866033Y-39253139D01*
X208867000Y-39258000D01*
X208867000Y-40498000D01*
X208866032Y-40502863D01*
X208860212Y-40553040D01*
X208852641Y-40570185D01*
X208847970Y-40593671D01*
X208831169Y-40618815D01*
X208822391Y-40638696D01*
X208808812Y-40652274D01*
X208793777Y-40674777D01*
X208771274Y-40689812D01*
X208757696Y-40703391D01*
X208737815Y-40712169D01*
X208712671Y-40728970D01*
X208689185Y-40733641D01*
X208672040Y-40741212D01*
X208621861Y-40747032D01*
X208617000Y-40748000D01*
X206927000Y-40748000D01*
X206922138Y-40747032D01*
X206871959Y-40741212D01*
X206854812Y-40733641D01*
X206831329Y-40728970D01*
X206806186Y-40712170D01*
X206786303Y-40703391D01*
X206772722Y-40689810D01*
X206750223Y-40674777D01*
X206735189Y-40652277D01*
X206721608Y-40638696D01*
X206712827Y-40618810D01*
X206696030Y-40593671D01*
X206691359Y-40570189D01*
X206683787Y-40553040D01*
X206677964Y-40502849D01*
X206677000Y-40498000D01*
X206677000Y-39258000D01*
X206677964Y-39253150D01*
X206683787Y-39202959D01*
X206691359Y-39185808D01*
X206696030Y-39162329D01*
X206712826Y-39137191D01*
X206721608Y-39117303D01*
X206735191Y-39103719D01*
X206750223Y-39081223D01*
X206772719Y-39066191D01*
X206786303Y-39052608D01*
X206806191Y-39043826D01*
X206831329Y-39027030D01*
X206854808Y-39022359D01*
X206871959Y-39014787D01*
X206922151Y-39008964D01*
X206927000Y-39008000D01*
X208617000Y-39008000D01*
X208621850Y-39008964D01*
G37*
G36*
X247483850Y-39008964D02*
G01*
X247534040Y-39014787D01*
X247551189Y-39022359D01*
X247574671Y-39027030D01*
X247599810Y-39043827D01*
X247619696Y-39052608D01*
X247633277Y-39066189D01*
X247655777Y-39081223D01*
X247670810Y-39103722D01*
X247684391Y-39117303D01*
X247693170Y-39137186D01*
X247709970Y-39162329D01*
X247714641Y-39185812D01*
X247722212Y-39202959D01*
X247728033Y-39253139D01*
X247729000Y-39258000D01*
X247729000Y-40498000D01*
X247728032Y-40502863D01*
X247722212Y-40553040D01*
X247714641Y-40570185D01*
X247709970Y-40593671D01*
X247693169Y-40618815D01*
X247684391Y-40638696D01*
X247670812Y-40652274D01*
X247655777Y-40674777D01*
X247633274Y-40689812D01*
X247619696Y-40703391D01*
X247599815Y-40712169D01*
X247574671Y-40728970D01*
X247551185Y-40733641D01*
X247534040Y-40741212D01*
X247483861Y-40747032D01*
X247479000Y-40748000D01*
X245789000Y-40748000D01*
X245784138Y-40747032D01*
X245733959Y-40741212D01*
X245716812Y-40733641D01*
X245693329Y-40728970D01*
X245668186Y-40712170D01*
X245648303Y-40703391D01*
X245634722Y-40689810D01*
X245612223Y-40674777D01*
X245597189Y-40652277D01*
X245583608Y-40638696D01*
X245574827Y-40618810D01*
X245558030Y-40593671D01*
X245553359Y-40570189D01*
X245545787Y-40553040D01*
X245539964Y-40502849D01*
X245539000Y-40498000D01*
X245539000Y-39258000D01*
X245539964Y-39253150D01*
X245545787Y-39202959D01*
X245553359Y-39185808D01*
X245558030Y-39162329D01*
X245574826Y-39137191D01*
X245583608Y-39117303D01*
X245597191Y-39103719D01*
X245612223Y-39081223D01*
X245634719Y-39066191D01*
X245648303Y-39052608D01*
X245668191Y-39043826D01*
X245693329Y-39027030D01*
X245716808Y-39022359D01*
X245733959Y-39014787D01*
X245784151Y-39008964D01*
X245789000Y-39008000D01*
X247479000Y-39008000D01*
X247483850Y-39008964D01*
G37*
G36*
X199224000Y-40728000D02*
G01*
X197524000Y-40728000D01*
X197524000Y-39028000D01*
X199224000Y-39028000D01*
X199224000Y-40728000D01*
G37*
G36*
X214950000Y-40640000D02*
G01*
X212650000Y-40640000D01*
X212650000Y-38940000D01*
X214950000Y-38940000D01*
X214950000Y-40640000D01*
G37*
G36*
X240350000Y-40640000D02*
G01*
X238050000Y-40640000D01*
X238050000Y-38940000D01*
X240350000Y-38940000D01*
X240350000Y-40640000D01*
G37*
M02*
