%TF.GenerationSoftware,KiCad,Pcbnew,8.0.7*%
%TF.CreationDate,2025-01-22T20:40:01+05:30*%
%TF.ProjectId,Esp_Test,4573705f-5465-4737-942e-6b696361645f,rev?*%
%TF.SameCoordinates,Original*%
%TF.FileFunction,Drillmap*%
%TF.FilePolarity,Positive*%
%FSLAX45Y45*%
G04 Gerber Fmt 4.5, Leading zero omitted, Abs format (unit mm)*
G04 Created by KiCad (PCBNEW 8.0.7) date 2025-01-22 20:40:01*
%MOMM*%
%LPD*%
G01*
G04 APERTURE LIST*
%ADD10C,0.038100*%
%ADD11C,0.200000*%
G04 APERTURE END LIST*
D10*
X25835000Y-3581400D02*
G75*
G02*
X26035000Y-3781400I0J-200000D01*
G01*
X19656400Y-3581400D02*
X25835000Y-3581400D01*
X19456400Y-3781400D02*
G75*
G02*
X19656400Y-3581400I200000J0D01*
G01*
X19656400Y-8737600D02*
X25835000Y-8737600D01*
X26035000Y-8737600D02*
X26035000Y-8737600D01*
X26035000Y-3781400D02*
X26035000Y-8537600D01*
X19656400Y-8737600D02*
G75*
G02*
X19456400Y-8537600I0J200000D01*
G01*
X26035000Y-8537600D02*
G75*
G02*
X25835000Y-8737600I-200000J0D01*
G01*
X19456400Y-8537600D02*
X19456400Y-3781400D01*
D11*
X19715272Y-9050989D02*
X19715272Y-8850989D01*
X19715272Y-8850989D02*
X19762891Y-8850989D01*
X19762891Y-8850989D02*
X19791462Y-8860513D01*
X19791462Y-8860513D02*
X19810510Y-8879560D01*
X19810510Y-8879560D02*
X19820034Y-8898608D01*
X19820034Y-8898608D02*
X19829558Y-8936703D01*
X19829558Y-8936703D02*
X19829558Y-8965275D01*
X19829558Y-8965275D02*
X19820034Y-9003370D01*
X19820034Y-9003370D02*
X19810510Y-9022417D01*
X19810510Y-9022417D02*
X19791462Y-9041465D01*
X19791462Y-9041465D02*
X19762891Y-9050989D01*
X19762891Y-9050989D02*
X19715272Y-9050989D01*
X19915272Y-9050989D02*
X19915272Y-8917655D01*
X19915272Y-8955751D02*
X19924796Y-8936703D01*
X19924796Y-8936703D02*
X19934319Y-8927179D01*
X19934319Y-8927179D02*
X19953367Y-8917655D01*
X19953367Y-8917655D02*
X19972415Y-8917655D01*
X20039081Y-9050989D02*
X20039081Y-8917655D01*
X20039081Y-8850989D02*
X20029558Y-8860513D01*
X20029558Y-8860513D02*
X20039081Y-8870036D01*
X20039081Y-8870036D02*
X20048605Y-8860513D01*
X20048605Y-8860513D02*
X20039081Y-8850989D01*
X20039081Y-8850989D02*
X20039081Y-8870036D01*
X20162891Y-9050989D02*
X20143843Y-9041465D01*
X20143843Y-9041465D02*
X20134319Y-9022417D01*
X20134319Y-9022417D02*
X20134319Y-8850989D01*
X20267653Y-9050989D02*
X20248605Y-9041465D01*
X20248605Y-9041465D02*
X20239081Y-9022417D01*
X20239081Y-9022417D02*
X20239081Y-8850989D01*
X20496224Y-9050989D02*
X20496224Y-8850989D01*
X20496224Y-8850989D02*
X20562891Y-8993846D01*
X20562891Y-8993846D02*
X20629558Y-8850989D01*
X20629558Y-8850989D02*
X20629558Y-9050989D01*
X20810510Y-9050989D02*
X20810510Y-8946227D01*
X20810510Y-8946227D02*
X20800986Y-8927179D01*
X20800986Y-8927179D02*
X20781939Y-8917655D01*
X20781939Y-8917655D02*
X20743843Y-8917655D01*
X20743843Y-8917655D02*
X20724796Y-8927179D01*
X20810510Y-9041465D02*
X20791462Y-9050989D01*
X20791462Y-9050989D02*
X20743843Y-9050989D01*
X20743843Y-9050989D02*
X20724796Y-9041465D01*
X20724796Y-9041465D02*
X20715272Y-9022417D01*
X20715272Y-9022417D02*
X20715272Y-9003370D01*
X20715272Y-9003370D02*
X20724796Y-8984322D01*
X20724796Y-8984322D02*
X20743843Y-8974798D01*
X20743843Y-8974798D02*
X20791462Y-8974798D01*
X20791462Y-8974798D02*
X20810510Y-8965275D01*
X20905748Y-8917655D02*
X20905748Y-9117655D01*
X20905748Y-8927179D02*
X20924796Y-8917655D01*
X20924796Y-8917655D02*
X20962891Y-8917655D01*
X20962891Y-8917655D02*
X20981939Y-8927179D01*
X20981939Y-8927179D02*
X20991462Y-8936703D01*
X20991462Y-8936703D02*
X21000986Y-8955751D01*
X21000986Y-8955751D02*
X21000986Y-9012894D01*
X21000986Y-9012894D02*
X20991462Y-9031941D01*
X20991462Y-9031941D02*
X20981939Y-9041465D01*
X20981939Y-9041465D02*
X20962891Y-9050989D01*
X20962891Y-9050989D02*
X20924796Y-9050989D01*
X20924796Y-9050989D02*
X20905748Y-9041465D01*
X21086700Y-9031941D02*
X21096224Y-9041465D01*
X21096224Y-9041465D02*
X21086700Y-9050989D01*
X21086700Y-9050989D02*
X21077177Y-9041465D01*
X21077177Y-9041465D02*
X21086700Y-9031941D01*
X21086700Y-9031941D02*
X21086700Y-9050989D01*
X21086700Y-8927179D02*
X21096224Y-8936703D01*
X21096224Y-8936703D02*
X21086700Y-8946227D01*
X21086700Y-8946227D02*
X21077177Y-8936703D01*
X21077177Y-8936703D02*
X21086700Y-8927179D01*
X21086700Y-8927179D02*
X21086700Y-8946227D01*
M02*
