M48
; DRILL file {KiCad 8.0.7} date 2025-01-22T20:40:00+0530
; FORMAT={-:-/ absolute / metric / decimal}
; #@! TF.CreationDate,2025-01-22T20:40:00+05:30
; #@! TF.GenerationSoftware,Kicad,Pcbnew,8.0.7
; #@! TF.FileFunction,Plated,1,2,PTH
FMAT,2
METRIC
; #@! TA.AperFunction,Plated,PTH,ComponentDrill
T1C0.700
; #@! TA.AperFunction,Plated,PTH,ComponentDrill
T2C0.900
; #@! TA.AperFunction,Plated,PTH,ComponentDrill
T3C1.000
; #@! TA.AperFunction,Plated,PTH,ComponentDrill
T4C1.190
%
G90
G05
T1
X202.692Y-78.486
X202.692Y-86.106
X251.714Y-78.232
X251.714Y-85.852
T2
X206.751Y-81.534
X209.291Y-81.534
X245.618Y-81.28
X248.158Y-81.28
T3
X198.12Y-81.026
X198.374Y-39.878
X198.374Y-42.418
X198.374Y-44.958
X198.374Y-47.498
X198.374Y-50.038
X198.374Y-52.578
X198.374Y-55.118
X198.374Y-57.658
X198.374Y-60.198
X198.374Y-62.738
X198.374Y-65.278
X198.374Y-67.818
X198.374Y-70.358
X198.374Y-72.898
X198.374Y-75.438
X213.8Y-39.79
X213.8Y-42.33
X213.8Y-44.87
X213.8Y-47.41
X213.8Y-49.95
X213.8Y-52.49
X213.8Y-55.03
X213.8Y-57.57
X213.8Y-60.11
X213.8Y-62.65
X213.8Y-65.19
X213.8Y-67.73
X213.8Y-70.27
X213.8Y-72.81
X213.8Y-75.35
X239.2Y-39.79
X239.2Y-42.33
X239.2Y-44.87
X239.2Y-47.41
X239.2Y-49.95
X239.2Y-52.49
X239.2Y-55.03
X239.2Y-57.57
X239.2Y-60.11
X239.2Y-62.65
X239.2Y-65.19
X239.2Y-67.73
X239.2Y-70.27
X239.2Y-72.81
X239.2Y-75.35
X255.524Y-40.132
X255.524Y-42.672
X255.524Y-45.212
X255.524Y-47.752
X255.524Y-50.292
X255.524Y-52.832
X255.524Y-55.372
X255.524Y-57.912
X255.524Y-60.452
X255.524Y-62.992
X255.524Y-65.532
X255.524Y-68.072
X255.524Y-70.612
X255.524Y-73.152
X255.524Y-75.692
X255.524Y-81.28
T4
X207.772Y-39.878
X207.772Y-42.418
X207.772Y-44.958
X207.772Y-47.498
X207.772Y-50.038
X207.772Y-52.578
X207.772Y-55.118
X207.772Y-57.658
X207.772Y-60.198
X207.772Y-62.738
X207.772Y-65.278
X207.772Y-67.818
X207.772Y-70.358
X207.772Y-72.898
X207.772Y-75.438
X246.634Y-39.878
X246.634Y-42.418
X246.634Y-44.958
X246.634Y-47.498
X246.634Y-50.038
X246.634Y-52.578
X246.634Y-55.118
X246.634Y-57.658
X246.634Y-60.198
X246.634Y-62.738
X246.634Y-65.278
X246.634Y-67.818
X246.634Y-70.358
X246.634Y-72.898
X246.634Y-75.438
M30
