%TF.GenerationSoftware,KiCad,Pcbnew,8.0.7*%
%TF.CreationDate,2025-01-22T20:40:03+05:30*%
%TF.ProjectId,Esp_Test,4573705f-5465-4737-942e-6b696361645f,rev?*%
%TF.SameCoordinates,Original*%
%TF.FileFunction,Copper,L2,Bot*%
%TF.FilePolarity,Positive*%
%FSLAX46Y46*%
G04 Gerber Fmt 4.6, Leading zero omitted, Abs format (unit mm)*
G04 Created by KiCad (PCBNEW 8.0.7) date 2025-01-22 20:40:03*
%MOMM*%
%LPD*%
G01*
G04 APERTURE LIST*
G04 Aperture macros list*
%AMRoundRect*
0 Rectangle with rounded corners*
0 $1 Rounding radius*
0 $2 $3 $4 $5 $6 $7 $8 $9 X,Y pos of 4 corners*
0 Add a 4 corners polygon primitive as box body*
4,1,4,$2,$3,$4,$5,$6,$7,$8,$9,$2,$3,0*
0 Add four circle primitives for the rounded corners*
1,1,$1+$1,$2,$3*
1,1,$1+$1,$4,$5*
1,1,$1+$1,$6,$7*
1,1,$1+$1,$8,$9*
0 Add four rect primitives between the rounded corners*
20,1,$1+$1,$2,$3,$4,$5,0*
20,1,$1+$1,$4,$5,$6,$7,0*
20,1,$1+$1,$6,$7,$8,$9,0*
20,1,$1+$1,$8,$9,$2,$3,0*%
G04 Aperture macros list end*
%TA.AperFunction,ComponentPad*%
%ADD10R,1.700000X1.700000*%
%TD*%
%TA.AperFunction,ComponentPad*%
%ADD11RoundRect,0.250000X-0.845000X0.620000X-0.845000X-0.620000X0.845000X-0.620000X0.845000X0.620000X0*%
%TD*%
%TA.AperFunction,ComponentPad*%
%ADD12O,2.190000X1.740000*%
%TD*%
%TA.AperFunction,ComponentPad*%
%ADD13R,2.300000X1.700000*%
%TD*%
%TA.AperFunction,ComponentPad*%
%ADD14C,1.400000*%
%TD*%
%TA.AperFunction,ComponentPad*%
%ADD15O,1.400000X1.400000*%
%TD*%
%TA.AperFunction,ComponentPad*%
%ADD16O,1.700000X1.700000*%
%TD*%
%TA.AperFunction,ComponentPad*%
%ADD17R,1.800000X1.800000*%
%TD*%
%TA.AperFunction,ComponentPad*%
%ADD18C,1.800000*%
%TD*%
%TA.AperFunction,Conductor*%
%ADD19C,0.550000*%
%TD*%
%TA.AperFunction,Conductor*%
%ADD20C,0.600000*%
%TD*%
G04 APERTURE END LIST*
D10*
%TO.P,J3,1,Pin_1*%
%TO.N,Net-(J3-Pin_1)*%
X255524000Y-81280000D03*
%TD*%
%TO.P,J2,1,Pin_1*%
%TO.N,Net-(J2-Pin_1)*%
X198120000Y-81026000D03*
%TD*%
D11*
%TO.P,J4,1,Pin_1*%
%TO.N,Net-(J4-Pin_1)*%
X246634000Y-39878000D03*
D12*
%TO.P,J4,2,Pin_2*%
%TO.N,Net-(J4-Pin_2)*%
X246634000Y-42418000D03*
%TO.P,J4,3,Pin_3*%
%TO.N,Net-(J4-Pin_3)*%
X246634000Y-44958000D03*
%TO.P,J4,4,Pin_4*%
%TO.N,Net-(J4-Pin_4)*%
X246634000Y-47498000D03*
%TO.P,J4,5,Pin_5*%
%TO.N,Net-(J4-Pin_5)*%
X246634000Y-50038000D03*
%TO.P,J4,6,Pin_6*%
%TO.N,Net-(J4-Pin_6)*%
X246634000Y-52578000D03*
%TO.P,J4,7,Pin_7*%
%TO.N,Net-(J4-Pin_7)*%
X246634000Y-55118000D03*
%TO.P,J4,8,Pin_8*%
%TO.N,Net-(J4-Pin_8)*%
X246634000Y-57658000D03*
%TO.P,J4,9,Pin_9*%
%TO.N,Net-(J4-Pin_9)*%
X246634000Y-60198000D03*
%TO.P,J4,10,Pin_10*%
%TO.N,Net-(J4-Pin_10)*%
X246634000Y-62738000D03*
%TO.P,J4,11,Pin_11*%
%TO.N,Net-(J4-Pin_11)*%
X246634000Y-65278000D03*
%TO.P,J4,12,Pin_12*%
%TO.N,Net-(J4-Pin_12)*%
X246634000Y-67818000D03*
%TO.P,J4,13,Pin_13*%
%TO.N,Net-(J4-Pin_13)*%
X246634000Y-70358000D03*
%TO.P,J4,14,Pin_14*%
%TO.N,GND*%
X246634000Y-72898000D03*
%TO.P,J4,15,Pin_15*%
%TO.N,Net-(J4-Pin_15)*%
X246634000Y-75438000D03*
%TD*%
D13*
%TO.P,U1,1,EN*%
%TO.N,Net-(J1-Pin_1)*%
X213800000Y-39790000D03*
%TO.P,U1,2,SENSOR_VP*%
%TO.N,Net-(J1-Pin_2)*%
X213800000Y-42330000D03*
%TO.P,U1,3,SENSOR_VN*%
%TO.N,Net-(J1-Pin_3)*%
X213800000Y-44870000D03*
%TO.P,U1,4,IO34*%
%TO.N,Net-(J1-Pin_4)*%
X213800000Y-47410000D03*
%TO.P,U1,5,IO35*%
%TO.N,Net-(J1-Pin_5)*%
X213800000Y-49950000D03*
%TO.P,U1,6,IO32*%
%TO.N,Net-(J1-Pin_6)*%
X213800000Y-52490000D03*
%TO.P,U1,7,IO33*%
%TO.N,Net-(J1-Pin_7)*%
X213800000Y-55030000D03*
%TO.P,U1,8,IO25*%
%TO.N,Net-(J1-Pin_8)*%
X213800000Y-57570000D03*
%TO.P,U1,9,IO26*%
%TO.N,Net-(J1-Pin_9)*%
X213800000Y-60110000D03*
%TO.P,U1,10,IO27*%
%TO.N,Net-(J1-Pin_10)*%
X213800000Y-62650000D03*
%TO.P,U1,11,IO14*%
%TO.N,Net-(J1-Pin_11)*%
X213800000Y-65190000D03*
%TO.P,U1,12,IO12*%
%TO.N,Net-(J1-Pin_12)*%
X213800000Y-67730000D03*
%TO.P,U1,13,IO13*%
%TO.N,Net-(J1-Pin_13)*%
X213800000Y-70270000D03*
%TO.P,U1,14,GND*%
%TO.N,GND*%
X213800000Y-72810000D03*
%TO.P,U1,15,VIN*%
%TO.N,Net-(J1-Pin_15)*%
X213800000Y-75350000D03*
%TO.P,U1,16,3V3*%
%TO.N,Net-(J4-Pin_15)*%
X239200000Y-75350000D03*
%TO.P,U1,17,GND*%
%TO.N,GND*%
X239200000Y-72810000D03*
%TO.P,U1,18,IO15*%
%TO.N,Net-(J4-Pin_13)*%
X239200000Y-70270000D03*
%TO.P,U1,19,IO2*%
%TO.N,Net-(J4-Pin_12)*%
X239200000Y-67730000D03*
%TO.P,U1,20,IO4*%
%TO.N,Net-(J4-Pin_11)*%
X239200000Y-65190000D03*
%TO.P,U1,21,IO16*%
%TO.N,Net-(J4-Pin_10)*%
X239200000Y-62650000D03*
%TO.P,U1,22,IO17*%
%TO.N,Net-(J4-Pin_9)*%
X239200000Y-60110000D03*
%TO.P,U1,23,IO5*%
%TO.N,Net-(J4-Pin_8)*%
X239200000Y-57570000D03*
%TO.P,U1,24,IO18*%
%TO.N,Net-(J4-Pin_7)*%
X239200000Y-55030000D03*
%TO.P,U1,25,IO19*%
%TO.N,Net-(J4-Pin_6)*%
X239200000Y-52490000D03*
%TO.P,U1,26,IO21*%
%TO.N,Net-(J4-Pin_5)*%
X239200000Y-49950000D03*
%TO.P,U1,27,RXD0/IO3*%
%TO.N,Net-(J4-Pin_4)*%
X239200000Y-47410000D03*
%TO.P,U1,28,TXD0/IO1*%
%TO.N,Net-(J4-Pin_3)*%
X239200000Y-44870000D03*
%TO.P,U1,29,IO22*%
%TO.N,Net-(J4-Pin_2)*%
X239200000Y-42330000D03*
%TO.P,U1,30,IO23*%
%TO.N,Net-(J4-Pin_1)*%
X239200000Y-39790000D03*
%TD*%
D14*
%TO.P,R1,1*%
%TO.N,Net-(D1-A)*%
X202692000Y-86106000D03*
D15*
%TO.P,R1,2*%
%TO.N,Net-(J2-Pin_1)*%
X202692000Y-78486000D03*
%TD*%
D10*
%TO.P,J1,1,Pin_1*%
%TO.N,Net-(J1-Pin_1)*%
X198374000Y-39878000D03*
D16*
%TO.P,J1,2,Pin_2*%
%TO.N,Net-(J1-Pin_2)*%
X198374000Y-42418000D03*
%TO.P,J1,3,Pin_3*%
%TO.N,Net-(J1-Pin_3)*%
X198374000Y-44958000D03*
%TO.P,J1,4,Pin_4*%
%TO.N,Net-(J1-Pin_4)*%
X198374000Y-47498000D03*
%TO.P,J1,5,Pin_5*%
%TO.N,Net-(J1-Pin_5)*%
X198374000Y-50038000D03*
%TO.P,J1,6,Pin_6*%
%TO.N,Net-(J1-Pin_6)*%
X198374000Y-52578000D03*
%TO.P,J1,7,Pin_7*%
%TO.N,Net-(J1-Pin_7)*%
X198374000Y-55118000D03*
%TO.P,J1,8,Pin_8*%
%TO.N,Net-(J1-Pin_8)*%
X198374000Y-57658000D03*
%TO.P,J1,9,Pin_9*%
%TO.N,Net-(J1-Pin_9)*%
X198374000Y-60198000D03*
%TO.P,J1,10,Pin_10*%
%TO.N,Net-(J1-Pin_10)*%
X198374000Y-62738000D03*
%TO.P,J1,11,Pin_11*%
%TO.N,Net-(J1-Pin_11)*%
X198374000Y-65278000D03*
%TO.P,J1,12,Pin_12*%
%TO.N,Net-(J1-Pin_12)*%
X198374000Y-67818000D03*
%TO.P,J1,13,Pin_13*%
%TO.N,Net-(J1-Pin_13)*%
X198374000Y-70358000D03*
%TO.P,J1,14,Pin_14*%
%TO.N,GND*%
X198374000Y-72898000D03*
%TO.P,J1,15,Pin_15*%
%TO.N,Net-(J1-Pin_15)*%
X198374000Y-75438000D03*
%TD*%
D14*
%TO.P,R2,1*%
%TO.N,Net-(D2-A)*%
X251714000Y-78232000D03*
D15*
%TO.P,R2,2*%
%TO.N,Net-(J3-Pin_1)*%
X251714000Y-85852000D03*
%TD*%
D17*
%TO.P,D1,1,K*%
%TO.N,GND*%
X206751000Y-81534000D03*
D18*
%TO.P,D1,2,A*%
%TO.N,Net-(D1-A)*%
X209291000Y-81534000D03*
%TD*%
D11*
%TO.P,J5,1,Pin_1*%
%TO.N,Net-(J1-Pin_1)*%
X207772000Y-39878000D03*
D12*
%TO.P,J5,2,Pin_2*%
%TO.N,Net-(J1-Pin_2)*%
X207772000Y-42418000D03*
%TO.P,J5,3,Pin_3*%
%TO.N,Net-(J1-Pin_3)*%
X207772000Y-44958000D03*
%TO.P,J5,4,Pin_4*%
%TO.N,Net-(J1-Pin_4)*%
X207772000Y-47498000D03*
%TO.P,J5,5,Pin_5*%
%TO.N,Net-(J1-Pin_5)*%
X207772000Y-50038000D03*
%TO.P,J5,6,Pin_6*%
%TO.N,Net-(J1-Pin_6)*%
X207772000Y-52578000D03*
%TO.P,J5,7,Pin_7*%
%TO.N,Net-(J1-Pin_7)*%
X207772000Y-55118000D03*
%TO.P,J5,8,Pin_8*%
%TO.N,Net-(J1-Pin_8)*%
X207772000Y-57658000D03*
%TO.P,J5,9,Pin_9*%
%TO.N,Net-(J1-Pin_9)*%
X207772000Y-60198000D03*
%TO.P,J5,10,Pin_10*%
%TO.N,Net-(J1-Pin_10)*%
X207772000Y-62738000D03*
%TO.P,J5,11,Pin_11*%
%TO.N,Net-(J1-Pin_11)*%
X207772000Y-65278000D03*
%TO.P,J5,12,Pin_12*%
%TO.N,Net-(J1-Pin_12)*%
X207772000Y-67818000D03*
%TO.P,J5,13,Pin_13*%
%TO.N,Net-(J1-Pin_13)*%
X207772000Y-70358000D03*
%TO.P,J5,14,Pin_14*%
%TO.N,GND*%
X207772000Y-72898000D03*
%TO.P,J5,15,Pin_15*%
%TO.N,Net-(J1-Pin_15)*%
X207772000Y-75438000D03*
%TD*%
D17*
%TO.P,D2,1,K*%
%TO.N,GND*%
X248158000Y-81280000D03*
D18*
%TO.P,D2,2,A*%
%TO.N,Net-(D2-A)*%
X245618000Y-81280000D03*
%TD*%
D10*
%TO.P,J6,1,Pin_1*%
%TO.N,Net-(J4-Pin_1)*%
X255524000Y-40132000D03*
D16*
%TO.P,J6,2,Pin_2*%
%TO.N,Net-(J4-Pin_2)*%
X255524000Y-42672000D03*
%TO.P,J6,3,Pin_3*%
%TO.N,Net-(J4-Pin_3)*%
X255524000Y-45212000D03*
%TO.P,J6,4,Pin_4*%
%TO.N,Net-(J4-Pin_4)*%
X255524000Y-47752000D03*
%TO.P,J6,5,Pin_5*%
%TO.N,Net-(J4-Pin_5)*%
X255524000Y-50292000D03*
%TO.P,J6,6,Pin_6*%
%TO.N,Net-(J4-Pin_6)*%
X255524000Y-52832000D03*
%TO.P,J6,7,Pin_7*%
%TO.N,Net-(J4-Pin_7)*%
X255524000Y-55372000D03*
%TO.P,J6,8,Pin_8*%
%TO.N,Net-(J4-Pin_8)*%
X255524000Y-57912000D03*
%TO.P,J6,9,Pin_9*%
%TO.N,Net-(J4-Pin_9)*%
X255524000Y-60452000D03*
%TO.P,J6,10,Pin_10*%
%TO.N,Net-(J4-Pin_10)*%
X255524000Y-62992000D03*
%TO.P,J6,11,Pin_11*%
%TO.N,Net-(J4-Pin_11)*%
X255524000Y-65532000D03*
%TO.P,J6,12,Pin_12*%
%TO.N,Net-(J4-Pin_12)*%
X255524000Y-68072000D03*
%TO.P,J6,13,Pin_13*%
%TO.N,Net-(J4-Pin_13)*%
X255524000Y-70612000D03*
%TO.P,J6,14,Pin_14*%
%TO.N,GND*%
X255524000Y-73152000D03*
%TO.P,J6,15,Pin_15*%
%TO.N,Net-(J4-Pin_15)*%
X255524000Y-75692000D03*
%TD*%
D19*
%TO.N,Net-(J1-Pin_1)*%
X207772000Y-39878000D02*
X213712000Y-39878000D01*
X198374000Y-39878000D02*
X207772000Y-39878000D01*
X213712000Y-39878000D02*
X213800000Y-39790000D01*
D20*
%TO.N,Net-(J1-Pin_4)*%
X207860000Y-47410000D02*
X207772000Y-47498000D01*
X213800000Y-47410000D02*
X207860000Y-47410000D01*
X198374000Y-47498000D02*
X207772000Y-47498000D01*
%TO.N,Net-(J1-Pin_15)*%
X213800000Y-75350000D02*
X207860000Y-75350000D01*
X198374000Y-75438000D02*
X207772000Y-75438000D01*
X207860000Y-75350000D02*
X207772000Y-75438000D01*
%TO.N,Net-(J1-Pin_3)*%
X198374000Y-44958000D02*
X207772000Y-44958000D01*
X207860000Y-44870000D02*
X207772000Y-44958000D01*
X213800000Y-44870000D02*
X207860000Y-44870000D01*
%TO.N,Net-(J1-Pin_13)*%
X198374000Y-70358000D02*
X207772000Y-70358000D01*
X213800000Y-70270000D02*
X207860000Y-70270000D01*
X207860000Y-70270000D02*
X207772000Y-70358000D01*
%TO.N,Net-(J1-Pin_7)*%
X213800000Y-55030000D02*
X207860000Y-55030000D01*
X207860000Y-55030000D02*
X207772000Y-55118000D01*
X198374000Y-55118000D02*
X207772000Y-55118000D01*
%TO.N,Net-(J1-Pin_2)*%
X213712000Y-42418000D02*
X213800000Y-42330000D01*
X198374000Y-42418000D02*
X207772000Y-42418000D01*
X207772000Y-42418000D02*
X213712000Y-42418000D01*
%TO.N,Net-(J1-Pin_11)*%
X207860000Y-65190000D02*
X207772000Y-65278000D01*
X198374000Y-65278000D02*
X207772000Y-65278000D01*
X213800000Y-65190000D02*
X207860000Y-65190000D01*
%TO.N,Net-(J1-Pin_9)*%
X198374000Y-60198000D02*
X207772000Y-60198000D01*
X213800000Y-60110000D02*
X207860000Y-60110000D01*
X207860000Y-60110000D02*
X207772000Y-60198000D01*
%TO.N,Net-(J1-Pin_10)*%
X207860000Y-62650000D02*
X207772000Y-62738000D01*
X198374000Y-62738000D02*
X207772000Y-62738000D01*
X213800000Y-62650000D02*
X207860000Y-62650000D01*
%TO.N,GND*%
X239200000Y-72810000D02*
X246546000Y-72810000D01*
X213800000Y-72810000D02*
X207860000Y-72810000D01*
X218860000Y-72810000D02*
X213800000Y-72810000D01*
X239200000Y-72810000D02*
X232918000Y-72810000D01*
X207264000Y-78232000D02*
X218440000Y-78232000D01*
X206751000Y-81534000D02*
X206751000Y-78745000D01*
X248158000Y-83312000D02*
X247396000Y-84074000D01*
X232498000Y-72810000D02*
X232410000Y-72898000D01*
X240227000Y-84074000D02*
X232410000Y-76257000D01*
X247396000Y-84074000D02*
X240227000Y-84074000D01*
X218440000Y-78232000D02*
X218948000Y-77724000D01*
X255524000Y-73152000D02*
X246888000Y-73152000D01*
X207860000Y-72810000D02*
X207772000Y-72898000D01*
X206751000Y-78745000D02*
X207264000Y-78232000D01*
X232918000Y-72810000D02*
X232498000Y-72810000D01*
X218948000Y-72898000D02*
X218860000Y-72810000D01*
X218948000Y-77724000D02*
X218948000Y-72898000D01*
X248158000Y-81280000D02*
X248158000Y-83312000D01*
X232410000Y-72898000D02*
X232410000Y-76257000D01*
X246546000Y-72810000D02*
X246634000Y-72898000D01*
X246888000Y-73152000D02*
X246634000Y-72898000D01*
X218860000Y-72810000D02*
X232918000Y-72810000D01*
X198374000Y-72898000D02*
X207772000Y-72898000D01*
X213800000Y-72810000D02*
X239200000Y-72810000D01*
%TO.N,Net-(J1-Pin_12)*%
X213800000Y-67730000D02*
X207860000Y-67730000D01*
X207860000Y-67730000D02*
X207772000Y-67818000D01*
X198374000Y-67818000D02*
X207772000Y-67818000D01*
%TO.N,Net-(J1-Pin_6)*%
X198374000Y-52578000D02*
X207772000Y-52578000D01*
X207860000Y-52490000D02*
X207772000Y-52578000D01*
X213800000Y-52490000D02*
X207860000Y-52490000D01*
%TO.N,Net-(J1-Pin_5)*%
X207860000Y-49950000D02*
X207772000Y-50038000D01*
X198374000Y-50038000D02*
X207772000Y-50038000D01*
X213800000Y-49950000D02*
X207860000Y-49950000D01*
%TO.N,Net-(J1-Pin_8)*%
X198374000Y-57658000D02*
X207772000Y-57658000D01*
X213800000Y-57570000D02*
X207860000Y-57570000D01*
X207860000Y-57570000D02*
X207772000Y-57658000D01*
%TO.N,Net-(D1-A)*%
X202692000Y-86106000D02*
X205740000Y-86106000D01*
X202692000Y-86106000D02*
X207518000Y-86106000D01*
X205740000Y-86106000D02*
X207010000Y-86106000D01*
X207518000Y-86106000D02*
X209296000Y-84328000D01*
X209296000Y-84328000D02*
X209296000Y-83820000D01*
X209291000Y-83815000D02*
X209291000Y-81534000D01*
X209296000Y-83820000D02*
X209291000Y-83815000D01*
%TO.N,Net-(J4-Pin_9)*%
X239200000Y-60110000D02*
X246546000Y-60110000D01*
X246546000Y-60110000D02*
X246634000Y-60198000D01*
X246634000Y-60198000D02*
X255270000Y-60198000D01*
X255270000Y-60198000D02*
X255524000Y-60452000D01*
%TO.N,Net-(J4-Pin_3)*%
X239200000Y-44870000D02*
X246546000Y-44870000D01*
X246546000Y-44870000D02*
X246634000Y-44958000D01*
X255524000Y-45212000D02*
X255270000Y-45212000D01*
X255270000Y-45212000D02*
X255016000Y-44958000D01*
X255016000Y-44958000D02*
X246634000Y-44958000D01*
%TO.N,Net-(J4-Pin_6)*%
X246888000Y-52832000D02*
X246634000Y-52578000D01*
X246546000Y-52490000D02*
X246634000Y-52578000D01*
X239200000Y-52490000D02*
X246546000Y-52490000D01*
X255524000Y-52832000D02*
X246888000Y-52832000D01*
%TO.N,Net-(J4-Pin_11)*%
X239200000Y-65190000D02*
X246546000Y-65190000D01*
X255270000Y-65278000D02*
X255524000Y-65532000D01*
X246634000Y-65278000D02*
X255270000Y-65278000D01*
X246546000Y-65190000D02*
X246634000Y-65278000D01*
%TO.N,Net-(J4-Pin_13)*%
X255524000Y-70612000D02*
X246888000Y-70612000D01*
X246888000Y-70612000D02*
X246634000Y-70358000D01*
X246546000Y-70270000D02*
X246634000Y-70358000D01*
X239200000Y-70270000D02*
X246546000Y-70270000D01*
%TO.N,Net-(J4-Pin_4)*%
X246888000Y-47752000D02*
X246634000Y-47498000D01*
X246546000Y-47410000D02*
X246634000Y-47498000D01*
X239200000Y-47410000D02*
X246546000Y-47410000D01*
X255524000Y-47752000D02*
X246888000Y-47752000D01*
%TO.N,Net-(J4-Pin_15)*%
X239200000Y-75350000D02*
X246546000Y-75350000D01*
X255524000Y-75692000D02*
X246888000Y-75692000D01*
X246546000Y-75350000D02*
X246634000Y-75438000D01*
X246888000Y-75692000D02*
X246634000Y-75438000D01*
%TO.N,Net-(J4-Pin_5)*%
X255524000Y-50292000D02*
X246888000Y-50292000D01*
X246888000Y-50292000D02*
X246634000Y-50038000D01*
X246546000Y-49950000D02*
X246634000Y-50038000D01*
X239200000Y-49950000D02*
X246546000Y-49950000D01*
%TO.N,Net-(J4-Pin_2)*%
X239200000Y-42330000D02*
X246546000Y-42330000D01*
X246546000Y-42330000D02*
X246634000Y-42418000D01*
X246888000Y-42672000D02*
X246634000Y-42418000D01*
X255524000Y-42672000D02*
X246888000Y-42672000D01*
%TO.N,Net-(J4-Pin_10)*%
X246634000Y-62738000D02*
X255270000Y-62738000D01*
X239200000Y-62650000D02*
X246546000Y-62650000D01*
X255270000Y-62738000D02*
X255524000Y-62992000D01*
X246546000Y-62650000D02*
X246634000Y-62738000D01*
%TO.N,Net-(J4-Pin_7)*%
X246546000Y-55030000D02*
X246634000Y-55118000D01*
X246888000Y-55372000D02*
X246634000Y-55118000D01*
X239200000Y-55030000D02*
X246546000Y-55030000D01*
X255524000Y-55372000D02*
X246888000Y-55372000D01*
%TO.N,Net-(J4-Pin_8)*%
X246546000Y-57570000D02*
X246634000Y-57658000D01*
X246888000Y-57912000D02*
X246634000Y-57658000D01*
X255524000Y-57912000D02*
X246888000Y-57912000D01*
X239200000Y-57570000D02*
X246546000Y-57570000D01*
%TO.N,Net-(J4-Pin_12)*%
X246888000Y-68072000D02*
X246634000Y-67818000D01*
X246546000Y-67730000D02*
X246634000Y-67818000D01*
X255524000Y-68072000D02*
X246888000Y-68072000D01*
X239200000Y-67730000D02*
X246546000Y-67730000D01*
%TO.N,Net-(J4-Pin_1)*%
X247142000Y-39878000D02*
X247396000Y-40132000D01*
X247396000Y-40132000D02*
X255524000Y-40132000D01*
X246634000Y-39878000D02*
X247142000Y-39878000D01*
X246546000Y-39790000D02*
X246634000Y-39878000D01*
X239200000Y-39790000D02*
X246546000Y-39790000D01*
%TO.N,Net-(D2-A)*%
X245618000Y-81280000D02*
X245618000Y-78994000D01*
X246126000Y-78486000D02*
X246380000Y-78232000D01*
X245618000Y-78994000D02*
X246380000Y-78232000D01*
X246380000Y-78232000D02*
X251714000Y-78232000D01*
%TO.N,Net-(J2-Pin_1)*%
X202692000Y-78486000D02*
X200660000Y-78486000D01*
X200660000Y-78486000D02*
X198120000Y-81026000D01*
%TO.N,Net-(J3-Pin_1)*%
X255524000Y-84582000D02*
X254254000Y-85852000D01*
X255524000Y-81280000D02*
X255524000Y-84582000D01*
X254254000Y-85852000D02*
X251714000Y-85852000D01*
%TD*%
M02*
