%TF.GenerationSoftware,KiCad,Pcbnew,8.0.7*%
%TF.CreationDate,2025-01-22T20:40:04+05:30*%
%TF.ProjectId,Esp_Test,4573705f-5465-4737-942e-6b696361645f,rev?*%
%TF.SameCoordinates,Original*%
%TF.FileFunction,Legend,Bot*%
%TF.FilePolarity,Positive*%
%FSLAX46Y46*%
G04 Gerber Fmt 4.6, Leading zero omitted, Abs format (unit mm)*
G04 Created by KiCad (PCBNEW 8.0.7) date 2025-01-22 20:40:04*
%MOMM*%
%LPD*%
G01*
G04 APERTURE LIST*
G04 Aperture macros list*
%AMRoundRect*
0 Rectangle with rounded corners*
0 $1 Rounding radius*
0 $2 $3 $4 $5 $6 $7 $8 $9 X,Y pos of 4 corners*
0 Add a 4 corners polygon primitive as box body*
4,1,4,$2,$3,$4,$5,$6,$7,$8,$9,$2,$3,0*
0 Add four circle primitives for the rounded corners*
1,1,$1+$1,$2,$3*
1,1,$1+$1,$4,$5*
1,1,$1+$1,$6,$7*
1,1,$1+$1,$8,$9*
0 Add four rect primitives between the rounded corners*
20,1,$1+$1,$2,$3,$4,$5,0*
20,1,$1+$1,$4,$5,$6,$7,0*
20,1,$1+$1,$6,$7,$8,$9,0*
20,1,$1+$1,$8,$9,$2,$3,0*%
G04 Aperture macros list end*
%ADD10C,0.152400*%
%ADD11R,1.700000X1.700000*%
%ADD12RoundRect,0.250000X-0.845000X0.620000X-0.845000X-0.620000X0.845000X-0.620000X0.845000X0.620000X0*%
%ADD13O,2.190000X1.740000*%
%ADD14R,2.300000X1.700000*%
%ADD15C,1.400000*%
%ADD16O,1.400000X1.400000*%
%ADD17O,1.700000X1.700000*%
%ADD18R,1.800000X1.800000*%
%ADD19C,1.800000*%
G04 APERTURE END LIST*
D10*
X203160213Y-37484603D02*
X203160213Y-36671803D01*
X203160213Y-36671803D02*
X202889279Y-37252375D01*
X202889279Y-37252375D02*
X202618346Y-36671803D01*
X202618346Y-36671803D02*
X202618346Y-37484603D01*
X201882956Y-37484603D02*
X201882956Y-37058851D01*
X201882956Y-37058851D02*
X201921661Y-36981441D01*
X201921661Y-36981441D02*
X201999070Y-36942737D01*
X201999070Y-36942737D02*
X202153889Y-36942737D01*
X202153889Y-36942737D02*
X202231299Y-36981441D01*
X201882956Y-37445899D02*
X201960365Y-37484603D01*
X201960365Y-37484603D02*
X202153889Y-37484603D01*
X202153889Y-37484603D02*
X202231299Y-37445899D01*
X202231299Y-37445899D02*
X202270003Y-37368489D01*
X202270003Y-37368489D02*
X202270003Y-37291079D01*
X202270003Y-37291079D02*
X202231299Y-37213670D01*
X202231299Y-37213670D02*
X202153889Y-37174965D01*
X202153889Y-37174965D02*
X201960365Y-37174965D01*
X201960365Y-37174965D02*
X201882956Y-37136260D01*
X201147566Y-37484603D02*
X201147566Y-36671803D01*
X201147566Y-37445899D02*
X201224975Y-37484603D01*
X201224975Y-37484603D02*
X201379794Y-37484603D01*
X201379794Y-37484603D02*
X201457204Y-37445899D01*
X201457204Y-37445899D02*
X201495909Y-37407194D01*
X201495909Y-37407194D02*
X201534613Y-37329784D01*
X201534613Y-37329784D02*
X201534613Y-37097556D01*
X201534613Y-37097556D02*
X201495909Y-37020146D01*
X201495909Y-37020146D02*
X201457204Y-36981441D01*
X201457204Y-36981441D02*
X201379794Y-36942737D01*
X201379794Y-36942737D02*
X201224975Y-36942737D01*
X201224975Y-36942737D02*
X201147566Y-36981441D01*
X200450881Y-37445899D02*
X200528290Y-37484603D01*
X200528290Y-37484603D02*
X200683109Y-37484603D01*
X200683109Y-37484603D02*
X200760519Y-37445899D01*
X200760519Y-37445899D02*
X200799223Y-37368489D01*
X200799223Y-37368489D02*
X200799223Y-37058851D01*
X200799223Y-37058851D02*
X200760519Y-36981441D01*
X200760519Y-36981441D02*
X200683109Y-36942737D01*
X200683109Y-36942737D02*
X200528290Y-36942737D01*
X200528290Y-36942737D02*
X200450881Y-36981441D01*
X200450881Y-36981441D02*
X200412176Y-37058851D01*
X200412176Y-37058851D02*
X200412176Y-37136260D01*
X200412176Y-37136260D02*
X200799223Y-37213670D01*
X199444557Y-37484603D02*
X199444557Y-36671803D01*
X199444557Y-36981441D02*
X199367147Y-36942737D01*
X199367147Y-36942737D02*
X199212328Y-36942737D01*
X199212328Y-36942737D02*
X199134919Y-36981441D01*
X199134919Y-36981441D02*
X199096214Y-37020146D01*
X199096214Y-37020146D02*
X199057509Y-37097556D01*
X199057509Y-37097556D02*
X199057509Y-37329784D01*
X199057509Y-37329784D02*
X199096214Y-37407194D01*
X199096214Y-37407194D02*
X199134919Y-37445899D01*
X199134919Y-37445899D02*
X199212328Y-37484603D01*
X199212328Y-37484603D02*
X199367147Y-37484603D01*
X199367147Y-37484603D02*
X199444557Y-37445899D01*
X198786576Y-36942737D02*
X198593052Y-37484603D01*
X198399529Y-36942737D02*
X198593052Y-37484603D01*
X198593052Y-37484603D02*
X198670462Y-37678127D01*
X198670462Y-37678127D02*
X198709167Y-37716832D01*
X198709167Y-37716832D02*
X198786576Y-37755537D01*
X197122272Y-37484603D02*
X197122272Y-36671803D01*
X197122272Y-37445899D02*
X197199681Y-37484603D01*
X197199681Y-37484603D02*
X197354500Y-37484603D01*
X197354500Y-37484603D02*
X197431910Y-37445899D01*
X197431910Y-37445899D02*
X197470615Y-37407194D01*
X197470615Y-37407194D02*
X197509319Y-37329784D01*
X197509319Y-37329784D02*
X197509319Y-37097556D01*
X197509319Y-37097556D02*
X197470615Y-37020146D01*
X197470615Y-37020146D02*
X197431910Y-36981441D01*
X197431910Y-36981441D02*
X197354500Y-36942737D01*
X197354500Y-36942737D02*
X197199681Y-36942737D01*
X197199681Y-36942737D02*
X197122272Y-36981441D01*
X196735225Y-37484603D02*
X196735225Y-36942737D01*
X196735225Y-36671803D02*
X196773929Y-36710508D01*
X196773929Y-36710508D02*
X196735225Y-36749213D01*
X196735225Y-36749213D02*
X196696520Y-36710508D01*
X196696520Y-36710508D02*
X196735225Y-36671803D01*
X196735225Y-36671803D02*
X196735225Y-36749213D01*
X196425586Y-36942737D02*
X196232062Y-37484603D01*
X196232062Y-37484603D02*
X196038539Y-36942737D01*
X230962327Y-61702117D02*
X230497870Y-61702117D01*
X230730098Y-62514917D02*
X230730098Y-61702117D01*
X230226937Y-62205279D02*
X229607661Y-62205279D01*
X228872270Y-62476213D02*
X228949679Y-62514917D01*
X228949679Y-62514917D02*
X229104498Y-62514917D01*
X229104498Y-62514917D02*
X229181908Y-62476213D01*
X229181908Y-62476213D02*
X229220613Y-62437508D01*
X229220613Y-62437508D02*
X229259317Y-62360098D01*
X229259317Y-62360098D02*
X229259317Y-62127870D01*
X229259317Y-62127870D02*
X229220613Y-62050460D01*
X229220613Y-62050460D02*
X229181908Y-62011755D01*
X229181908Y-62011755D02*
X229104498Y-61973051D01*
X229104498Y-61973051D02*
X228949679Y-61973051D01*
X228949679Y-61973051D02*
X228872270Y-62011755D01*
X228175584Y-62514917D02*
X228175584Y-62089165D01*
X228175584Y-62089165D02*
X228214289Y-62011755D01*
X228214289Y-62011755D02*
X228291698Y-61973051D01*
X228291698Y-61973051D02*
X228446517Y-61973051D01*
X228446517Y-61973051D02*
X228523927Y-62011755D01*
X228175584Y-62476213D02*
X228252993Y-62514917D01*
X228252993Y-62514917D02*
X228446517Y-62514917D01*
X228446517Y-62514917D02*
X228523927Y-62476213D01*
X228523927Y-62476213D02*
X228562631Y-62398803D01*
X228562631Y-62398803D02*
X228562631Y-62321393D01*
X228562631Y-62321393D02*
X228523927Y-62243984D01*
X228523927Y-62243984D02*
X228446517Y-62205279D01*
X228446517Y-62205279D02*
X228252993Y-62205279D01*
X228252993Y-62205279D02*
X228175584Y-62166574D01*
X227788537Y-61973051D02*
X227788537Y-62785851D01*
X227788537Y-62011755D02*
X227711127Y-61973051D01*
X227711127Y-61973051D02*
X227556308Y-61973051D01*
X227556308Y-61973051D02*
X227478899Y-62011755D01*
X227478899Y-62011755D02*
X227440194Y-62050460D01*
X227440194Y-62050460D02*
X227401489Y-62127870D01*
X227401489Y-62127870D02*
X227401489Y-62360098D01*
X227401489Y-62360098D02*
X227440194Y-62437508D01*
X227440194Y-62437508D02*
X227478899Y-62476213D01*
X227478899Y-62476213D02*
X227556308Y-62514917D01*
X227556308Y-62514917D02*
X227711127Y-62514917D01*
X227711127Y-62514917D02*
X227788537Y-62476213D01*
X226704804Y-62514917D02*
X226704804Y-62089165D01*
X226704804Y-62089165D02*
X226743509Y-62011755D01*
X226743509Y-62011755D02*
X226820918Y-61973051D01*
X226820918Y-61973051D02*
X226975737Y-61973051D01*
X226975737Y-61973051D02*
X227053147Y-62011755D01*
X226704804Y-62476213D02*
X226782213Y-62514917D01*
X226782213Y-62514917D02*
X226975737Y-62514917D01*
X226975737Y-62514917D02*
X227053147Y-62476213D01*
X227053147Y-62476213D02*
X227091851Y-62398803D01*
X227091851Y-62398803D02*
X227091851Y-62321393D01*
X227091851Y-62321393D02*
X227053147Y-62243984D01*
X227053147Y-62243984D02*
X226975737Y-62205279D01*
X226975737Y-62205279D02*
X226782213Y-62205279D01*
X226782213Y-62205279D02*
X226704804Y-62166574D01*
X225969414Y-62476213D02*
X226046823Y-62514917D01*
X226046823Y-62514917D02*
X226201642Y-62514917D01*
X226201642Y-62514917D02*
X226279052Y-62476213D01*
X226279052Y-62476213D02*
X226317757Y-62437508D01*
X226317757Y-62437508D02*
X226356461Y-62360098D01*
X226356461Y-62360098D02*
X226356461Y-62127870D01*
X226356461Y-62127870D02*
X226317757Y-62050460D01*
X226317757Y-62050460D02*
X226279052Y-62011755D01*
X226279052Y-62011755D02*
X226201642Y-61973051D01*
X226201642Y-61973051D02*
X226046823Y-61973051D01*
X226046823Y-61973051D02*
X225969414Y-62011755D01*
X225621071Y-62514917D02*
X225621071Y-61973051D01*
X225621071Y-61702117D02*
X225659775Y-61740822D01*
X225659775Y-61740822D02*
X225621071Y-61779527D01*
X225621071Y-61779527D02*
X225582366Y-61740822D01*
X225582366Y-61740822D02*
X225621071Y-61702117D01*
X225621071Y-61702117D02*
X225621071Y-61779527D01*
X225350137Y-61973051D02*
X225040499Y-61973051D01*
X225234023Y-61702117D02*
X225234023Y-62398803D01*
X225234023Y-62398803D02*
X225195318Y-62476213D01*
X225195318Y-62476213D02*
X225117908Y-62514917D01*
X225117908Y-62514917D02*
X225040499Y-62514917D01*
X224769566Y-62514917D02*
X224769566Y-61973051D01*
X224769566Y-61702117D02*
X224808270Y-61740822D01*
X224808270Y-61740822D02*
X224769566Y-61779527D01*
X224769566Y-61779527D02*
X224730861Y-61740822D01*
X224730861Y-61740822D02*
X224769566Y-61702117D01*
X224769566Y-61702117D02*
X224769566Y-61779527D01*
X224459927Y-61973051D02*
X224266403Y-62514917D01*
X224266403Y-62514917D02*
X224072880Y-61973051D01*
X223453604Y-62476213D02*
X223531013Y-62514917D01*
X223531013Y-62514917D02*
X223685832Y-62514917D01*
X223685832Y-62514917D02*
X223763242Y-62476213D01*
X223763242Y-62476213D02*
X223801946Y-62398803D01*
X223801946Y-62398803D02*
X223801946Y-62089165D01*
X223801946Y-62089165D02*
X223763242Y-62011755D01*
X223763242Y-62011755D02*
X223685832Y-61973051D01*
X223685832Y-61973051D02*
X223531013Y-61973051D01*
X223531013Y-61973051D02*
X223453604Y-62011755D01*
X223453604Y-62011755D02*
X223414899Y-62089165D01*
X223414899Y-62089165D02*
X223414899Y-62166574D01*
X223414899Y-62166574D02*
X223801946Y-62243984D01*
X222563394Y-61973051D02*
X222253756Y-61973051D01*
X222447280Y-61702117D02*
X222447280Y-62398803D01*
X222447280Y-62398803D02*
X222408575Y-62476213D01*
X222408575Y-62476213D02*
X222331165Y-62514917D01*
X222331165Y-62514917D02*
X222253756Y-62514917D01*
X221866708Y-62514917D02*
X221944118Y-62476213D01*
X221944118Y-62476213D02*
X221982823Y-62437508D01*
X221982823Y-62437508D02*
X222021527Y-62360098D01*
X222021527Y-62360098D02*
X222021527Y-62127870D01*
X222021527Y-62127870D02*
X221982823Y-62050460D01*
X221982823Y-62050460D02*
X221944118Y-62011755D01*
X221944118Y-62011755D02*
X221866708Y-61973051D01*
X221866708Y-61973051D02*
X221750594Y-61973051D01*
X221750594Y-61973051D02*
X221673185Y-62011755D01*
X221673185Y-62011755D02*
X221634480Y-62050460D01*
X221634480Y-62050460D02*
X221595775Y-62127870D01*
X221595775Y-62127870D02*
X221595775Y-62360098D01*
X221595775Y-62360098D02*
X221634480Y-62437508D01*
X221634480Y-62437508D02*
X221673185Y-62476213D01*
X221673185Y-62476213D02*
X221750594Y-62514917D01*
X221750594Y-62514917D02*
X221866708Y-62514917D01*
X220899090Y-61973051D02*
X220899090Y-62514917D01*
X221247433Y-61973051D02*
X221247433Y-62398803D01*
X221247433Y-62398803D02*
X221208728Y-62476213D01*
X221208728Y-62476213D02*
X221131318Y-62514917D01*
X221131318Y-62514917D02*
X221015204Y-62514917D01*
X221015204Y-62514917D02*
X220937795Y-62476213D01*
X220937795Y-62476213D02*
X220899090Y-62437508D01*
X220163700Y-62476213D02*
X220241109Y-62514917D01*
X220241109Y-62514917D02*
X220395928Y-62514917D01*
X220395928Y-62514917D02*
X220473338Y-62476213D01*
X220473338Y-62476213D02*
X220512043Y-62437508D01*
X220512043Y-62437508D02*
X220550747Y-62360098D01*
X220550747Y-62360098D02*
X220550747Y-62127870D01*
X220550747Y-62127870D02*
X220512043Y-62050460D01*
X220512043Y-62050460D02*
X220473338Y-62011755D01*
X220473338Y-62011755D02*
X220395928Y-61973051D01*
X220395928Y-61973051D02*
X220241109Y-61973051D01*
X220241109Y-61973051D02*
X220163700Y-62011755D01*
X219815357Y-62514917D02*
X219815357Y-61702117D01*
X219467014Y-62514917D02*
X219467014Y-62089165D01*
X219467014Y-62089165D02*
X219505719Y-62011755D01*
X219505719Y-62011755D02*
X219583128Y-61973051D01*
X219583128Y-61973051D02*
X219699242Y-61973051D01*
X219699242Y-61973051D02*
X219776652Y-62011755D01*
X219776652Y-62011755D02*
X219815357Y-62050460D01*
X218499395Y-62476213D02*
X218421986Y-62514917D01*
X218421986Y-62514917D02*
X218267167Y-62514917D01*
X218267167Y-62514917D02*
X218189757Y-62476213D01*
X218189757Y-62476213D02*
X218151053Y-62398803D01*
X218151053Y-62398803D02*
X218151053Y-62360098D01*
X218151053Y-62360098D02*
X218189757Y-62282689D01*
X218189757Y-62282689D02*
X218267167Y-62243984D01*
X218267167Y-62243984D02*
X218383281Y-62243984D01*
X218383281Y-62243984D02*
X218460691Y-62205279D01*
X218460691Y-62205279D02*
X218499395Y-62127870D01*
X218499395Y-62127870D02*
X218499395Y-62089165D01*
X218499395Y-62089165D02*
X218460691Y-62011755D01*
X218460691Y-62011755D02*
X218383281Y-61973051D01*
X218383281Y-61973051D02*
X218267167Y-61973051D01*
X218267167Y-61973051D02*
X218189757Y-62011755D01*
X217493072Y-62476213D02*
X217570481Y-62514917D01*
X217570481Y-62514917D02*
X217725300Y-62514917D01*
X217725300Y-62514917D02*
X217802710Y-62476213D01*
X217802710Y-62476213D02*
X217841414Y-62398803D01*
X217841414Y-62398803D02*
X217841414Y-62089165D01*
X217841414Y-62089165D02*
X217802710Y-62011755D01*
X217802710Y-62011755D02*
X217725300Y-61973051D01*
X217725300Y-61973051D02*
X217570481Y-61973051D01*
X217570481Y-61973051D02*
X217493072Y-62011755D01*
X217493072Y-62011755D02*
X217454367Y-62089165D01*
X217454367Y-62089165D02*
X217454367Y-62166574D01*
X217454367Y-62166574D02*
X217841414Y-62243984D01*
X217106024Y-61973051D02*
X217106024Y-62514917D01*
X217106024Y-62050460D02*
X217067319Y-62011755D01*
X217067319Y-62011755D02*
X216989909Y-61973051D01*
X216989909Y-61973051D02*
X216873795Y-61973051D01*
X216873795Y-61973051D02*
X216796386Y-62011755D01*
X216796386Y-62011755D02*
X216757681Y-62089165D01*
X216757681Y-62089165D02*
X216757681Y-62514917D01*
X216409338Y-62476213D02*
X216331929Y-62514917D01*
X216331929Y-62514917D02*
X216177110Y-62514917D01*
X216177110Y-62514917D02*
X216099700Y-62476213D01*
X216099700Y-62476213D02*
X216060996Y-62398803D01*
X216060996Y-62398803D02*
X216060996Y-62360098D01*
X216060996Y-62360098D02*
X216099700Y-62282689D01*
X216099700Y-62282689D02*
X216177110Y-62243984D01*
X216177110Y-62243984D02*
X216293224Y-62243984D01*
X216293224Y-62243984D02*
X216370634Y-62205279D01*
X216370634Y-62205279D02*
X216409338Y-62127870D01*
X216409338Y-62127870D02*
X216409338Y-62089165D01*
X216409338Y-62089165D02*
X216370634Y-62011755D01*
X216370634Y-62011755D02*
X216293224Y-61973051D01*
X216293224Y-61973051D02*
X216177110Y-61973051D01*
X216177110Y-61973051D02*
X216099700Y-62011755D01*
X215596538Y-62514917D02*
X215673948Y-62476213D01*
X215673948Y-62476213D02*
X215712653Y-62437508D01*
X215712653Y-62437508D02*
X215751357Y-62360098D01*
X215751357Y-62360098D02*
X215751357Y-62127870D01*
X215751357Y-62127870D02*
X215712653Y-62050460D01*
X215712653Y-62050460D02*
X215673948Y-62011755D01*
X215673948Y-62011755D02*
X215596538Y-61973051D01*
X215596538Y-61973051D02*
X215480424Y-61973051D01*
X215480424Y-61973051D02*
X215403015Y-62011755D01*
X215403015Y-62011755D02*
X215364310Y-62050460D01*
X215364310Y-62050460D02*
X215325605Y-62127870D01*
X215325605Y-62127870D02*
X215325605Y-62360098D01*
X215325605Y-62360098D02*
X215364310Y-62437508D01*
X215364310Y-62437508D02*
X215403015Y-62476213D01*
X215403015Y-62476213D02*
X215480424Y-62514917D01*
X215480424Y-62514917D02*
X215596538Y-62514917D01*
X214977263Y-62514917D02*
X214977263Y-61973051D01*
X214977263Y-62127870D02*
X214938558Y-62050460D01*
X214938558Y-62050460D02*
X214899853Y-62011755D01*
X214899853Y-62011755D02*
X214822444Y-61973051D01*
X214822444Y-61973051D02*
X214745034Y-61973051D01*
X230459165Y-63823479D02*
X230846213Y-63823479D01*
X230846213Y-63823479D02*
X230846213Y-63010679D01*
X230188232Y-63513841D02*
X229568956Y-63513841D01*
X229181908Y-63823479D02*
X229181908Y-63281613D01*
X229181908Y-63010679D02*
X229220612Y-63049384D01*
X229220612Y-63049384D02*
X229181908Y-63088089D01*
X229181908Y-63088089D02*
X229143203Y-63049384D01*
X229143203Y-63049384D02*
X229181908Y-63010679D01*
X229181908Y-63010679D02*
X229181908Y-63088089D01*
X228794860Y-63281613D02*
X228794860Y-63823479D01*
X228794860Y-63359022D02*
X228756155Y-63320317D01*
X228756155Y-63320317D02*
X228678745Y-63281613D01*
X228678745Y-63281613D02*
X228562631Y-63281613D01*
X228562631Y-63281613D02*
X228485222Y-63320317D01*
X228485222Y-63320317D02*
X228446517Y-63397727D01*
X228446517Y-63397727D02*
X228446517Y-63823479D01*
X228059470Y-63823479D02*
X228059470Y-63010679D01*
X228059470Y-63320317D02*
X227982060Y-63281613D01*
X227982060Y-63281613D02*
X227827241Y-63281613D01*
X227827241Y-63281613D02*
X227749832Y-63320317D01*
X227749832Y-63320317D02*
X227711127Y-63359022D01*
X227711127Y-63359022D02*
X227672422Y-63436432D01*
X227672422Y-63436432D02*
X227672422Y-63668660D01*
X227672422Y-63668660D02*
X227711127Y-63746070D01*
X227711127Y-63746070D02*
X227749832Y-63784775D01*
X227749832Y-63784775D02*
X227827241Y-63823479D01*
X227827241Y-63823479D02*
X227982060Y-63823479D01*
X227982060Y-63823479D02*
X228059470Y-63784775D01*
X226975737Y-63281613D02*
X226975737Y-63823479D01*
X227324080Y-63281613D02*
X227324080Y-63707365D01*
X227324080Y-63707365D02*
X227285375Y-63784775D01*
X227285375Y-63784775D02*
X227207965Y-63823479D01*
X227207965Y-63823479D02*
X227091851Y-63823479D01*
X227091851Y-63823479D02*
X227014442Y-63784775D01*
X227014442Y-63784775D02*
X226975737Y-63746070D01*
X226588690Y-63823479D02*
X226588690Y-63281613D01*
X226588690Y-63010679D02*
X226627394Y-63049384D01*
X226627394Y-63049384D02*
X226588690Y-63088089D01*
X226588690Y-63088089D02*
X226549985Y-63049384D01*
X226549985Y-63049384D02*
X226588690Y-63010679D01*
X226588690Y-63010679D02*
X226588690Y-63088089D01*
X226085527Y-63823479D02*
X226162937Y-63784775D01*
X226162937Y-63784775D02*
X226201642Y-63707365D01*
X226201642Y-63707365D02*
X226201642Y-63010679D01*
X225892004Y-63281613D02*
X225582366Y-63281613D01*
X225775890Y-63010679D02*
X225775890Y-63707365D01*
X225775890Y-63707365D02*
X225737185Y-63784775D01*
X225737185Y-63784775D02*
X225659775Y-63823479D01*
X225659775Y-63823479D02*
X225582366Y-63823479D01*
X224305109Y-63823479D02*
X224692157Y-63823479D01*
X224692157Y-63823479D02*
X224692157Y-63010679D01*
X224034176Y-63397727D02*
X223763242Y-63397727D01*
X223647128Y-63823479D02*
X224034176Y-63823479D01*
X224034176Y-63823479D02*
X224034176Y-63010679D01*
X224034176Y-63010679D02*
X223647128Y-63010679D01*
X223298786Y-63823479D02*
X223298786Y-63010679D01*
X223298786Y-63010679D02*
X223105262Y-63010679D01*
X223105262Y-63010679D02*
X222989148Y-63049384D01*
X222989148Y-63049384D02*
X222911738Y-63126794D01*
X222911738Y-63126794D02*
X222873033Y-63204203D01*
X222873033Y-63204203D02*
X222834329Y-63359022D01*
X222834329Y-63359022D02*
X222834329Y-63475136D01*
X222834329Y-63475136D02*
X222873033Y-63629955D01*
X222873033Y-63629955D02*
X222911738Y-63707365D01*
X222911738Y-63707365D02*
X222989148Y-63784775D01*
X222989148Y-63784775D02*
X223105262Y-63823479D01*
X223105262Y-63823479D02*
X223298786Y-63823479D01*
X230962327Y-64319241D02*
X230497870Y-64319241D01*
X230730098Y-65132041D02*
X230730098Y-64319241D01*
X230304346Y-64319241D02*
X229762480Y-65132041D01*
X229762480Y-64319241D02*
X230304346Y-65132041D01*
X229452842Y-64822403D02*
X228833566Y-64822403D01*
X228562632Y-64590175D02*
X228252994Y-64590175D01*
X228446518Y-64319241D02*
X228446518Y-65015927D01*
X228446518Y-65015927D02*
X228407813Y-65093337D01*
X228407813Y-65093337D02*
X228330403Y-65132041D01*
X228330403Y-65132041D02*
X228252994Y-65132041D01*
X227982061Y-65132041D02*
X227982061Y-64590175D01*
X227982061Y-64744994D02*
X227943356Y-64667584D01*
X227943356Y-64667584D02*
X227904651Y-64628879D01*
X227904651Y-64628879D02*
X227827242Y-64590175D01*
X227827242Y-64590175D02*
X227749832Y-64590175D01*
X227517603Y-65093337D02*
X227440194Y-65132041D01*
X227440194Y-65132041D02*
X227285375Y-65132041D01*
X227285375Y-65132041D02*
X227207965Y-65093337D01*
X227207965Y-65093337D02*
X227169261Y-65015927D01*
X227169261Y-65015927D02*
X227169261Y-64977222D01*
X227169261Y-64977222D02*
X227207965Y-64899813D01*
X227207965Y-64899813D02*
X227285375Y-64861108D01*
X227285375Y-64861108D02*
X227401489Y-64861108D01*
X227401489Y-64861108D02*
X227478899Y-64822403D01*
X227478899Y-64822403D02*
X227517603Y-64744994D01*
X227517603Y-64744994D02*
X227517603Y-64706289D01*
X227517603Y-64706289D02*
X227478899Y-64628879D01*
X227478899Y-64628879D02*
X227401489Y-64590175D01*
X227401489Y-64590175D02*
X227285375Y-64590175D01*
X227285375Y-64590175D02*
X227207965Y-64628879D01*
X226820918Y-64590175D02*
X226820918Y-65132041D01*
X226820918Y-64667584D02*
X226782213Y-64628879D01*
X226782213Y-64628879D02*
X226704803Y-64590175D01*
X226704803Y-64590175D02*
X226588689Y-64590175D01*
X226588689Y-64590175D02*
X226511280Y-64628879D01*
X226511280Y-64628879D02*
X226472575Y-64706289D01*
X226472575Y-64706289D02*
X226472575Y-65132041D01*
X226085528Y-65132041D02*
X226085528Y-64590175D01*
X226085528Y-64667584D02*
X226046823Y-64628879D01*
X226046823Y-64628879D02*
X225969413Y-64590175D01*
X225969413Y-64590175D02*
X225853299Y-64590175D01*
X225853299Y-64590175D02*
X225775890Y-64628879D01*
X225775890Y-64628879D02*
X225737185Y-64706289D01*
X225737185Y-64706289D02*
X225737185Y-65132041D01*
X225737185Y-64706289D02*
X225698480Y-64628879D01*
X225698480Y-64628879D02*
X225621071Y-64590175D01*
X225621071Y-64590175D02*
X225504956Y-64590175D01*
X225504956Y-64590175D02*
X225427547Y-64628879D01*
X225427547Y-64628879D02*
X225388842Y-64706289D01*
X225388842Y-64706289D02*
X225388842Y-65132041D01*
X225001795Y-65132041D02*
X225001795Y-64590175D01*
X225001795Y-64319241D02*
X225040499Y-64357946D01*
X225040499Y-64357946D02*
X225001795Y-64396651D01*
X225001795Y-64396651D02*
X224963090Y-64357946D01*
X224963090Y-64357946D02*
X225001795Y-64319241D01*
X225001795Y-64319241D02*
X225001795Y-64396651D01*
X224730861Y-64590175D02*
X224421223Y-64590175D01*
X224614747Y-64319241D02*
X224614747Y-65015927D01*
X224614747Y-65015927D02*
X224576042Y-65093337D01*
X224576042Y-65093337D02*
X224498632Y-65132041D01*
X224498632Y-65132041D02*
X224421223Y-65132041D01*
X224266404Y-64590175D02*
X223956766Y-64590175D01*
X224150290Y-64319241D02*
X224150290Y-65015927D01*
X224150290Y-65015927D02*
X224111585Y-65093337D01*
X224111585Y-65093337D02*
X224034175Y-65132041D01*
X224034175Y-65132041D02*
X223956766Y-65132041D01*
X223376195Y-65093337D02*
X223453604Y-65132041D01*
X223453604Y-65132041D02*
X223608423Y-65132041D01*
X223608423Y-65132041D02*
X223685833Y-65093337D01*
X223685833Y-65093337D02*
X223724537Y-65015927D01*
X223724537Y-65015927D02*
X223724537Y-64706289D01*
X223724537Y-64706289D02*
X223685833Y-64628879D01*
X223685833Y-64628879D02*
X223608423Y-64590175D01*
X223608423Y-64590175D02*
X223453604Y-64590175D01*
X223453604Y-64590175D02*
X223376195Y-64628879D01*
X223376195Y-64628879D02*
X223337490Y-64706289D01*
X223337490Y-64706289D02*
X223337490Y-64783698D01*
X223337490Y-64783698D02*
X223724537Y-64861108D01*
X222989147Y-65132041D02*
X222989147Y-64590175D01*
X222989147Y-64744994D02*
X222950442Y-64667584D01*
X222950442Y-64667584D02*
X222911737Y-64628879D01*
X222911737Y-64628879D02*
X222834328Y-64590175D01*
X222834328Y-64590175D02*
X222756918Y-64590175D01*
X221866709Y-64590175D02*
X221866709Y-65402975D01*
X221866709Y-64628879D02*
X221789299Y-64590175D01*
X221789299Y-64590175D02*
X221634480Y-64590175D01*
X221634480Y-64590175D02*
X221557071Y-64628879D01*
X221557071Y-64628879D02*
X221518366Y-64667584D01*
X221518366Y-64667584D02*
X221479661Y-64744994D01*
X221479661Y-64744994D02*
X221479661Y-64977222D01*
X221479661Y-64977222D02*
X221518366Y-65054632D01*
X221518366Y-65054632D02*
X221557071Y-65093337D01*
X221557071Y-65093337D02*
X221634480Y-65132041D01*
X221634480Y-65132041D02*
X221789299Y-65132041D01*
X221789299Y-65132041D02*
X221866709Y-65093337D01*
X221131319Y-65132041D02*
X221131319Y-64590175D01*
X221131319Y-64319241D02*
X221170023Y-64357946D01*
X221170023Y-64357946D02*
X221131319Y-64396651D01*
X221131319Y-64396651D02*
X221092614Y-64357946D01*
X221092614Y-64357946D02*
X221131319Y-64319241D01*
X221131319Y-64319241D02*
X221131319Y-64396651D01*
X220744271Y-64590175D02*
X220744271Y-65132041D01*
X220744271Y-64667584D02*
X220705566Y-64628879D01*
X220705566Y-64628879D02*
X220628156Y-64590175D01*
X220628156Y-64590175D02*
X220512042Y-64590175D01*
X220512042Y-64590175D02*
X220434633Y-64628879D01*
X220434633Y-64628879D02*
X220395928Y-64706289D01*
X220395928Y-64706289D02*
X220395928Y-65132041D01*
X230381756Y-66440603D02*
X230652689Y-66053556D01*
X230846213Y-66440603D02*
X230846213Y-65627803D01*
X230846213Y-65627803D02*
X230536575Y-65627803D01*
X230536575Y-65627803D02*
X230459165Y-65666508D01*
X230459165Y-65666508D02*
X230420460Y-65705213D01*
X230420460Y-65705213D02*
X230381756Y-65782622D01*
X230381756Y-65782622D02*
X230381756Y-65898737D01*
X230381756Y-65898737D02*
X230420460Y-65976146D01*
X230420460Y-65976146D02*
X230459165Y-66014851D01*
X230459165Y-66014851D02*
X230536575Y-66053556D01*
X230536575Y-66053556D02*
X230846213Y-66053556D01*
X230110822Y-65627803D02*
X229568956Y-66440603D01*
X229568956Y-65627803D02*
X230110822Y-66440603D01*
X229259318Y-66130965D02*
X228640042Y-66130965D01*
X228252994Y-66440603D02*
X228252994Y-65898737D01*
X228252994Y-66053556D02*
X228214289Y-65976146D01*
X228214289Y-65976146D02*
X228175584Y-65937441D01*
X228175584Y-65937441D02*
X228098175Y-65898737D01*
X228098175Y-65898737D02*
X228020765Y-65898737D01*
X227440194Y-66401899D02*
X227517603Y-66440603D01*
X227517603Y-66440603D02*
X227672422Y-66440603D01*
X227672422Y-66440603D02*
X227749832Y-66401899D01*
X227749832Y-66401899D02*
X227788536Y-66324489D01*
X227788536Y-66324489D02*
X227788536Y-66014851D01*
X227788536Y-66014851D02*
X227749832Y-65937441D01*
X227749832Y-65937441D02*
X227672422Y-65898737D01*
X227672422Y-65898737D02*
X227517603Y-65898737D01*
X227517603Y-65898737D02*
X227440194Y-65937441D01*
X227440194Y-65937441D02*
X227401489Y-66014851D01*
X227401489Y-66014851D02*
X227401489Y-66092260D01*
X227401489Y-66092260D02*
X227788536Y-66169670D01*
X226704803Y-66401899D02*
X226782212Y-66440603D01*
X226782212Y-66440603D02*
X226937031Y-66440603D01*
X226937031Y-66440603D02*
X227014441Y-66401899D01*
X227014441Y-66401899D02*
X227053146Y-66363194D01*
X227053146Y-66363194D02*
X227091850Y-66285784D01*
X227091850Y-66285784D02*
X227091850Y-66053556D01*
X227091850Y-66053556D02*
X227053146Y-65976146D01*
X227053146Y-65976146D02*
X227014441Y-65937441D01*
X227014441Y-65937441D02*
X226937031Y-65898737D01*
X226937031Y-65898737D02*
X226782212Y-65898737D01*
X226782212Y-65898737D02*
X226704803Y-65937441D01*
X226356460Y-66440603D02*
X226356460Y-65898737D01*
X226356460Y-65627803D02*
X226395164Y-65666508D01*
X226395164Y-65666508D02*
X226356460Y-65705213D01*
X226356460Y-65705213D02*
X226317755Y-65666508D01*
X226317755Y-65666508D02*
X226356460Y-65627803D01*
X226356460Y-65627803D02*
X226356460Y-65705213D01*
X226046821Y-65898737D02*
X225853297Y-66440603D01*
X225853297Y-66440603D02*
X225659774Y-65898737D01*
X225040498Y-66401899D02*
X225117907Y-66440603D01*
X225117907Y-66440603D02*
X225272726Y-66440603D01*
X225272726Y-66440603D02*
X225350136Y-66401899D01*
X225350136Y-66401899D02*
X225388840Y-66324489D01*
X225388840Y-66324489D02*
X225388840Y-66014851D01*
X225388840Y-66014851D02*
X225350136Y-65937441D01*
X225350136Y-65937441D02*
X225272726Y-65898737D01*
X225272726Y-65898737D02*
X225117907Y-65898737D01*
X225117907Y-65898737D02*
X225040498Y-65937441D01*
X225040498Y-65937441D02*
X225001793Y-66014851D01*
X225001793Y-66014851D02*
X225001793Y-66092260D01*
X225001793Y-66092260D02*
X225388840Y-66169670D01*
X224653450Y-66440603D02*
X224653450Y-65898737D01*
X224653450Y-66053556D02*
X224614745Y-65976146D01*
X224614745Y-65976146D02*
X224576040Y-65937441D01*
X224576040Y-65937441D02*
X224498631Y-65898737D01*
X224498631Y-65898737D02*
X224421221Y-65898737D01*
X223531012Y-65898737D02*
X223531012Y-66711537D01*
X223531012Y-65937441D02*
X223453602Y-65898737D01*
X223453602Y-65898737D02*
X223298783Y-65898737D01*
X223298783Y-65898737D02*
X223221374Y-65937441D01*
X223221374Y-65937441D02*
X223182669Y-65976146D01*
X223182669Y-65976146D02*
X223143964Y-66053556D01*
X223143964Y-66053556D02*
X223143964Y-66285784D01*
X223143964Y-66285784D02*
X223182669Y-66363194D01*
X223182669Y-66363194D02*
X223221374Y-66401899D01*
X223221374Y-66401899D02*
X223298783Y-66440603D01*
X223298783Y-66440603D02*
X223453602Y-66440603D01*
X223453602Y-66440603D02*
X223531012Y-66401899D01*
X222795622Y-66440603D02*
X222795622Y-65898737D01*
X222795622Y-65627803D02*
X222834326Y-65666508D01*
X222834326Y-65666508D02*
X222795622Y-65705213D01*
X222795622Y-65705213D02*
X222756917Y-65666508D01*
X222756917Y-65666508D02*
X222795622Y-65627803D01*
X222795622Y-65627803D02*
X222795622Y-65705213D01*
X222408574Y-65898737D02*
X222408574Y-66440603D01*
X222408574Y-65976146D02*
X222369869Y-65937441D01*
X222369869Y-65937441D02*
X222292459Y-65898737D01*
X222292459Y-65898737D02*
X222176345Y-65898737D01*
X222176345Y-65898737D02*
X222098936Y-65937441D01*
X222098936Y-65937441D02*
X222060231Y-66014851D01*
X222060231Y-66014851D02*
X222060231Y-66440603D01*
%LPC*%
D11*
%TO.C,J3*%
X255524000Y-81280000D03*
%TD*%
%TO.C,J2*%
X198120000Y-81026000D03*
%TD*%
D12*
%TO.C,J4*%
X246634000Y-39878000D03*
D13*
X246634000Y-42418000D03*
X246634000Y-44958000D03*
X246634000Y-47498000D03*
X246634000Y-50038000D03*
X246634000Y-52578000D03*
X246634000Y-55118000D03*
X246634000Y-57658000D03*
X246634000Y-60198000D03*
X246634000Y-62738000D03*
X246634000Y-65278000D03*
X246634000Y-67818000D03*
X246634000Y-70358000D03*
X246634000Y-72898000D03*
X246634000Y-75438000D03*
%TD*%
D14*
%TO.C,U1*%
X213800000Y-39790000D03*
X213800000Y-42330000D03*
X213800000Y-44870000D03*
X213800000Y-47410000D03*
X213800000Y-49950000D03*
X213800000Y-52490000D03*
X213800000Y-55030000D03*
X213800000Y-57570000D03*
X213800000Y-60110000D03*
X213800000Y-62650000D03*
X213800000Y-65190000D03*
X213800000Y-67730000D03*
X213800000Y-70270000D03*
X213800000Y-72810000D03*
X213800000Y-75350000D03*
X239200000Y-75350000D03*
X239200000Y-72810000D03*
X239200000Y-70270000D03*
X239200000Y-67730000D03*
X239200000Y-65190000D03*
X239200000Y-62650000D03*
X239200000Y-60110000D03*
X239200000Y-57570000D03*
X239200000Y-55030000D03*
X239200000Y-52490000D03*
X239200000Y-49950000D03*
X239200000Y-47410000D03*
X239200000Y-44870000D03*
X239200000Y-42330000D03*
X239200000Y-39790000D03*
%TD*%
D15*
%TO.C,R1*%
X202692000Y-86106000D03*
D16*
X202692000Y-78486000D03*
%TD*%
D11*
%TO.C,J1*%
X198374000Y-39878000D03*
D17*
X198374000Y-42418000D03*
X198374000Y-44958000D03*
X198374000Y-47498000D03*
X198374000Y-50038000D03*
X198374000Y-52578000D03*
X198374000Y-55118000D03*
X198374000Y-57658000D03*
X198374000Y-60198000D03*
X198374000Y-62738000D03*
X198374000Y-65278000D03*
X198374000Y-67818000D03*
X198374000Y-70358000D03*
X198374000Y-72898000D03*
X198374000Y-75438000D03*
%TD*%
D15*
%TO.C,R2*%
X251714000Y-78232000D03*
D16*
X251714000Y-85852000D03*
%TD*%
D18*
%TO.C,D1*%
X206751000Y-81534000D03*
D19*
X209291000Y-81534000D03*
%TD*%
D12*
%TO.C,J5*%
X207772000Y-39878000D03*
D13*
X207772000Y-42418000D03*
X207772000Y-44958000D03*
X207772000Y-47498000D03*
X207772000Y-50038000D03*
X207772000Y-52578000D03*
X207772000Y-55118000D03*
X207772000Y-57658000D03*
X207772000Y-60198000D03*
X207772000Y-62738000D03*
X207772000Y-65278000D03*
X207772000Y-67818000D03*
X207772000Y-70358000D03*
X207772000Y-72898000D03*
X207772000Y-75438000D03*
%TD*%
D18*
%TO.C,D2*%
X248158000Y-81280000D03*
D19*
X245618000Y-81280000D03*
%TD*%
D11*
%TO.C,J6*%
X255524000Y-40132000D03*
D17*
X255524000Y-42672000D03*
X255524000Y-45212000D03*
X255524000Y-47752000D03*
X255524000Y-50292000D03*
X255524000Y-52832000D03*
X255524000Y-55372000D03*
X255524000Y-57912000D03*
X255524000Y-60452000D03*
X255524000Y-62992000D03*
X255524000Y-65532000D03*
X255524000Y-68072000D03*
X255524000Y-70612000D03*
X255524000Y-73152000D03*
X255524000Y-75692000D03*
%TD*%
%LPD*%
M02*
